{"glyphs":{"0":{"ha":840,"x_min":65,"x_max":776,"o":"m 776 458 q 690 100 776 218 q 421 -18 603 -18 q 151 99 238 -18 q 65 456 65 217 q 151 820 65 700 q 421 940 238 940 q 690 821 603 940 q 776 458 776 701 m 594 457 q 576 647 594 575 q 520 751 558 718 q 421 783 482 783 q 322 751 360 783 q 265 647 283 718 q 247 457 247 575 q 265 273 247 343 q 322 172 283 203 q 421 140 360 140 q 520 172 482 140 q 576 273 558 203 q 594 457 594 343 z "},"1":{"ha":840,"x_min":197,"x_max":593,"o":"m 197 858 l 454 924 l 593 924 l 593 0 l 419 0 l 419 750 l 197 694 l 197 858 z "},"2":{"ha":840,"x_min":100,"x_max":733,"o":"m 139 751 l 119 908 q 191 925 149 918 q 284 936 233 932 q 386 940 335 940 q 553 916 478 940 q 674 835 629 892 q 719 678 719 778 q 710 600 719 636 q 676 526 700 564 q 614 442 653 488 q 518 335 575 396 q 382 194 461 275 l 342 157 l 733 157 l 733 0 l 100 0 l 100 149 l 153 197 q 311 355 246 289 q 420 469 376 421 q 488 553 464 518 q 523 617 513 589 q 533 672 533 644 q 513 738 533 714 q 455 773 493 763 q 363 783 417 783 q 283 778 325 783 q 203 767 240 774 q 139 751 165 760 z "},"3":{"ha":840,"x_min":96,"x_max":738,"o":"m 119 924 l 708 924 l 708 782 l 451 543 q 567 522 514 539 q 658 475 619 506 q 717 397 696 444 q 738 282 738 350 q 692 110 738 176 q 566 13 647 44 q 374 -18 485 -18 q 222 -8 289 -18 q 96 18 156 3 l 111 175 q 233 150 172 160 q 358 140 294 140 q 501 170 447 140 q 554 278 554 200 q 540 342 554 315 q 500 384 526 368 q 438 407 474 400 q 357 414 401 414 l 256 414 l 256 536 l 499 769 l 119 769 l 119 924 z "},"4":{"ha":840,"x_min":46,"x_max":796,"o":"m 460 924 l 688 924 l 688 342 l 796 342 l 796 185 l 688 185 l 688 0 l 519 0 l 519 185 l 46 185 l 46 331 l 460 924 m 210 314 l 140 342 l 519 342 l 519 807 l 536 767 l 210 314 z "},"5":{"ha":840,"x_min":108,"x_max":732,"o":"m 692 924 l 692 761 l 317 761 l 300 561 q 322 563 308 563 q 353 565 336 564 q 389 567 371 567 q 580 538 504 567 q 694 448 656 510 q 732 288 732 386 q 692 112 732 179 q 573 13 651 44 q 376 -18 494 -18 q 234 -10 299 -18 q 108 17 169 -1 l 122 174 q 247 148 190 156 q 360 140 304 140 q 463 153 421 140 q 528 198 506 167 q 550 281 550 229 q 528 359 550 331 q 463 400 506 388 q 354 413 419 413 q 310 410 338 413 q 244 405 282 408 q 161 396 207 401 l 128 432 l 169 924 l 692 924 z "},"6":{"ha":840,"x_min":83,"x_max":768,"o":"m 263 392 q 269 294 263 340 q 293 214 275 249 q 347 160 311 179 q 440 140 382 140 q 556 180 517 140 q 594 286 594 219 q 556 392 594 357 q 438 426 517 426 q 349 416 394 426 q 263 392 303 406 m 722 915 l 706 761 q 601 777 657 771 q 494 783 546 783 q 321 731 379 783 q 261 549 263 679 q 356 573 301 563 q 465 583 411 583 q 691 512 614 583 q 768 293 768 440 q 685 66 768 150 q 440 -18 601 -18 q 242 31 321 -18 q 123 183 163 79 q 83 450 83 286 q 133 741 83 633 q 274 894 183 849 q 488 940 365 940 q 610 933 544 940 q 722 915 675 926 z "},"7":{"ha":840,"x_min":93,"x_max":746,"o":"m 93 924 l 746 924 l 746 783 l 371 0 l 178 0 l 553 761 l 93 761 l 93 924 z "},"8":{"ha":840,"x_min":67,"x_max":775,"o":"m 421 404 q 287 369 332 404 q 242 265 242 335 q 287 166 242 199 q 421 133 332 133 q 555 166 510 133 q 600 265 600 199 q 555 369 600 335 q 421 404 510 404 m 621 472 q 736 386 697 442 q 775 250 775 331 q 685 50 775 118 q 421 -18 594 -18 q 157 50 247 -18 q 67 250 67 118 q 106 386 67 331 q 219 472 144 442 q 124 550 157 497 q 92 683 92 603 q 176 876 92 811 q 421 940 260 940 q 666 876 582 940 q 750 683 750 811 q 717 550 750 603 q 621 472 685 497 m 421 793 q 268 672 268 793 q 421 540 268 540 q 574 672 574 540 q 421 793 574 793 z "},"9":{"ha":840,"x_min":72,"x_max":758,"o":"m 579 532 q 573 630 579 585 q 549 710 567 675 q 495 764 531 744 q 401 783 460 783 q 286 743 325 783 q 247 636 247 703 q 286 531 247 565 q 404 497 325 497 q 494 508 449 497 q 579 532 540 518 m 119 7 l 136 161 q 240 146 185 151 q 346 140 296 140 q 521 192 463 140 q 579 374 579 243 q 485 349 540 360 q 376 339 431 339 q 151 411 229 339 q 72 629 72 483 q 156 856 72 772 q 401 940 240 940 q 600 892 521 940 q 719 740 679 843 q 758 472 758 638 q 708 182 758 289 q 568 28 658 75 q 354 -18 478 -18 q 233 -10 299 -18 q 119 7 168 -3 z "},"\u0000":{"ha":0,"x_min":0,"x_max":0,"o":""},"\r":{"ha":392,"x_min":0,"x_max":0,"o":""}," ":{"ha":346,"x_min":0,"x_max":0,"o":""}," ":{"ha":346,"x_min":0,"x_max":0,"o":""},"A":{"ha":919,"x_min":97,"x_max":822,"o":"m 276 308 l 276 0 l 97 0 l 97 600 q 132 783 97 707 q 246 899 167 858 q 458 940 325 940 q 672 899 592 940 q 787 783 751 858 q 822 600 822 707 l 822 0 l 640 0 l 640 308 l 276 308 m 276 461 l 640 461 l 640 613 q 596 740 640 697 q 458 783 551 783 q 321 740 365 783 q 276 613 276 697 l 276 461 z "},"B":{"ha":875,"x_min":108,"x_max":811,"o":"m 290 394 l 290 139 q 361 131 324 135 q 429 128 399 128 q 574 163 533 128 q 614 265 614 197 q 573 362 614 329 q 439 394 532 394 l 290 394 m 290 779 l 290 538 l 436 538 q 553 567 513 538 q 593 663 593 597 q 553 753 593 726 q 432 779 514 779 l 290 779 m 108 924 l 426 924 q 615 901 536 924 q 738 826 694 878 q 781 688 781 774 q 742 547 781 599 q 626 471 703 494 q 721 435 679 461 q 787 364 763 408 q 811 251 811 319 q 764 95 811 154 q 632 9 717 36 q 435 -18 547 -18 q 281 -8 365 -18 q 108 19 197 1 l 108 924 z "},"C":{"ha":790,"x_min":71,"x_max":738,"o":"m 733 914 l 714 756 q 611 775 668 768 q 500 782 554 782 q 322 707 383 782 q 260 464 260 632 q 288 272 260 342 q 371 172 315 201 q 511 143 426 143 q 620 153 565 143 q 724 172 675 163 l 738 17 q 630 -8 690 3 q 501 -18 569 -18 q 267 29 364 -18 q 121 182 171 76 q 71 464 71 288 q 121 740 71 635 q 268 892 171 844 q 507 940 365 940 q 630 932 569 940 q 733 914 690 924 z "},"D":{"ha":938,"x_min":108,"x_max":868,"o":"m 108 924 l 446 924 q 758 815 649 924 q 868 472 868 706 q 847 274 868 364 q 774 119 825 185 q 633 17 722 53 q 410 -18 544 -18 q 268 -10 343 -18 q 108 17 193 -1 l 108 924 m 290 769 l 290 151 q 353 143 322 146 q 417 140 383 140 q 574 178 517 140 q 657 288 632 215 q 682 469 682 361 q 622 701 682 632 q 446 769 561 769 l 290 769 z "},"E":{"ha":751,"x_min":101,"x_max":692,"o":"m 101 924 l 674 924 l 674 769 l 282 769 l 282 549 l 642 549 l 642 394 l 282 394 l 282 256 q 317 175 282 196 q 407 154 351 154 l 692 154 l 692 0 l 399 0 q 238 22 304 0 q 136 97 171 44 q 101 239 101 149 l 101 924 z "},"F":{"ha":742,"x_min":108,"x_max":693,"o":"m 108 924 l 693 924 l 693 769 l 290 769 l 290 525 l 643 525 l 643 371 l 290 371 l 290 0 l 108 0 l 108 924 z "},"G":{"ha":904,"x_min":69,"x_max":819,"o":"m 804 913 l 792 754 q 677 774 743 765 q 546 783 611 783 q 385 751 449 783 q 290 649 321 718 q 260 465 260 579 q 288 269 260 340 q 371 169 317 199 q 501 140 425 140 q 575 144 536 140 q 647 154 614 149 l 647 369 l 471 369 l 471 518 l 819 518 l 819 33 q 732 9 782 21 q 625 -10 682 -3 q 511 -18 568 -18 q 324 6 406 -18 q 185 85 242 29 q 99 233 128 140 q 69 465 69 326 q 126 744 69 640 q 288 894 183 849 q 538 940 393 940 q 630 936 581 940 q 726 926 679 932 q 804 913 772 919 z "},"H":{"ha":990,"x_min":108,"x_max":882,"o":"m 108 924 l 290 924 l 290 554 l 700 554 l 700 924 l 882 924 l 882 0 l 700 0 l 700 394 l 290 394 l 290 0 l 108 0 l 108 924 z "},"I":{"ha":399,"x_min":108,"x_max":290,"o":"m 108 924 l 290 924 l 290 0 l 108 0 l 108 924 z "},"J":{"ha":401,"x_min":-65,"x_max":293,"o":"m 111 924 l 293 924 l 293 125 q 269 -18 293 46 q 184 -142 244 -82 q 14 -275 124 -203 l -65 -140 q 41 -51 3 -90 q 95 31 79 -11 q 111 129 111 74 l 111 924 z "},"K":{"ha":918,"x_min":108,"x_max":875,"o":"m 108 924 l 290 924 l 290 475 l 674 924 l 874 924 l 540 532 q 677 444 622 510 q 776 257 732 379 l 875 0 l 672 0 l 599 207 q 549 321 575 279 q 491 381 524 363 q 414 403 458 400 l 290 263 l 290 0 l 108 0 l 108 924 z "},"L":{"ha":711,"x_min":108,"x_max":667,"o":"m 108 924 l 290 924 l 290 154 l 667 154 l 667 0 l 108 0 l 108 924 z "},"M":{"ha":1182,"x_min":108,"x_max":1074,"o":"m 656 263 l 525 263 l 290 636 l 290 0 l 108 0 l 108 924 l 292 924 l 590 453 l 890 924 l 1074 924 l 1074 0 l 890 0 l 890 636 l 656 263 z "},"N":{"ha":999,"x_min":108,"x_max":890,"o":"m 108 924 l 251 924 l 711 421 l 711 924 l 890 924 l 890 0 l 711 0 l 711 174 l 285 640 l 285 0 l 108 0 l 108 924 z "},"O":{"ha":972,"x_min":71,"x_max":900,"o":"m 486 940 q 798 824 696 940 q 900 460 900 707 q 798 99 900 215 q 486 -18 696 -18 q 174 99 276 -18 q 71 460 71 215 q 174 824 71 707 q 486 940 276 940 m 488 783 q 317 710 374 783 q 261 461 261 636 q 317 213 261 286 q 488 140 374 140 q 656 213 600 140 q 711 461 711 286 q 656 710 711 636 q 488 783 600 783 z "},"P":{"ha":833,"x_min":108,"x_max":776,"o":"m 290 769 l 290 476 q 353 469 322 471 q 410 467 383 467 q 551 503 506 467 q 596 621 596 540 q 551 738 596 706 q 414 769 507 769 l 290 769 m 108 924 l 414 924 q 615 894 535 924 q 736 799 696 865 q 776 621 776 732 q 734 438 776 507 q 616 340 692 369 q 438 310 540 310 q 367 313 403 310 q 290 322 331 317 l 290 0 l 108 0 l 108 924 z "},"Q":{"ha":972,"x_min":71,"x_max":947,"o":"m 411 -212 l 411 -71 q 497 -81 449 -71 q 597 -103 546 -90 q 694 -127 649 -117 q 774 -137 740 -137 q 831 -127 807 -137 q 875 -99 854 -117 l 947 -221 q 879 -271 919 -251 q 778 -290 839 -290 q 685 -278 735 -290 q 585 -251 635 -267 q 490 -224 535 -236 q 411 -212 444 -212 m 486 940 q 798 824 696 940 q 900 460 900 707 q 798 99 900 215 q 486 -18 696 -18 q 174 99 276 -18 q 71 460 71 215 q 174 824 71 707 q 486 940 276 940 m 488 783 q 317 710 374 783 q 261 461 261 636 q 317 213 261 286 q 488 140 374 140 q 656 213 600 140 q 711 461 711 286 q 656 710 711 636 q 488 783 600 783 z "},"R":{"ha":869,"x_min":108,"x_max":821,"o":"m 108 924 l 414 924 q 615 895 535 924 q 736 803 696 867 q 776 629 776 739 q 752 512 776 558 q 688 438 728 465 q 601 396 649 411 q 685 342 650 378 q 744 232 719 306 l 821 0 l 631 0 l 567 190 q 528 274 549 243 q 478 317 508 304 q 400 331 449 331 l 290 331 l 290 0 l 108 0 l 108 924 m 290 769 l 290 486 l 410 486 q 551 519 506 486 q 596 629 596 553 q 551 740 596 710 q 414 769 507 769 l 290 769 z "},"S":{"ha":751,"x_min":64,"x_max":696,"o":"m 656 915 l 642 765 q 536 781 594 774 q 429 789 478 789 q 297 772 342 789 q 253 710 253 754 q 285 638 253 669 q 367 580 317 607 q 474 524 418 553 q 581 456 531 494 q 664 363 632 417 q 696 233 696 310 q 610 42 696 103 q 361 -18 524 -18 q 199 -3 274 -18 q 64 28 125 11 l 81 178 q 210 147 146 160 q 354 133 275 133 q 466 153 424 133 q 508 219 508 172 q 476 298 508 264 q 394 362 444 332 q 288 423 344 392 q 181 493 231 454 q 99 584 131 532 q 67 707 67 636 q 110 845 67 794 q 236 917 154 896 q 429 939 318 939 q 547 931 486 939 q 656 915 608 924 z "},"T":{"ha":851,"x_min":43,"x_max":808,"o":"m 43 924 l 808 924 l 808 769 l 517 769 l 517 0 l 335 0 l 335 769 l 43 769 l 43 924 z "},"U":{"ha":947,"x_min":96,"x_max":839,"o":"m 96 924 l 279 924 l 279 321 q 301 222 279 263 q 366 161 322 182 q 476 140 410 140 q 584 147 538 140 q 657 161 631 154 l 657 924 l 839 924 l 839 40 q 683 2 775 22 q 471 -18 590 -18 q 250 22 332 -18 q 132 137 168 63 q 96 313 96 211 l 96 924 z "},"V":{"ha":943,"x_min":36,"x_max":899,"o":"m 569 0 l 374 0 l 36 924 l 229 924 l 483 213 q 621 527 556 353 q 722 924 686 701 l 899 924 q 822 582 874 743 q 703 276 769 421 q 569 0 638 132 z "},"W":{"ha":1290,"x_min":43,"x_max":1239,"o":"m 443 0 l 267 0 l 43 924 l 232 924 l 381 240 l 569 753 l 722 753 l 918 231 q 1008 542 971 371 q 1068 924 1044 714 l 1239 924 q 1200 664 1222 788 q 1149 427 1178 540 q 1086 208 1121 314 q 1010 0 1051 101 l 839 0 l 646 544 l 443 0 z "},"X":{"ha":915,"x_min":39,"x_max":875,"o":"m 264 924 l 493 565 l 546 514 l 875 0 l 664 0 l 424 372 l 374 419 l 53 924 l 264 924 m 360 474 l 458 340 l 229 0 l 39 0 l 360 474 m 553 458 l 453 592 l 682 924 l 872 924 l 553 458 z "},"Y":{"ha":907,"x_min":32,"x_max":867,"o":"m 361 0 l 361 325 l 32 924 l 231 924 l 468 483 q 532 565 499 515 q 596 676 565 615 q 650 800 626 736 q 683 924 674 864 l 867 924 q 791 701 839 813 q 681 493 743 589 q 546 331 619 397 l 546 0 l 361 0 z "},"Z":{"ha":831,"x_min":57,"x_max":775,"o":"m 72 924 l 761 924 l 761 778 l 276 154 l 775 154 l 775 0 l 57 0 l 57 146 l 540 769 l 72 769 l 72 924 z "},"Æ":{"ha":1292,"x_min":97,"x_max":1233,"o":"m 653 924 l 1215 924 l 1215 769 l 824 769 l 824 538 l 1183 538 l 1183 383 l 824 383 l 824 256 q 858 175 824 196 q 947 154 892 154 l 1233 154 l 1233 0 l 939 0 q 778 22 844 0 q 676 97 711 44 q 642 239 642 150 l 642 383 l 276 383 l 276 0 l 97 0 l 97 600 q 131 782 97 706 q 241 899 165 858 q 440 940 317 940 q 569 919 514 940 q 653 858 625 899 l 653 924 m 276 535 l 640 535 l 640 613 q 597 739 640 694 q 458 783 553 783 q 320 739 364 783 q 276 613 276 694 l 276 535 z "},"Œ":{"ha":1349,"x_min":71,"x_max":1290,"o":"m 718 924 l 1272 924 l 1272 769 l 881 769 l 881 549 l 1240 549 l 1240 394 l 881 394 l 881 257 q 915 176 881 197 q 1004 154 949 154 l 1290 154 l 1290 0 l 996 0 q 850 20 908 0 q 765 88 792 40 l 760 104 q 651 13 721 43 q 479 -18 581 -18 q 173 97 275 -18 q 71 460 71 213 q 173 825 71 710 q 479 940 275 940 q 620 918 561 940 q 718 851 679 896 l 718 924 m 697 461 q 673 650 697 579 q 601 752 649 721 q 481 783 553 783 q 358 752 407 783 q 285 650 310 721 q 261 461 261 579 q 285 273 261 343 q 358 172 310 203 q 481 140 407 140 q 601 172 553 140 q 673 273 649 203 q 697 461 697 343 z "},"Ł":{"ha":771,"x_min":46,"x_max":728,"o":"m 169 924 l 351 924 l 351 565 l 601 664 l 601 499 l 351 401 l 351 154 l 728 154 l 728 0 l 169 0 l 169 329 l 46 281 l 46 444 l 169 492 l 169 924 z "},"Ø":{"ha":968,"x_min":69,"x_max":899,"o":"m 485 940 q 797 824 694 940 q 899 460 899 707 q 797 99 899 215 q 485 -18 694 -18 q 172 99 275 -18 q 69 460 69 215 q 172 824 69 707 q 485 940 275 940 m 486 794 q 360 762 410 794 q 285 656 310 729 q 260 461 260 582 q 285 267 260 340 q 360 161 310 194 q 486 128 410 128 q 611 161 561 128 q 685 267 661 194 q 710 461 710 340 q 685 656 710 582 q 611 762 661 729 q 486 794 561 794 m 892 942 l 196 -110 l 76 -25 l 772 1025 l 892 942 z "},"Ð":{"ha":992,"x_min":46,"x_max":922,"o":"m 46 394 l 46 549 l 558 549 l 558 394 l 46 394 m 163 924 l 500 924 q 813 815 703 924 q 922 472 922 706 q 901 274 922 364 q 828 119 879 185 q 688 17 776 53 q 464 -18 599 -18 q 322 -10 397 -18 q 163 17 247 -1 l 163 924 m 344 769 l 344 151 q 407 143 376 146 q 471 140 438 140 q 628 178 571 140 q 711 288 686 215 q 736 469 736 361 q 676 701 736 632 q 500 769 615 769 l 344 769 z "},"Þ":{"ha":832,"x_min":108,"x_max":776,"o":"m 290 617 l 290 333 q 353 326 322 328 q 410 324 383 324 q 551 360 506 324 q 596 474 596 396 q 551 586 596 556 q 414 617 507 617 l 290 617 m 290 771 l 414 771 q 615 742 535 771 q 736 648 696 713 q 776 474 776 583 q 734 294 776 361 q 616 197 692 226 q 438 167 540 167 q 367 170 403 167 q 290 179 331 174 l 290 0 l 108 0 l 108 924 l 290 924 l 290 771 z "},"a":{"ha":699,"x_min":39,"x_max":621,"o":"m 451 122 l 451 300 q 394 306 422 304 q 340 308 367 308 q 240 285 276 308 q 204 208 204 263 q 239 131 204 154 q 333 108 274 108 q 395 113 365 108 q 451 122 425 117 m 104 558 l 94 693 q 200 712 140 704 q 317 719 260 719 q 476 697 407 719 q 583 626 544 675 q 621 496 621 576 l 621 26 q 534 5 583 15 q 431 -12 485 -6 q 326 -18 378 -18 q 176 3 242 -18 q 75 76 111 25 q 39 217 39 128 q 76 342 39 296 q 174 408 113 389 q 307 428 235 428 q 379 425 343 428 q 451 415 415 422 l 451 481 q 415 561 451 539 q 306 583 379 583 q 203 576 257 583 q 104 558 149 568 z "},"b":{"ha":781,"x_min":86,"x_max":728,"o":"m 86 1014 l 257 1014 l 257 703 q 335 715 292 710 q 413 719 378 719 q 576 683 506 719 q 688 565 647 647 q 728 343 728 482 q 686 135 728 215 q 569 19 644 56 q 392 -18 494 -18 q 234 -3 315 -18 q 86 35 153 13 l 86 1014 m 257 143 q 322 132 286 136 q 389 128 357 128 q 481 148 444 128 q 537 215 518 168 q 556 346 556 263 q 517 523 556 471 q 393 575 478 575 q 327 570 358 575 q 257 557 296 565 l 257 143 z "},"c":{"ha":619,"x_min":51,"x_max":582,"o":"m 576 703 l 558 558 q 490 570 524 565 q 421 575 457 575 q 313 555 357 575 q 247 485 269 535 q 224 350 224 436 q 271 181 224 233 q 426 128 318 128 q 497 134 463 128 q 567 150 532 140 l 582 7 q 495 -11 544 -4 q 401 -18 446 -18 q 216 21 294 -18 q 94 142 138 60 q 51 353 51 224 q 97 567 51 488 q 224 683 142 647 q 414 719 306 719 q 499 715 454 719 q 576 703 543 710 z "},"d":{"ha":781,"x_min":53,"x_max":696,"o":"m 696 1014 l 696 35 q 548 -3 629 13 q 389 -18 467 -18 q 212 19 288 -18 q 94 135 136 56 q 53 343 53 215 q 93 565 53 482 q 205 683 133 647 q 369 719 276 719 q 447 715 404 719 q 525 703 490 710 l 525 1014 l 696 1014 m 525 143 l 525 557 q 454 570 486 565 q 389 575 422 575 q 265 523 304 575 q 225 346 225 471 q 244 215 225 263 q 301 148 264 168 q 392 128 338 128 q 460 132 425 128 q 525 143 494 136 z "},"e":{"ha":733,"x_min":51,"x_max":678,"o":"m 678 296 l 226 296 q 278 171 229 208 q 440 133 328 133 q 510 137 472 133 q 585 147 549 140 q 647 160 621 153 l 664 14 q 547 -9 613 0 q 414 -18 482 -18 q 224 19 306 -18 q 97 136 142 56 q 51 350 51 217 q 91 565 51 483 q 205 683 131 646 q 381 719 279 719 q 551 680 486 719 q 647 569 617 640 q 678 404 678 499 l 678 296 m 226 418 l 514 418 q 483 540 514 497 q 374 583 453 583 q 263 539 296 583 q 226 418 229 494 z "},"f":{"ha":533,"x_min":25,"x_max":543,"o":"m 25 703 l 132 703 l 132 775 q 166 920 132 864 q 263 1003 200 976 q 408 1029 325 1029 q 478 1026 440 1029 q 543 1017 515 1022 l 528 875 q 478 881 504 879 q 429 883 453 883 q 342 861 375 883 q 308 775 308 839 l 308 703 l 508 703 l 508 560 l 308 560 l 308 0 l 132 0 l 132 560 l 25 560 l 25 703 z "},"g":{"ha":781,"x_min":53,"x_max":694,"o":"m 524 -12 l 524 13 q 447 0 489 6 q 368 -6 404 -6 q 203 30 275 -6 q 92 146 132 65 q 53 360 53 226 q 94 568 53 489 q 211 683 136 647 q 388 719 286 719 q 547 706 465 719 q 694 668 628 692 l 694 14 q 651 -163 694 -100 q 532 -252 608 -226 q 354 -278 456 -278 q 224 -267 289 -278 q 117 -243 158 -256 l 133 -101 q 197 -117 161 -110 q 272 -128 232 -124 q 347 -133 311 -133 q 479 -105 435 -133 q 524 -12 524 -76 m 524 560 q 458 571 493 567 q 392 575 424 575 q 300 555 338 575 q 244 488 263 535 q 225 357 225 440 q 264 189 225 239 q 388 139 303 139 q 453 144 421 139 q 524 158 485 149 l 524 560 z "},"h":{"ha":779,"x_min":86,"x_max":701,"o":"m 258 0 l 86 0 l 86 1014 l 258 1014 l 258 704 q 331 715 294 711 q 403 719 367 719 q 560 697 493 719 q 664 620 626 674 q 701 474 701 567 l 701 0 l 529 0 l 529 451 q 511 526 529 500 q 462 564 493 553 q 389 575 431 575 q 322 571 358 575 q 258 560 285 567 l 258 0 z "},"i":{"ha":346,"x_min":69,"x_max":278,"o":"m 86 703 l 258 703 l 258 0 l 86 0 l 86 703 m 278 914 q 249 841 278 865 q 172 817 221 817 q 98 841 126 817 q 69 914 69 865 q 98 986 69 963 q 172 1010 126 1010 q 249 986 221 1010 q 278 914 278 963 z "},"j":{"ha":347,"x_min":-68,"x_max":279,"o":"m 279 914 q 251 841 279 865 q 174 817 222 817 q 99 841 126 817 q 71 914 71 865 q 99 985 71 961 q 174 1010 128 1010 q 251 985 222 1010 q 279 914 279 961 m 88 703 l 260 703 l 260 104 q 247 -12 260 39 q 204 -108 233 -64 q 128 -192 175 -151 q 15 -276 82 -233 l -68 -149 q 8 -83 -22 -111 q 56 -30 38 -56 q 81 28 74 -4 q 88 103 88 60 l 88 703 z "},"k":{"ha":747,"x_min":86,"x_max":718,"o":"m 86 1014 l 258 1014 l 258 394 l 522 703 l 704 703 l 463 417 q 587 352 536 403 q 660 211 638 301 l 718 0 l 535 0 l 483 193 q 430 273 468 251 q 344 300 392 294 l 258 224 l 258 0 l 86 0 l 86 1014 z "},"l":{"ha":346,"x_min":86,"x_max":258,"o":"m 86 1014 l 258 1014 l 258 0 l 86 0 l 86 1014 z "},"m":{"ha":1169,"x_min":86,"x_max":1092,"o":"m 258 0 l 86 0 l 86 668 q 219 703 139 686 q 386 719 300 719 q 538 697 472 719 q 639 620 603 674 q 675 474 675 567 l 675 0 l 503 0 l 503 451 q 488 526 503 500 q 445 564 472 553 q 382 575 418 575 q 318 571 354 575 q 258 560 282 567 l 258 0 m 658 546 l 531 650 q 608 683 564 668 q 701 709 651 699 q 803 719 751 719 q 954 697 889 719 q 1056 620 1019 674 q 1092 474 1092 567 l 1092 0 l 919 0 l 919 451 q 903 526 919 500 q 860 564 888 553 q 796 575 832 575 q 722 568 758 575 q 658 546 685 561 z "},"n":{"ha":779,"x_min":86,"x_max":701,"o":"m 258 0 l 86 0 l 86 668 q 222 703 140 686 q 393 719 304 719 q 555 697 486 719 q 663 620 624 674 q 701 474 701 567 l 701 0 l 529 0 l 529 451 q 511 526 529 500 q 462 564 493 553 q 389 575 431 575 q 322 571 358 575 q 258 560 285 567 l 258 0 z "},"o":{"ha":782,"x_min":53,"x_max":729,"o":"m 729 350 q 643 71 729 160 q 392 -18 557 -18 q 139 71 225 -18 q 53 350 53 160 q 139 631 53 543 q 392 719 225 719 q 643 631 557 719 q 729 350 729 543 m 557 350 q 518 523 557 471 q 392 575 479 575 q 265 523 304 575 q 225 350 225 471 q 265 180 225 232 q 392 128 304 128 q 518 180 479 128 q 557 350 557 232 z "},"p":{"ha":782,"x_min":86,"x_max":729,"o":"m 86 -261 l 86 668 q 235 706 154 692 q 393 719 317 719 q 571 683 496 719 q 688 568 646 647 q 729 360 729 489 q 689 138 729 221 q 578 19 649 56 q 413 -18 507 -18 q 335 -12 378 -18 q 258 1 293 -6 l 258 -261 l 86 -261 m 258 560 l 258 146 q 328 133 297 138 q 393 128 360 128 q 517 180 478 128 q 557 357 557 232 q 538 488 557 440 q 483 555 519 535 q 390 575 446 575 q 322 571 357 575 q 258 560 288 567 z "},"q":{"ha":782,"x_min":53,"x_max":696,"o":"m 696 -261 l 525 -261 l 525 1 q 447 -12 490 -6 q 369 -18 404 -18 q 205 19 276 -18 q 93 138 133 56 q 53 360 53 221 q 94 568 53 489 q 212 683 136 647 q 389 719 288 719 q 548 706 467 719 q 696 668 629 692 l 696 -261 m 525 560 q 460 571 494 567 q 392 575 425 575 q 301 555 338 575 q 244 488 264 535 q 225 357 225 440 q 265 180 225 232 q 389 128 304 128 q 454 133 422 128 q 525 146 486 138 l 525 560 z "},"r":{"ha":496,"x_min":86,"x_max":472,"o":"m 472 719 l 472 575 q 360 571 414 575 q 258 558 307 567 l 258 0 l 86 0 l 86 667 q 280 708 181 697 q 472 719 379 719 z "},"s":{"ha":622,"x_min":47,"x_max":582,"o":"m 549 701 l 539 560 q 453 574 497 569 q 358 579 408 579 q 259 567 290 579 q 228 526 228 556 q 253 481 228 500 q 319 444 279 461 q 405 407 360 426 q 490 360 450 388 q 556 293 531 332 q 582 199 582 254 q 545 74 582 122 q 444 4 508 26 q 296 -18 379 -18 q 154 -6 218 -18 q 47 19 90 6 l 64 158 q 165 137 107 147 q 275 126 222 126 q 369 142 343 126 q 396 189 396 157 q 371 238 396 218 q 306 276 346 258 q 223 313 267 293 q 140 360 179 333 q 75 426 100 388 q 50 522 50 465 q 86 642 50 599 q 190 702 122 685 q 356 719 258 719 q 463 714 413 719 q 549 701 513 708 z "},"t":{"ha":546,"x_min":25,"x_max":504,"o":"m 164 860 l 304 860 l 304 703 l 497 703 l 497 560 l 304 560 l 304 203 q 331 149 304 164 q 393 135 357 135 q 449 139 421 135 q 499 149 478 143 l 504 6 q 431 -12 469 -6 q 354 -18 392 -18 q 192 33 253 -18 q 132 190 132 85 l 132 560 l 25 560 l 25 703 l 132 703 l 164 860 z "},"u":{"ha":764,"x_min":76,"x_max":679,"o":"m 507 703 l 679 703 l 679 35 q 547 -1 626 17 q 382 -18 467 -18 q 222 5 290 -18 q 115 82 153 28 q 76 228 76 136 l 76 703 l 249 703 l 249 251 q 267 176 249 203 q 316 138 285 149 q 386 126 347 126 q 449 132 414 126 q 507 143 483 138 l 507 703 z "},"v":{"ha":740,"x_min":18,"x_max":713,"o":"m 203 703 l 376 161 q 440 315 408 233 q 499 492 471 396 q 546 703 526 588 l 713 703 q 619 350 685 526 q 465 0 553 174 l 265 0 l 18 703 l 203 703 z "},"w":{"ha":1093,"x_min":25,"x_max":1054,"o":"m 638 703 l 792 182 q 853 415 829 289 q 890 703 878 540 l 1054 703 q 1024 467 1044 583 q 971 235 1004 351 q 889 0 938 119 l 699 0 l 550 515 l 400 0 l 194 0 l 25 703 l 214 703 l 318 185 l 464 703 l 638 703 z "},"x":{"ha":721,"x_min":22,"x_max":699,"o":"m 233 703 l 386 465 l 463 374 l 699 0 l 499 0 l 329 264 l 263 339 l 33 703 l 233 703 m 472 360 l 371 463 l 519 703 l 692 703 l 472 360 m 253 365 l 353 263 l 194 0 l 22 0 l 253 365 z "},"y":{"ha":764,"x_min":76,"x_max":678,"o":"m 507 -12 l 507 8 q 444 0 476 3 q 381 -3 413 -3 q 222 20 290 -3 q 115 96 153 43 q 76 242 76 149 l 76 703 l 249 703 l 249 265 q 266 191 249 218 q 315 153 283 164 q 385 142 346 142 q 448 147 414 142 q 506 157 482 151 l 506 703 l 678 703 l 678 14 q 635 -163 678 -100 q 516 -252 592 -226 q 339 -278 440 -278 q 250 -272 294 -278 q 167 -259 206 -267 q 101 -243 129 -251 l 117 -110 q 180 -125 144 -118 q 255 -137 215 -132 q 332 -142 294 -142 q 463 -112 418 -142 q 507 -12 507 -82 z "},"z":{"ha":667,"x_min":40,"x_max":626,"o":"m 54 703 l 613 703 l 613 575 l 267 142 l 626 142 l 626 0 l 40 0 l 40 128 l 393 560 l 54 560 l 54 703 z "},"æ":{"ha":1118,"x_min":39,"x_max":1064,"o":"m 103 557 l 94 692 q 200 710 140 703 q 317 718 260 718 q 456 699 396 718 q 551 636 515 679 q 643 699 588 679 q 768 718 699 718 q 938 679 874 718 q 1033 569 1003 640 q 1064 404 1064 499 l 1064 296 l 614 296 q 637 202 617 238 q 703 151 657 167 q 826 135 749 135 q 896 138 858 135 q 970 148 933 142 q 1033 161 1007 154 l 1049 15 q 932 -8 997 1 q 799 -17 867 -17 q 684 -3 736 -17 q 592 39 632 11 q 467 1 536 19 q 326 -17 397 -17 q 176 5 240 -17 q 75 78 111 26 q 39 217 39 129 q 75 342 39 296 q 172 408 111 389 q 307 428 233 428 q 378 425 343 428 q 449 415 414 422 l 449 481 q 414 560 449 538 q 306 582 379 582 q 202 574 257 582 q 103 557 147 567 m 615 418 l 899 418 q 869 539 899 496 q 760 582 839 582 q 649 538 683 582 q 615 418 615 493 m 481 133 q 461 209 469 161 q 449 300 453 257 q 393 306 421 304 q 339 308 365 308 q 240 285 276 308 q 204 208 204 263 q 239 133 204 156 q 333 110 274 110 q 413 117 376 110 q 481 133 449 124 z "},"œ":{"ha":1219,"x_min":53,"x_max":1165,"o":"m 1165 296 l 724 296 q 775 172 726 208 q 933 135 824 135 q 1001 138 964 135 q 1073 148 1038 142 q 1135 161 1108 154 l 1150 15 q 1036 -8 1100 1 q 906 -17 972 -17 q 725 19 803 -17 q 604 137 647 56 q 561 350 561 218 q 599 564 561 483 q 706 681 636 644 q 874 718 776 718 q 1042 679 978 718 q 1135 569 1106 640 q 1165 404 1165 499 l 1165 296 m 725 418 l 1000 418 q 971 539 1000 496 q 867 582 942 582 q 760 538 792 582 q 725 418 728 494 m 706 350 q 624 72 706 161 q 386 -17 543 -17 q 138 72 222 -17 q 53 350 53 161 q 138 631 53 543 q 386 719 222 719 q 624 631 543 719 q 706 350 706 543 m 546 350 q 508 523 546 471 q 386 575 469 575 q 263 523 301 575 q 225 350 225 471 q 263 180 225 232 q 386 128 301 128 q 508 180 469 128 q 546 350 546 232 z "},"ł":{"ha":438,"x_min":32,"x_max":407,"o":"m 133 1014 l 306 1014 l 306 613 l 407 653 l 407 500 l 306 458 l 306 0 l 133 0 l 133 388 l 32 349 l 32 503 l 133 542 l 133 1014 z "},"ø":{"ha":783,"x_min":54,"x_max":729,"o":"m 729 350 q 643 72 729 161 q 392 -17 557 -17 q 140 72 226 -17 q 54 350 54 161 q 140 631 54 543 q 392 719 226 719 q 643 631 557 719 q 729 350 729 543 m 561 350 q 522 523 561 471 q 392 575 482 575 q 262 523 303 575 q 221 350 221 471 q 262 180 221 232 q 392 128 303 128 q 522 180 482 128 q 561 350 561 232 m 171 -115 l 56 -49 l 613 817 l 726 750 l 171 -115 z "},"ð":{"ha":765,"x_min":51,"x_max":704,"o":"m 531 656 q 505 721 522 683 q 465 794 488 758 l 253 740 l 253 863 l 401 899 q 354 957 379 928 q 306 1014 329 986 l 479 1014 q 508 976 493 996 q 536 936 522 956 l 703 982 l 703 860 l 600 832 q 668 672 646 750 q 697 519 690 593 q 704 376 704 446 q 667 169 704 257 q 558 32 631 81 q 376 -17 485 -17 q 136 74 221 -17 q 51 344 51 164 q 129 615 51 525 q 354 706 207 706 q 460 692 414 706 q 531 656 506 679 m 525 344 q 508 477 525 429 q 458 545 490 525 q 376 565 425 565 q 294 545 328 565 q 244 477 261 525 q 226 344 226 429 q 244 214 226 261 q 294 147 261 167 q 376 128 328 128 q 458 147 425 128 q 508 214 490 167 q 525 344 525 261 z "},"þ":{"ha":779,"x_min":86,"x_max":728,"o":"m 86 -261 l 86 1014 l 257 1014 l 257 708 q 327 717 293 715 q 393 719 361 719 q 569 683 494 719 q 686 568 644 647 q 728 360 728 489 q 705 183 728 256 q 640 67 682 111 q 541 2 599 22 q 413 -18 483 -18 q 335 -11 378 -18 q 257 3 292 -4 l 257 -261 l 86 -261 m 257 560 l 257 147 q 328 133 297 139 q 393 128 360 128 q 485 151 450 128 q 538 224 521 174 q 556 357 556 274 q 537 488 556 440 q 481 555 518 535 q 389 575 444 575 q 322 571 357 575 q 257 560 288 567 z "},"ß":{"ha":778,"x_min":90,"x_max":743,"o":"m 485 776 q 457 862 485 838 q 376 886 429 886 q 292 861 322 886 q 263 775 263 836 l 263 0 l 90 0 l 90 775 q 165 969 90 906 q 375 1032 240 1032 q 585 972 508 1032 q 661 788 661 913 q 649 712 661 744 q 617 655 636 679 q 578 610 597 631 q 547 569 560 589 q 535 524 535 549 q 556 468 535 493 q 608 417 576 443 q 670 361 639 392 q 722 290 701 331 q 743 193 743 249 q 684 35 743 88 q 511 -18 625 -17 q 423 -12 468 -18 q 346 -1 378 -7 l 353 133 q 413 126 381 131 q 472 122 446 122 q 550 135 524 122 q 576 185 576 147 q 556 251 576 224 q 504 301 535 278 q 443 352 474 325 q 392 417 413 379 q 371 510 371 454 q 383 576 371 549 q 411 626 394 604 q 444 670 428 649 q 473 717 461 692 q 485 776 485 742 z "},"ı":{"ha":344,"x_min":86,"x_max":258,"o":"m 86 703 l 258 703 l 258 0 l 86 0 l 86 703 z "},"ȷ":{"ha":343,"x_min":-68,"x_max":260,"o":"m 88 703 l 260 703 l 260 104 q 247 -12 260 39 q 204 -108 233 -64 q 128 -192 175 -151 q 15 -276 82 -233 l -68 -149 q 8 -83 -22 -111 q 56 -30 38 -56 q 81 28 74 -4 q 88 103 88 60 l 88 703 z "},"Á":{"ha":919,"x_min":97,"x_max":822,"o":"m 276 308 l 276 0 l 97 0 l 97 600 q 132 783 97 707 q 246 899 167 858 q 458 940 325 940 q 672 899 592 940 q 787 783 751 858 q 822 600 822 707 l 822 0 l 640 0 l 640 308 l 276 308 m 276 461 l 640 461 l 640 613 q 596 740 640 697 q 458 783 551 783 q 321 740 365 783 q 276 613 276 697 l 276 461 m 460 1233 l 646 1233 l 474 1010 l 342 1010 l 460 1233 z "},"Â":{"ha":919,"x_min":97,"x_max":822,"o":"m 276 308 l 276 0 l 97 0 l 97 600 q 132 783 97 707 q 246 899 167 858 q 458 940 325 940 q 672 899 592 940 q 787 783 751 858 q 822 600 822 707 l 822 0 l 640 0 l 640 308 l 276 308 m 276 461 l 640 461 l 640 613 q 596 740 640 697 q 458 783 551 783 q 321 740 365 783 q 276 613 276 697 l 276 461 m 376 1233 l 525 1233 l 674 1010 l 525 1010 l 451 1138 l 376 1010 l 228 1010 l 376 1233 z "},"Ä":{"ha":919,"x_min":97,"x_max":822,"o":"m 276 308 l 276 0 l 97 0 l 97 600 q 132 783 97 707 q 246 899 167 858 q 458 940 325 940 q 672 899 592 940 q 787 783 751 858 q 822 600 822 707 l 822 0 l 640 0 l 640 308 l 276 308 m 276 461 l 640 461 l 640 613 q 596 740 640 697 q 458 783 551 783 q 321 740 365 783 q 276 613 276 697 l 276 461 m 415 1128 q 390 1058 415 1082 q 325 1035 365 1035 q 262 1058 286 1035 q 238 1128 238 1082 q 262 1197 238 1174 q 325 1221 286 1221 q 390 1197 365 1221 q 415 1128 415 1174 m 665 1128 q 640 1058 665 1082 q 575 1035 615 1035 q 512 1058 536 1035 q 488 1128 488 1082 q 512 1197 488 1174 q 575 1221 536 1221 q 640 1197 615 1221 q 665 1128 665 1174 z "},"À":{"ha":919,"x_min":97,"x_max":822,"o":"m 276 308 l 276 0 l 97 0 l 97 600 q 132 783 97 707 q 246 899 167 858 q 458 940 325 940 q 672 899 592 940 q 787 783 751 858 q 822 600 822 707 l 822 0 l 640 0 l 640 308 l 276 308 m 276 461 l 640 461 l 640 613 q 596 740 640 697 q 458 783 551 783 q 321 740 365 783 q 276 613 276 697 l 276 461 m 233 1233 l 421 1233 l 538 1010 l 407 1010 l 233 1233 z "},"Å":{"ha":919,"x_min":97,"x_max":822,"o":"m 276 308 l 276 0 l 97 0 l 97 600 q 132 783 97 707 q 246 899 167 858 q 458 940 325 940 q 672 899 592 940 q 787 783 751 858 q 822 600 822 707 l 822 0 l 640 0 l 640 308 l 276 308 m 276 461 l 640 461 l 640 613 q 596 740 640 697 q 458 783 551 783 q 321 740 365 783 q 276 613 276 697 l 276 461 m 451 1178 q 409 1166 425 1178 q 393 1126 393 1154 q 409 1088 393 1100 q 451 1075 425 1075 q 493 1088 478 1075 q 508 1126 508 1100 q 493 1166 508 1154 q 451 1178 478 1178 m 451 1261 q 569 1228 524 1261 q 615 1126 615 1196 q 569 1024 615 1057 q 451 992 524 992 q 333 1024 379 992 q 288 1126 288 1057 q 333 1228 288 1196 q 451 1261 379 1261 z "},"Ã":{"ha":919,"x_min":97,"x_max":822,"o":"m 276 308 l 276 0 l 97 0 l 97 600 q 132 783 97 707 q 246 899 167 858 q 458 940 325 940 q 672 899 592 940 q 787 783 751 858 q 822 600 822 707 l 822 0 l 640 0 l 640 308 l 276 308 m 276 461 l 640 461 l 640 613 q 596 740 640 697 q 458 783 551 783 q 321 740 365 783 q 276 613 276 697 l 276 461 m 322 1029 l 208 1075 q 256 1169 222 1131 q 351 1208 290 1208 q 417 1194 386 1208 q 475 1165 449 1179 q 521 1150 501 1150 q 559 1168 549 1150 q 578 1211 569 1186 l 693 1168 q 638 1068 672 1107 q 546 1029 603 1029 q 483 1044 514 1029 q 426 1075 453 1060 q 381 1090 400 1090 q 341 1071 353 1090 q 322 1029 329 1051 z "},"Ă":{"ha":919,"x_min":97,"x_max":822,"o":"m 276 308 l 276 0 l 97 0 l 97 600 q 132 783 97 707 q 246 899 167 858 q 458 940 325 940 q 672 899 592 940 q 787 783 751 858 q 822 600 822 707 l 822 0 l 640 0 l 640 308 l 276 308 m 276 461 l 640 461 l 640 613 q 596 740 640 697 q 458 783 551 783 q 321 740 365 783 q 276 613 276 697 l 276 461 m 232 1193 l 368 1193 q 391 1129 369 1149 q 451 1110 413 1110 q 512 1129 490 1110 q 535 1193 533 1149 l 669 1193 q 607 1041 665 1085 q 451 997 549 997 q 296 1041 354 997 q 232 1193 238 1085 z "},"Ā":{"ha":919,"x_min":97,"x_max":822,"o":"m 276 308 l 276 0 l 97 0 l 97 600 q 132 783 97 707 q 246 899 167 858 q 458 940 325 940 q 672 899 592 940 q 787 783 751 858 q 822 600 822 707 l 822 0 l 640 0 l 640 308 l 276 308 m 276 461 l 640 461 l 640 613 q 596 740 640 697 q 458 783 551 783 q 321 740 365 783 q 276 613 276 697 l 276 461 m 254 1164 l 649 1164 l 649 1042 l 254 1042 l 254 1164 z "},"Ą":{"ha":919,"x_min":97,"x_max":836,"o":"m 819 -146 l 836 -243 q 788 -260 814 -256 q 732 -265 763 -265 q 634 -239 674 -265 q 594 -157 594 -212 q 612 -92 594 -122 q 655 -39 629 -62 q 703 0 681 -15 l 822 0 q 781 -35 804 -15 q 742 -76 758 -56 q 726 -118 726 -97 q 737 -149 726 -139 q 765 -158 747 -158 q 796 -155 782 -158 q 819 -146 810 -151 m 276 308 l 276 0 l 97 0 l 97 600 q 132 783 97 707 q 246 899 167 858 q 458 940 325 940 q 672 899 592 940 q 787 783 751 858 q 822 600 822 707 l 822 0 l 640 0 l 640 308 l 276 308 m 276 461 l 640 461 l 640 613 q 596 740 640 697 q 458 783 551 783 q 321 740 365 783 q 276 613 276 697 l 276 461 z "},"Ǻ":{"ha":919,"x_min":97,"x_max":822,"o":"m 626 1158 q 581 1063 626 1092 q 463 1033 536 1033 q 343 1063 388 1033 q 299 1158 299 1092 q 325 1239 299 1210 q 399 1278 351 1268 l 479 1407 l 642 1407 l 526 1276 q 600 1238 574 1267 q 626 1158 626 1208 m 519 1158 q 505 1196 519 1185 q 463 1207 490 1207 q 419 1196 433 1207 q 404 1158 404 1185 q 419 1121 404 1132 q 463 1110 433 1110 q 505 1121 490 1110 q 519 1158 519 1132 m 276 308 l 276 0 l 97 0 l 97 600 q 132 783 97 707 q 246 899 167 858 q 458 940 325 940 q 672 899 592 940 q 787 783 751 858 q 822 600 822 707 l 822 0 l 640 0 l 640 308 l 276 308 m 276 461 l 640 461 l 640 613 q 596 740 640 697 q 458 783 551 783 q 321 740 365 783 q 276 613 276 697 l 276 461 z "},"Ç":{"ha":790,"x_min":71,"x_max":738,"o":"m 733 914 l 714 756 q 611 775 668 768 q 500 782 554 782 q 322 707 383 782 q 260 464 260 632 q 288 272 260 342 q 371 172 315 201 q 511 143 426 143 q 620 153 565 143 q 724 172 675 163 l 738 17 q 630 -8 690 3 q 501 -18 569 -18 q 267 29 364 -18 q 121 182 171 76 q 71 464 71 288 q 121 740 71 635 q 268 892 171 844 q 507 940 365 940 q 630 932 569 940 q 733 914 690 924 m 403 -50 l 521 -50 q 554 -102 540 -74 q 568 -161 568 -131 q 535 -247 568 -215 q 424 -278 501 -278 q 360 -272 393 -278 q 299 -257 326 -267 l 317 -158 q 352 -166 331 -162 q 389 -169 374 -169 q 425 -160 415 -169 q 435 -131 435 -151 q 425 -90 435 -111 q 403 -50 415 -68 z "},"Ć":{"ha":790,"x_min":71,"x_max":738,"o":"m 733 914 l 714 756 q 611 775 668 768 q 500 782 554 782 q 322 707 383 782 q 260 464 260 632 q 288 272 260 342 q 371 172 315 201 q 511 143 426 143 q 620 153 565 143 q 724 172 675 163 l 738 17 q 630 -8 690 3 q 501 -18 569 -18 q 267 29 364 -18 q 121 182 171 76 q 71 464 71 288 q 121 740 71 635 q 268 892 171 844 q 507 940 365 940 q 630 932 569 940 q 733 914 690 924 m 489 1233 l 675 1233 l 503 1010 l 371 1010 l 489 1233 z "},"Č":{"ha":790,"x_min":71,"x_max":738,"o":"m 733 914 l 714 756 q 611 775 668 768 q 500 782 554 782 q 322 707 383 782 q 260 464 260 632 q 288 272 260 342 q 371 172 315 201 q 511 143 426 143 q 620 153 565 143 q 724 172 675 163 l 738 17 q 630 -8 690 3 q 501 -18 569 -18 q 267 29 364 -18 q 121 182 171 76 q 71 464 71 288 q 121 740 71 635 q 268 892 171 844 q 507 940 365 940 q 630 932 569 940 q 733 914 690 924 m 388 1010 l 239 1233 l 388 1233 l 463 1106 l 536 1233 l 685 1233 l 536 1010 l 388 1010 z "},"Ĉ":{"ha":790,"x_min":71,"x_max":738,"o":"m 733 914 l 714 756 q 611 775 668 768 q 500 782 554 782 q 322 707 383 782 q 260 464 260 632 q 288 272 260 342 q 371 172 315 201 q 511 143 426 143 q 620 153 565 143 q 724 172 675 163 l 738 17 q 630 -8 690 3 q 501 -18 569 -18 q 267 29 364 -18 q 121 182 171 76 q 71 464 71 288 q 121 740 71 635 q 268 892 171 844 q 507 940 365 940 q 630 932 569 940 q 733 914 690 924 m 404 1233 l 553 1233 l 701 1010 l 553 1010 l 479 1138 l 404 1010 l 256 1010 l 404 1233 z "},"Ċ":{"ha":790,"x_min":71,"x_max":738,"o":"m 733 914 l 714 756 q 611 775 668 768 q 500 782 554 782 q 322 707 383 782 q 260 464 260 632 q 288 272 260 342 q 371 172 315 201 q 511 143 426 143 q 620 153 565 143 q 724 172 675 163 l 738 17 q 630 -8 690 3 q 501 -18 569 -18 q 267 29 364 -18 q 121 182 171 76 q 71 464 71 288 q 121 740 71 635 q 268 892 171 844 q 507 940 365 940 q 630 932 569 940 q 733 914 690 924 m 585 1126 q 556 1053 585 1078 q 481 1029 528 1029 q 403 1053 432 1029 q 375 1126 375 1078 q 403 1198 375 1174 q 479 1222 432 1222 q 556 1198 528 1222 q 585 1126 585 1174 z "},"Ď":{"ha":938,"x_min":108,"x_max":868,"o":"m 108 924 l 446 924 q 758 815 649 924 q 868 472 868 706 q 847 274 868 364 q 774 119 825 185 q 633 17 722 53 q 410 -18 544 -18 q 268 -10 343 -18 q 108 17 193 -1 l 108 924 m 290 769 l 290 151 q 353 143 322 146 q 417 140 383 140 q 574 178 517 140 q 657 288 632 215 q 682 469 682 361 q 622 701 682 632 q 446 769 561 769 l 290 769 m 340 1010 l 192 1233 l 340 1233 l 415 1106 l 489 1233 l 638 1233 l 489 1010 l 340 1010 z "},"Đ":{"ha":992,"x_min":46,"x_max":922,"o":"m 46 394 l 46 549 l 558 549 l 558 394 l 46 394 m 163 924 l 500 924 q 813 815 703 924 q 922 472 922 706 q 901 274 922 364 q 828 119 879 185 q 688 17 776 53 q 464 -18 599 -18 q 322 -10 397 -18 q 163 17 247 -1 l 163 924 m 344 769 l 344 151 q 407 143 376 146 q 471 140 438 140 q 628 178 571 140 q 711 288 686 215 q 736 469 736 361 q 676 701 736 632 q 500 769 615 769 l 344 769 z "},"É":{"ha":751,"x_min":101,"x_max":692,"o":"m 101 924 l 674 924 l 674 769 l 282 769 l 282 549 l 642 549 l 642 394 l 282 394 l 282 256 q 317 175 282 196 q 407 154 351 154 l 692 154 l 692 0 l 399 0 q 238 22 304 0 q 136 97 171 44 q 101 239 101 149 l 101 924 m 418 1233 l 604 1233 l 432 1010 l 300 1010 l 418 1233 z "},"Ê":{"ha":751,"x_min":101,"x_max":692,"o":"m 101 924 l 674 924 l 674 769 l 282 769 l 282 549 l 642 549 l 642 394 l 282 394 l 282 256 q 317 175 282 196 q 407 154 351 154 l 692 154 l 692 0 l 399 0 q 238 22 304 0 q 136 97 171 44 q 101 239 101 149 l 101 924 m 333 1233 l 482 1233 l 631 1010 l 482 1010 l 408 1138 l 333 1010 l 185 1010 l 333 1233 z "},"Ë":{"ha":751,"x_min":101,"x_max":692,"o":"m 101 924 l 674 924 l 674 769 l 282 769 l 282 549 l 642 549 l 642 394 l 282 394 l 282 256 q 317 175 282 196 q 407 154 351 154 l 692 154 l 692 0 l 399 0 q 238 22 304 0 q 136 97 171 44 q 101 239 101 149 l 101 924 m 372 1128 q 347 1058 372 1082 q 282 1035 322 1035 q 219 1058 243 1035 q 194 1128 194 1082 q 219 1197 194 1174 q 282 1221 243 1221 q 347 1197 322 1221 q 372 1128 372 1174 m 622 1128 q 597 1058 622 1082 q 532 1035 572 1035 q 469 1058 493 1035 q 444 1128 444 1082 q 469 1197 444 1174 q 532 1221 493 1221 q 597 1197 572 1221 q 622 1128 622 1174 z "},"È":{"ha":751,"x_min":101,"x_max":692,"o":"m 101 924 l 674 924 l 674 769 l 282 769 l 282 549 l 642 549 l 642 394 l 282 394 l 282 256 q 317 175 282 196 q 407 154 351 154 l 692 154 l 692 0 l 399 0 q 238 22 304 0 q 136 97 171 44 q 101 239 101 149 l 101 924 m 190 1233 l 378 1233 l 494 1010 l 364 1010 l 190 1233 z "},"Ĕ":{"ha":751,"x_min":101,"x_max":692,"o":"m 101 924 l 674 924 l 674 769 l 282 769 l 282 549 l 642 549 l 642 394 l 282 394 l 282 256 q 317 175 282 196 q 407 154 351 154 l 692 154 l 692 0 l 399 0 q 238 22 304 0 q 136 97 171 44 q 101 239 101 149 l 101 924 m 189 1193 l 325 1193 q 348 1129 326 1149 q 408 1110 369 1110 q 469 1129 447 1110 q 492 1193 490 1149 l 626 1193 q 564 1041 622 1085 q 408 997 506 997 q 253 1041 311 997 q 189 1193 194 1085 z "},"Ě":{"ha":751,"x_min":101,"x_max":692,"o":"m 101 924 l 674 924 l 674 769 l 282 769 l 282 549 l 642 549 l 642 394 l 282 394 l 282 256 q 317 175 282 196 q 407 154 351 154 l 692 154 l 692 0 l 399 0 q 238 22 304 0 q 136 97 171 44 q 101 239 101 149 l 101 924 m 333 1010 l 185 1233 l 333 1233 l 408 1106 l 482 1233 l 631 1233 l 482 1010 l 333 1010 z "},"Ė":{"ha":751,"x_min":101,"x_max":692,"o":"m 101 924 l 674 924 l 674 769 l 282 769 l 282 549 l 642 549 l 642 394 l 282 394 l 282 256 q 317 175 282 196 q 407 154 351 154 l 692 154 l 692 0 l 399 0 q 238 22 304 0 q 136 97 171 44 q 101 239 101 149 l 101 924 m 514 1126 q 485 1053 514 1078 q 410 1029 457 1029 q 333 1053 361 1029 q 304 1126 304 1078 q 333 1198 304 1174 q 408 1222 361 1222 q 485 1198 457 1222 q 514 1126 514 1174 z "},"Ē":{"ha":751,"x_min":101,"x_max":692,"o":"m 101 924 l 674 924 l 674 769 l 282 769 l 282 549 l 642 549 l 642 394 l 282 394 l 282 256 q 317 175 282 196 q 407 154 351 154 l 692 154 l 692 0 l 399 0 q 238 22 304 0 q 136 97 171 44 q 101 239 101 149 l 101 924 m 211 1164 l 606 1164 l 606 1042 l 211 1042 l 211 1164 z "},"Ę":{"ha":756,"x_min":101,"x_max":699,"o":"m 682 -146 l 699 -243 q 649 -259 676 -253 q 594 -265 622 -265 q 499 -237 539 -265 q 460 -151 460 -210 q 476 -89 460 -117 q 519 -39 493 -61 q 571 0 544 -17 l 692 0 q 647 -37 671 -18 q 608 -78 624 -57 q 592 -119 592 -99 q 603 -150 592 -142 q 633 -158 615 -158 q 656 -155 644 -158 q 682 -146 668 -151 m 101 924 l 674 924 l 674 769 l 282 769 l 282 549 l 642 549 l 642 394 l 282 394 l 282 256 q 317 175 282 196 q 407 154 351 154 l 692 154 l 692 0 l 399 0 q 238 22 304 0 q 136 97 171 44 q 101 239 101 149 l 101 924 z "},"Ǽ":{"ha":1292,"x_min":97,"x_max":1233,"o":"m 793 1233 l 979 1233 l 807 1010 l 675 1010 l 793 1233 m 653 924 l 1215 924 l 1215 769 l 824 769 l 824 538 l 1183 538 l 1183 383 l 824 383 l 824 256 q 858 175 824 196 q 947 154 892 154 l 1233 154 l 1233 0 l 939 0 q 778 22 844 0 q 676 97 711 44 q 642 239 642 150 l 642 383 l 276 383 l 276 0 l 97 0 l 97 600 q 131 782 97 706 q 241 899 165 858 q 440 940 317 940 q 569 919 514 940 q 653 858 625 899 l 653 924 m 276 535 l 640 535 l 640 613 q 597 739 640 694 q 458 783 553 783 q 320 739 364 783 q 276 613 276 694 l 276 535 z "},"Ğ":{"ha":904,"x_min":69,"x_max":819,"o":"m 804 913 l 792 754 q 677 774 743 765 q 546 783 611 783 q 385 751 449 783 q 290 649 321 718 q 260 465 260 579 q 288 269 260 340 q 371 169 317 199 q 501 140 425 140 q 575 144 536 140 q 647 154 614 149 l 647 369 l 471 369 l 471 518 l 819 518 l 819 33 q 732 9 782 21 q 625 -10 682 -3 q 511 -18 568 -18 q 324 6 406 -18 q 185 85 242 29 q 99 233 128 140 q 69 465 69 326 q 126 744 69 640 q 288 894 183 849 q 538 940 393 940 q 630 936 581 940 q 726 926 679 932 q 804 913 772 919 m 274 1193 l 410 1193 q 433 1129 411 1149 q 493 1110 454 1110 q 553 1129 532 1110 q 576 1193 575 1149 l 711 1193 q 649 1041 707 1085 q 493 997 590 997 q 338 1041 396 997 q 274 1193 279 1085 z "},"Ĝ":{"ha":904,"x_min":69,"x_max":819,"o":"m 804 913 l 792 754 q 677 774 743 765 q 546 783 611 783 q 385 751 449 783 q 290 649 321 718 q 260 465 260 579 q 288 269 260 340 q 371 169 317 199 q 501 140 425 140 q 575 144 536 140 q 647 154 614 149 l 647 369 l 471 369 l 471 518 l 819 518 l 819 33 q 732 9 782 21 q 625 -10 682 -3 q 511 -18 568 -18 q 324 6 406 -18 q 185 85 242 29 q 99 233 128 140 q 69 465 69 326 q 126 744 69 640 q 288 894 183 849 q 538 940 393 940 q 630 936 581 940 q 726 926 679 932 q 804 913 772 919 m 418 1233 l 567 1233 l 715 1010 l 567 1010 l 493 1138 l 418 1010 l 269 1010 l 418 1233 z "},"Ģ":{"ha":904,"x_min":69,"x_max":819,"o":"m 804 913 l 792 754 q 677 774 743 765 q 546 783 611 783 q 385 751 449 783 q 290 649 321 718 q 260 465 260 579 q 288 269 260 340 q 371 169 317 199 q 501 140 425 140 q 575 144 536 140 q 647 154 614 149 l 647 369 l 471 369 l 471 518 l 819 518 l 819 33 q 732 9 782 21 q 625 -10 682 -3 q 511 -18 568 -18 q 324 6 406 -18 q 185 85 242 29 q 99 233 128 140 q 69 465 69 326 q 126 744 69 640 q 288 894 183 849 q 538 940 393 940 q 630 936 581 940 q 726 926 679 932 q 804 913 772 919 m 408 -64 l 579 -64 l 442 -261 l 315 -261 l 408 -64 z "},"Ġ":{"ha":904,"x_min":69,"x_max":819,"o":"m 804 913 l 792 754 q 677 774 743 765 q 546 783 611 783 q 385 751 449 783 q 290 649 321 718 q 260 465 260 579 q 288 269 260 340 q 371 169 317 199 q 501 140 425 140 q 575 144 536 140 q 647 154 614 149 l 647 369 l 471 369 l 471 518 l 819 518 l 819 33 q 732 9 782 21 q 625 -10 682 -3 q 511 -18 568 -18 q 324 6 406 -18 q 185 85 242 29 q 99 233 128 140 q 69 465 69 326 q 126 744 69 640 q 288 894 183 849 q 538 940 393 940 q 630 936 581 940 q 726 926 679 932 q 804 913 772 919 m 599 1126 q 570 1053 599 1078 q 494 1029 542 1029 q 417 1053 446 1029 q 389 1126 389 1078 q 417 1198 389 1174 q 493 1222 446 1222 q 570 1198 542 1222 q 599 1126 599 1174 z "},"Ħ":{"ha":990,"x_min":-10,"x_max":1000,"o":"m 108 924 l 290 924 l 290 524 l 700 524 l 700 924 l 882 924 l 882 0 l 700 0 l 700 364 l 290 364 l 290 0 l 108 0 l 108 924 m -10 656 l -10 793 l 1000 793 l 1000 656 l -10 656 z "},"Ĥ":{"ha":990,"x_min":108,"x_max":882,"o":"m 108 924 l 290 924 l 290 554 l 700 554 l 700 924 l 882 924 l 882 0 l 700 0 l 700 394 l 290 394 l 290 0 l 108 0 l 108 924 m 410 1233 l 558 1233 l 707 1010 l 558 1010 l 485 1138 l 410 1010 l 261 1010 l 410 1233 z "},"Í":{"ha":399,"x_min":108,"x_max":419,"o":"m 108 924 l 290 924 l 290 0 l 108 0 l 108 924 m 233 1233 l 419 1233 l 247 1010 l 115 1010 l 233 1233 z "},"Î":{"ha":399,"x_min":-25,"x_max":421,"o":"m 108 924 l 290 924 l 290 0 l 108 0 l 108 924 m 124 1233 l 272 1233 l 421 1010 l 272 1010 l 199 1138 l 124 1010 l -25 1010 l 124 1233 z "},"Ï":{"ha":399,"x_min":-15,"x_max":413,"o":"m 108 924 l 290 924 l 290 0 l 108 0 l 108 924 m 163 1128 q 138 1058 163 1082 q 72 1035 113 1035 q 9 1058 33 1035 q -15 1128 -15 1082 q 9 1197 -15 1174 q 72 1221 33 1221 q 138 1197 113 1221 q 163 1128 163 1174 m 413 1128 q 388 1058 413 1082 q 322 1035 363 1035 q 259 1058 283 1035 q 235 1128 235 1082 q 259 1197 235 1174 q 322 1221 283 1221 q 388 1197 363 1221 q 413 1128 413 1174 z "},"Ì":{"ha":399,"x_min":-19,"x_max":290,"o":"m 108 924 l 290 924 l 290 0 l 108 0 l 108 924 m -19 1233 l 168 1233 l 285 1010 l 154 1010 l -19 1233 z "},"Ĭ":{"ha":399,"x_min":-21,"x_max":417,"o":"m 108 924 l 290 924 l 290 0 l 108 0 l 108 924 m -21 1193 l 115 1193 q 138 1129 117 1149 q 199 1110 160 1110 q 259 1129 238 1110 q 282 1193 281 1149 l 417 1193 q 354 1041 413 1085 q 199 997 296 997 q 43 1041 101 997 q -21 1193 -15 1085 z "},"İ":{"ha":399,"x_min":94,"x_max":304,"o":"m 108 924 l 290 924 l 290 0 l 108 0 l 108 924 m 304 1126 q 276 1053 304 1078 q 200 1029 247 1029 q 123 1053 151 1029 q 94 1126 94 1078 q 123 1198 94 1174 q 199 1222 151 1222 q 276 1198 247 1222 q 304 1126 304 1174 z "},"Ī":{"ha":399,"x_min":1,"x_max":396,"o":"m 108 924 l 290 924 l 290 0 l 108 0 l 108 924 m 1 1164 l 396 1164 l 396 1042 l 1 1042 l 1 1164 z "},"Į":{"ha":399,"x_min":82,"x_max":349,"o":"m 108 924 l 290 924 l 290 0 l 108 0 l 108 924 m 332 -143 l 349 -242 q 292 -258 322 -251 q 231 -265 263 -265 q 125 -237 168 -265 q 82 -149 82 -208 q 109 -61 82 -100 q 169 0 136 -22 l 289 0 q 238 -53 263 -22 q 214 -112 214 -83 q 228 -148 214 -137 q 265 -158 242 -158 q 298 -155 282 -158 q 332 -143 314 -151 z "},"Ĩ":{"ha":399,"x_min":-44,"x_max":440,"o":"m 108 924 l 290 924 l 290 0 l 108 0 l 108 924 m 69 1029 l -44 1075 q 3 1169 -31 1131 q 99 1208 38 1208 q 165 1194 133 1208 q 222 1165 196 1179 q 268 1150 249 1150 q 306 1168 296 1150 q 325 1211 317 1186 l 440 1168 q 385 1068 419 1107 q 293 1029 350 1029 q 231 1044 261 1029 q 174 1075 200 1060 q 128 1090 147 1090 q 88 1071 100 1090 q 69 1029 76 1051 z "},"Ĵ":{"ha":401,"x_min":-65,"x_max":421,"o":"m 111 924 l 293 924 l 293 125 q 269 -18 293 46 q 184 -142 244 -82 q 14 -275 124 -203 l -65 -140 q 41 -51 3 -90 q 95 31 79 -11 q 111 129 111 74 l 111 924 m 124 1269 l 272 1269 l 421 1046 l 272 1046 l 199 1174 l 124 1046 l -25 1046 l 124 1269 z "},"Ķ":{"ha":918,"x_min":108,"x_max":875,"o":"m 108 924 l 290 924 l 290 475 l 674 924 l 874 924 l 540 532 q 677 444 622 510 q 776 257 732 379 l 875 0 l 672 0 l 599 207 q 549 321 575 279 q 491 381 524 363 q 414 403 458 400 l 290 263 l 290 0 l 108 0 l 108 924 m 413 -64 l 583 -64 l 446 -261 l 319 -261 l 413 -64 z "},"Ĺ":{"ha":711,"x_min":108,"x_max":667,"o":"m 108 924 l 290 924 l 290 154 l 667 154 l 667 0 l 108 0 l 108 924 m 235 1235 l 421 1235 l 249 1011 l 117 1011 l 235 1235 z "},"Ľ":{"ha":711,"x_min":108,"x_max":667,"o":"m 108 924 l 290 924 l 290 154 l 667 154 l 667 0 l 108 0 l 108 924 m 456 924 l 639 924 l 526 628 l 393 628 l 456 924 z "},"Ļ":{"ha":711,"x_min":108,"x_max":667,"o":"m 108 924 l 290 924 l 290 154 l 667 154 l 667 0 l 108 0 l 108 924 m 310 -64 l 481 -64 l 343 -261 l 217 -261 l 310 -64 z "},"Ŀ":{"ha":711,"x_min":108,"x_max":667,"o":"m 108 924 l 290 924 l 290 154 l 667 154 l 667 0 l 108 0 l 108 924 m 656 481 q 627 409 656 433 q 551 385 599 385 q 476 409 504 385 q 449 481 449 433 q 477 552 449 528 q 551 576 506 576 q 627 552 599 576 q 656 481 656 528 z "},"Ñ":{"ha":999,"x_min":108,"x_max":890,"o":"m 108 924 l 251 924 l 711 421 l 711 924 l 890 924 l 890 0 l 711 0 l 711 174 l 285 640 l 285 0 l 108 0 l 108 924 m 358 1029 l 244 1075 q 292 1169 258 1131 q 388 1208 326 1208 q 453 1194 422 1208 q 511 1165 485 1179 q 557 1150 538 1150 q 595 1168 585 1150 q 614 1211 606 1186 l 729 1168 q 674 1068 708 1107 q 582 1029 639 1029 q 519 1044 550 1029 q 463 1075 489 1060 q 417 1090 436 1090 q 377 1071 389 1090 q 358 1029 365 1051 z "},"Ń":{"ha":999,"x_min":108,"x_max":890,"o":"m 108 924 l 251 924 l 711 421 l 711 924 l 890 924 l 890 0 l 711 0 l 711 174 l 285 640 l 285 0 l 108 0 l 108 924 m 497 1233 l 683 1233 l 511 1010 l 379 1010 l 497 1233 z "},"Ň":{"ha":999,"x_min":108,"x_max":890,"o":"m 108 924 l 251 924 l 711 421 l 711 924 l 890 924 l 890 0 l 711 0 l 711 174 l 285 640 l 285 0 l 108 0 l 108 924 m 413 1010 l 264 1233 l 413 1233 l 488 1106 l 561 1233 l 710 1233 l 561 1010 l 413 1010 z "},"Ņ":{"ha":999,"x_min":108,"x_max":890,"o":"m 108 924 l 251 924 l 711 421 l 711 924 l 890 924 l 890 0 l 711 0 l 711 174 l 285 640 l 285 0 l 108 0 l 108 924 m 436 -64 l 607 -64 l 469 -261 l 343 -261 l 436 -64 z "},"Ŋ":{"ha":999,"x_min":108,"x_max":890,"o":"m 108 924 l 251 924 l 711 421 l 711 924 l 890 924 l 890 274 l 711 274 l 711 174 l 285 640 l 285 0 l 108 0 l 108 924 m 711 924 l 890 924 l 890 125 q 866 -18 890 46 q 781 -142 842 -82 q 610 -275 719 -203 l 532 -140 q 640 -51 601 -90 q 695 31 679 -11 q 711 129 711 74 l 711 924 z "},"Ó":{"ha":972,"x_min":71,"x_max":900,"o":"m 486 940 q 798 824 696 940 q 900 460 900 707 q 798 99 900 215 q 486 -18 696 -18 q 174 99 276 -18 q 71 460 71 215 q 174 824 71 707 q 486 940 276 940 m 488 783 q 317 710 374 783 q 261 461 261 636 q 317 213 261 286 q 488 140 374 140 q 656 213 600 140 q 711 461 711 286 q 656 710 711 636 q 488 783 600 783 m 492 1233 l 678 1233 l 506 1010 l 374 1010 l 492 1233 z "},"Ô":{"ha":972,"x_min":71,"x_max":900,"o":"m 486 940 q 798 824 696 940 q 900 460 900 707 q 798 99 900 215 q 486 -18 696 -18 q 174 99 276 -18 q 71 460 71 215 q 174 824 71 707 q 486 940 276 940 m 488 783 q 317 710 374 783 q 261 461 261 636 q 317 213 261 286 q 488 140 374 140 q 656 213 600 140 q 711 461 711 286 q 656 710 711 636 q 488 783 600 783 m 407 1233 l 556 1233 l 704 1010 l 556 1010 l 482 1138 l 407 1010 l 258 1010 l 407 1233 z "},"Ö":{"ha":972,"x_min":71,"x_max":900,"o":"m 486 940 q 798 824 696 940 q 900 460 900 707 q 798 99 900 215 q 486 -18 696 -18 q 174 99 276 -18 q 71 460 71 215 q 174 824 71 707 q 486 940 276 940 m 488 783 q 317 710 374 783 q 261 461 261 636 q 317 213 261 286 q 488 140 374 140 q 656 213 600 140 q 711 461 711 286 q 656 710 711 636 q 488 783 600 783 m 446 1128 q 421 1058 446 1082 q 356 1035 396 1035 q 292 1058 317 1035 q 268 1128 268 1082 q 292 1197 268 1174 q 356 1221 317 1221 q 421 1197 396 1221 q 446 1128 446 1174 m 696 1128 q 671 1058 696 1082 q 606 1035 646 1035 q 542 1058 567 1035 q 518 1128 518 1082 q 542 1197 518 1174 q 606 1221 567 1221 q 671 1197 646 1221 q 696 1128 696 1174 z "},"Ò":{"ha":972,"x_min":71,"x_max":900,"o":"m 486 940 q 798 824 696 940 q 900 460 900 707 q 798 99 900 215 q 486 -18 696 -18 q 174 99 276 -18 q 71 460 71 215 q 174 824 71 707 q 486 940 276 940 m 488 783 q 317 710 374 783 q 261 461 261 636 q 317 213 261 286 q 488 140 374 140 q 656 213 600 140 q 711 461 711 286 q 656 710 711 636 q 488 783 600 783 m 264 1233 l 451 1233 l 568 1010 l 438 1010 l 264 1233 z "},"Õ":{"ha":972,"x_min":71,"x_max":900,"o":"m 486 940 q 798 824 696 940 q 900 460 900 707 q 798 99 900 215 q 486 -18 696 -18 q 174 99 276 -18 q 71 460 71 215 q 174 824 71 707 q 486 940 276 940 m 488 783 q 317 710 374 783 q 261 461 261 636 q 317 213 261 286 q 488 140 374 140 q 656 213 600 140 q 711 461 711 286 q 656 710 711 636 q 488 783 600 783 m 353 1029 l 239 1075 q 287 1169 253 1131 q 382 1208 321 1208 q 448 1194 417 1208 q 506 1165 479 1179 q 551 1150 532 1150 q 590 1168 579 1150 q 608 1211 600 1186 l 724 1168 q 668 1068 703 1107 q 576 1029 633 1029 q 514 1044 544 1029 q 457 1075 483 1060 q 411 1090 431 1090 q 372 1071 383 1090 q 353 1029 360 1051 z "},"Ŏ":{"ha":972,"x_min":71,"x_max":900,"o":"m 486 940 q 798 824 696 940 q 900 460 900 707 q 798 99 900 215 q 486 -18 696 -18 q 174 99 276 -18 q 71 460 71 215 q 174 824 71 707 q 486 940 276 940 m 488 783 q 317 710 374 783 q 261 461 261 636 q 317 213 261 286 q 488 140 374 140 q 656 213 600 140 q 711 461 711 286 q 656 710 711 636 q 488 783 600 783 m 263 1193 l 399 1193 q 422 1129 400 1149 q 482 1110 443 1110 q 542 1129 521 1110 q 565 1193 564 1149 l 700 1193 q 638 1041 696 1085 q 482 997 579 997 q 326 1041 385 997 q 263 1193 268 1085 z "},"Ő":{"ha":972,"x_min":71,"x_max":900,"o":"m 486 940 q 798 824 696 940 q 900 460 900 707 q 798 99 900 215 q 486 -18 696 -18 q 174 99 276 -18 q 71 460 71 215 q 174 824 71 707 q 486 940 276 940 m 488 783 q 317 710 374 783 q 261 461 261 636 q 317 213 261 286 q 488 140 374 140 q 656 213 600 140 q 711 461 711 286 q 656 710 711 636 q 488 783 600 783 m 361 1233 l 506 1233 l 422 1010 l 314 1010 l 361 1233 m 569 1233 l 725 1233 l 613 1010 l 501 1010 l 569 1233 z "},"Ō":{"ha":972,"x_min":71,"x_max":900,"o":"m 486 940 q 798 824 696 940 q 900 460 900 707 q 798 99 900 215 q 486 -18 696 -18 q 174 99 276 -18 q 71 460 71 215 q 174 824 71 707 q 486 940 276 940 m 488 783 q 317 710 374 783 q 261 461 261 636 q 317 213 261 286 q 488 140 374 140 q 656 213 600 140 q 711 461 711 286 q 656 710 711 636 q 488 783 600 783 m 285 1164 l 679 1164 l 679 1042 l 285 1042 l 285 1164 z "},"Ǿ":{"ha":972,"x_min":69,"x_max":899,"o":"m 485 940 q 797 824 694 940 q 899 460 899 707 q 797 99 899 215 q 485 -18 694 -18 q 172 99 275 -18 q 69 460 69 215 q 172 824 69 707 q 485 940 275 940 m 486 794 q 360 762 410 794 q 285 656 310 729 q 260 461 260 582 q 285 267 260 340 q 360 161 310 194 q 486 128 410 128 q 611 161 561 128 q 685 267 661 194 q 710 461 710 340 q 685 656 710 582 q 611 762 661 729 q 486 794 561 794 m 892 942 l 196 -110 l 76 -25 l 772 1025 l 892 942 m 492 1233 l 678 1233 l 506 1010 l 374 1010 l 492 1233 z "},"Ŕ":{"ha":869,"x_min":108,"x_max":821,"o":"m 108 924 l 414 924 q 615 895 535 924 q 736 803 696 867 q 776 629 776 739 q 752 512 776 558 q 688 438 728 465 q 601 396 649 411 q 685 342 650 378 q 744 232 719 306 l 821 0 l 631 0 l 567 190 q 528 274 549 243 q 478 317 508 304 q 400 331 449 331 l 290 331 l 290 0 l 108 0 l 108 924 m 290 769 l 290 486 l 410 486 q 551 519 506 486 q 596 629 596 553 q 551 740 596 710 q 414 769 507 769 l 290 769 m 425 1233 l 611 1233 l 439 1010 l 307 1010 l 425 1233 z "},"Ř":{"ha":869,"x_min":108,"x_max":821,"o":"m 108 924 l 414 924 q 615 895 535 924 q 736 803 696 867 q 776 629 776 739 q 752 512 776 558 q 688 438 728 465 q 601 396 649 411 q 685 342 650 378 q 744 232 719 306 l 821 0 l 631 0 l 567 190 q 528 274 549 243 q 478 317 508 304 q 400 331 449 331 l 290 331 l 290 0 l 108 0 l 108 924 m 290 769 l 290 486 l 410 486 q 551 519 506 486 q 596 629 596 553 q 551 740 596 710 q 414 769 507 769 l 290 769 m 335 1010 l 186 1233 l 335 1233 l 410 1106 l 483 1233 l 632 1233 l 483 1010 l 335 1010 z "},"Ŗ":{"ha":869,"x_min":108,"x_max":821,"o":"m 108 924 l 414 924 q 615 895 535 924 q 736 803 696 867 q 776 629 776 739 q 752 512 776 558 q 688 438 728 465 q 601 396 649 411 q 685 342 650 378 q 744 232 719 306 l 821 0 l 631 0 l 567 190 q 528 274 549 243 q 478 317 508 304 q 400 331 449 331 l 290 331 l 290 0 l 108 0 l 108 924 m 290 769 l 290 486 l 410 486 q 551 519 506 486 q 596 629 596 553 q 551 740 596 710 q 414 769 507 769 l 290 769 m 382 -64 l 553 -64 l 415 -261 l 289 -261 l 382 -64 z "},"Š":{"ha":751,"x_min":64,"x_max":696,"o":"m 656 915 l 642 765 q 536 781 594 774 q 429 789 478 789 q 297 772 342 789 q 253 710 253 754 q 285 638 253 669 q 367 580 317 607 q 474 524 418 553 q 581 456 531 494 q 664 363 632 417 q 696 233 696 310 q 610 42 696 103 q 361 -18 524 -18 q 199 -3 274 -18 q 64 28 125 11 l 81 178 q 210 147 146 160 q 354 133 275 133 q 466 153 424 133 q 508 219 508 172 q 476 298 508 264 q 394 362 444 332 q 288 423 344 392 q 181 493 231 454 q 99 584 131 532 q 67 707 67 636 q 110 845 67 794 q 236 917 154 896 q 429 939 318 939 q 547 931 486 939 q 656 915 608 924 m 319 1010 l 171 1233 l 319 1233 l 394 1106 l 468 1233 l 617 1233 l 468 1010 l 319 1010 z "},"Ś":{"ha":751,"x_min":64,"x_max":696,"o":"m 656 915 l 642 765 q 536 781 594 774 q 429 789 478 789 q 297 772 342 789 q 253 710 253 754 q 285 638 253 669 q 367 580 317 607 q 474 524 418 553 q 581 456 531 494 q 664 363 632 417 q 696 233 696 310 q 610 42 696 103 q 361 -18 524 -18 q 199 -3 274 -18 q 64 28 125 11 l 81 178 q 210 147 146 160 q 354 133 275 133 q 466 153 424 133 q 508 219 508 172 q 476 298 508 264 q 394 362 444 332 q 288 423 344 392 q 181 493 231 454 q 99 584 131 532 q 67 707 67 636 q 110 845 67 794 q 236 917 154 896 q 429 939 318 939 q 547 931 486 939 q 656 915 608 924 m 404 1233 l 590 1233 l 418 1010 l 286 1010 l 404 1233 z "},"Ş":{"ha":751,"x_min":64,"x_max":696,"o":"m 656 915 l 642 765 q 536 781 594 774 q 429 789 478 789 q 297 772 342 789 q 253 710 253 754 q 285 638 253 669 q 367 580 317 607 q 474 524 418 553 q 581 456 531 494 q 664 363 632 417 q 696 233 696 310 q 610 42 696 103 q 361 -18 524 -18 q 199 -3 274 -18 q 64 28 125 11 l 81 178 q 210 147 146 160 q 354 133 275 133 q 466 153 424 133 q 508 219 508 172 q 476 298 508 264 q 394 362 444 332 q 288 423 344 392 q 181 493 231 454 q 99 584 131 532 q 67 707 67 636 q 110 845 67 794 q 236 917 154 896 q 429 939 318 939 q 547 931 486 939 q 656 915 608 924 m 317 -50 l 435 -50 q 468 -102 454 -74 q 482 -161 482 -131 q 449 -247 482 -215 q 338 -278 415 -278 q 274 -272 307 -278 q 213 -257 240 -267 l 231 -158 q 266 -166 244 -162 q 303 -169 288 -169 q 339 -160 329 -169 q 349 -131 349 -151 q 339 -90 349 -111 q 317 -50 329 -68 z "},"Ŝ":{"ha":751,"x_min":64,"x_max":696,"o":"m 656 915 l 642 765 q 536 781 594 774 q 429 789 478 789 q 297 772 342 789 q 253 710 253 754 q 285 638 253 669 q 367 580 317 607 q 474 524 418 553 q 581 456 531 494 q 664 363 632 417 q 696 233 696 310 q 610 42 696 103 q 361 -18 524 -18 q 199 -3 274 -18 q 64 28 125 11 l 81 178 q 210 147 146 160 q 354 133 275 133 q 466 153 424 133 q 508 219 508 172 q 476 298 508 264 q 394 362 444 332 q 288 423 344 392 q 181 493 231 454 q 99 584 131 532 q 67 707 67 636 q 110 845 67 794 q 236 917 154 896 q 429 939 318 939 q 547 931 486 939 q 656 915 608 924 m 319 1233 l 468 1233 l 617 1010 l 468 1010 l 394 1138 l 319 1010 l 171 1010 l 319 1233 z "},"Ș":{"ha":751,"x_min":64,"x_max":696,"o":"m 656 915 l 642 765 q 536 781 594 774 q 429 789 478 789 q 297 772 342 789 q 253 710 253 754 q 285 638 253 669 q 367 580 317 607 q 474 524 418 553 q 581 456 531 494 q 664 363 632 417 q 696 233 696 310 q 610 42 696 103 q 361 -18 524 -18 q 199 -3 274 -18 q 64 28 125 11 l 81 178 q 210 147 146 160 q 354 133 275 133 q 466 153 424 133 q 508 219 508 172 q 476 298 508 264 q 394 362 444 332 q 288 423 344 392 q 181 493 231 454 q 99 584 131 532 q 67 707 67 636 q 110 845 67 794 q 236 917 154 896 q 429 939 318 939 q 547 931 486 939 q 656 915 608 924 m 279 -64 l 450 -64 l 313 -261 l 186 -261 l 279 -64 z "},"Ţ":{"ha":851,"x_min":43,"x_max":808,"o":"m 43 924 l 808 924 l 808 769 l 517 769 l 517 0 l 335 0 l 335 769 l 43 769 l 43 924 m 338 -64 l 508 -64 l 371 -261 l 244 -261 l 338 -64 z "},"Ŧ":{"ha":858,"x_min":43,"x_max":815,"o":"m 43 924 l 815 924 l 815 779 l 529 779 l 529 0 l 329 0 l 329 779 l 43 779 l 43 924 m 739 374 l 119 374 l 119 517 l 739 517 l 739 374 z "},"Ť":{"ha":851,"x_min":43,"x_max":808,"o":"m 43 924 l 808 924 l 808 769 l 517 769 l 517 0 l 335 0 l 335 769 l 43 769 l 43 924 m 349 1011 l 200 1235 l 349 1235 l 424 1107 l 497 1235 l 646 1235 l 497 1011 l 349 1011 z "},"Ú":{"ha":947,"x_min":96,"x_max":839,"o":"m 96 924 l 279 924 l 279 321 q 301 222 279 263 q 366 161 322 182 q 476 140 410 140 q 584 147 538 140 q 657 161 631 154 l 657 924 l 839 924 l 839 40 q 683 2 775 22 q 471 -18 590 -18 q 250 22 332 -18 q 132 137 168 63 q 96 313 96 211 l 96 924 m 476 1233 l 663 1233 l 490 1010 l 358 1010 l 476 1233 z "},"Û":{"ha":947,"x_min":96,"x_max":839,"o":"m 96 924 l 279 924 l 279 321 q 301 222 279 263 q 366 161 322 182 q 476 140 410 140 q 584 147 538 140 q 657 161 631 154 l 657 924 l 839 924 l 839 40 q 683 2 775 22 q 471 -18 590 -18 q 250 22 332 -18 q 132 137 168 63 q 96 313 96 211 l 96 924 m 392 1233 l 540 1233 l 689 1010 l 540 1010 l 467 1138 l 392 1010 l 243 1010 l 392 1233 z "},"Ü":{"ha":947,"x_min":96,"x_max":839,"o":"m 96 924 l 279 924 l 279 321 q 301 222 279 263 q 366 161 322 182 q 476 140 410 140 q 584 147 538 140 q 657 161 631 154 l 657 924 l 839 924 l 839 40 q 683 2 775 22 q 471 -18 590 -18 q 250 22 332 -18 q 132 137 168 63 q 96 313 96 211 l 96 924 m 431 1128 q 406 1058 431 1082 q 340 1035 381 1035 q 277 1058 301 1035 q 253 1128 253 1082 q 277 1197 253 1174 q 340 1221 301 1221 q 406 1197 381 1221 q 431 1128 431 1174 m 681 1128 q 656 1058 681 1082 q 590 1035 631 1035 q 527 1058 551 1035 q 503 1128 503 1082 q 527 1197 503 1174 q 590 1221 551 1221 q 656 1197 631 1221 q 681 1128 681 1174 z "},"Ù":{"ha":947,"x_min":96,"x_max":839,"o":"m 96 924 l 279 924 l 279 321 q 301 222 279 263 q 366 161 322 182 q 476 140 410 140 q 584 147 538 140 q 657 161 631 154 l 657 924 l 839 924 l 839 40 q 683 2 775 22 q 471 -18 590 -18 q 250 22 332 -18 q 132 137 168 63 q 96 313 96 211 l 96 924 m 249 1233 l 436 1233 l 553 1010 l 422 1010 l 249 1233 z "},"Ŭ":{"ha":947,"x_min":96,"x_max":839,"o":"m 96 924 l 279 924 l 279 321 q 301 222 279 263 q 366 161 322 182 q 476 140 410 140 q 584 147 538 140 q 657 161 631 154 l 657 924 l 839 924 l 839 40 q 683 2 775 22 q 471 -18 590 -18 q 250 22 332 -18 q 132 137 168 63 q 96 313 96 211 l 96 924 m 247 1193 l 383 1193 q 406 1129 385 1149 q 467 1110 428 1110 q 527 1129 506 1110 q 550 1193 549 1149 l 685 1193 q 622 1041 681 1085 q 467 997 564 997 q 311 1041 369 997 q 247 1193 253 1085 z "},"Ű":{"ha":947,"x_min":96,"x_max":839,"o":"m 96 924 l 279 924 l 279 321 q 301 222 279 263 q 366 161 322 182 q 476 140 410 140 q 584 147 538 140 q 657 161 631 154 l 657 924 l 839 924 l 839 40 q 683 2 775 22 q 471 -18 590 -18 q 250 22 332 -18 q 132 137 168 63 q 96 313 96 211 l 96 924 m 346 1233 l 490 1233 l 407 1010 l 299 1010 l 346 1233 m 554 1233 l 710 1233 l 597 1010 l 486 1010 l 554 1233 z "},"Ū":{"ha":947,"x_min":96,"x_max":839,"o":"m 96 924 l 279 924 l 279 321 q 301 222 279 263 q 366 161 322 182 q 476 140 410 140 q 584 147 538 140 q 657 161 631 154 l 657 924 l 839 924 l 839 40 q 683 2 775 22 q 471 -18 590 -18 q 250 22 332 -18 q 132 137 168 63 q 96 313 96 211 l 96 924 m 269 1164 l 664 1164 l 664 1042 l 269 1042 l 269 1164 z "},"Ų":{"ha":953,"x_min":96,"x_max":847,"o":"m 831 -106 l 847 -204 q 796 -219 824 -214 q 740 -225 768 -225 q 645 -199 685 -225 q 606 -117 606 -172 q 623 -53 606 -82 q 666 0 640 -24 q 718 40 692 24 l 839 40 q 793 2 817 22 q 753 -40 769 -18 q 738 -85 738 -61 q 748 -110 738 -103 q 775 -118 758 -118 q 803 -115 790 -118 q 831 -106 817 -111 m 96 924 l 279 924 l 279 321 q 301 222 279 263 q 366 161 322 182 q 476 140 410 140 q 584 147 538 140 q 657 161 631 154 l 657 924 l 839 924 l 839 40 q 683 2 775 22 q 471 -18 590 -18 q 250 22 332 -18 q 132 137 168 63 q 96 313 96 211 l 96 924 z "},"Ů":{"ha":947,"x_min":96,"x_max":839,"o":"m 96 924 l 279 924 l 279 321 q 301 222 279 263 q 366 161 322 182 q 476 140 410 140 q 584 147 538 140 q 657 161 631 154 l 657 924 l 839 924 l 839 40 q 683 2 775 22 q 471 -18 590 -18 q 250 22 332 -18 q 132 137 168 63 q 96 313 96 211 l 96 924 m 467 1178 q 424 1166 440 1178 q 408 1126 408 1154 q 424 1088 408 1100 q 467 1075 440 1075 q 508 1088 493 1075 q 524 1126 524 1100 q 508 1166 524 1154 q 467 1178 493 1178 m 467 1261 q 585 1228 539 1261 q 631 1126 631 1196 q 585 1024 631 1057 q 467 992 539 992 q 349 1024 394 992 q 303 1126 303 1057 q 349 1228 303 1196 q 467 1261 394 1261 z "},"Ũ":{"ha":947,"x_min":96,"x_max":839,"o":"m 96 924 l 279 924 l 279 321 q 301 222 279 263 q 366 161 322 182 q 476 140 410 140 q 584 147 538 140 q 657 161 631 154 l 657 924 l 839 924 l 839 40 q 683 2 775 22 q 471 -18 590 -18 q 250 22 332 -18 q 132 137 168 63 q 96 313 96 211 l 96 924 m 338 1029 l 224 1075 q 272 1169 238 1131 q 367 1208 306 1208 q 433 1194 401 1208 q 490 1165 464 1179 q 536 1150 517 1150 q 574 1168 564 1150 q 593 1211 585 1186 l 708 1168 q 653 1068 688 1107 q 561 1029 618 1029 q 499 1044 529 1029 q 442 1075 468 1060 q 396 1090 415 1090 q 356 1071 368 1090 q 338 1029 344 1051 z "},"Ẃ":{"ha":1290,"x_min":43,"x_max":1239,"o":"m 443 0 l 267 0 l 43 924 l 232 924 l 381 240 l 569 753 l 722 753 l 918 231 q 1008 542 971 371 q 1068 924 1044 714 l 1239 924 q 1200 664 1222 788 q 1149 427 1178 540 q 1086 208 1121 314 q 1010 0 1051 101 l 839 0 l 646 544 l 443 0 m 656 1233 l 842 1233 l 669 1010 l 538 1010 l 656 1233 z "},"Ŵ":{"ha":1290,"x_min":43,"x_max":1239,"o":"m 443 0 l 267 0 l 43 924 l 232 924 l 381 240 l 569 753 l 722 753 l 918 231 q 1008 542 971 371 q 1068 924 1044 714 l 1239 924 q 1200 664 1222 788 q 1149 427 1178 540 q 1086 208 1121 314 q 1010 0 1051 101 l 839 0 l 646 544 l 443 0 m 571 1233 l 719 1233 l 868 1010 l 719 1010 l 646 1138 l 571 1010 l 422 1010 l 571 1233 z "},"Ẅ":{"ha":1290,"x_min":43,"x_max":1239,"o":"m 443 0 l 267 0 l 43 924 l 232 924 l 381 240 l 569 753 l 722 753 l 918 231 q 1008 542 971 371 q 1068 924 1044 714 l 1239 924 q 1200 664 1222 788 q 1149 427 1178 540 q 1086 208 1121 314 q 1010 0 1051 101 l 839 0 l 646 544 l 443 0 m 610 1128 q 585 1058 610 1082 q 519 1035 560 1035 q 456 1058 481 1035 q 432 1128 432 1082 q 456 1197 432 1174 q 519 1221 481 1221 q 585 1197 560 1221 q 610 1128 610 1174 m 860 1128 q 835 1058 860 1082 q 769 1035 810 1035 q 706 1058 731 1035 q 682 1128 682 1082 q 706 1197 682 1174 q 769 1221 731 1221 q 835 1197 810 1221 q 860 1128 860 1174 z "},"Ẁ":{"ha":1290,"x_min":43,"x_max":1239,"o":"m 443 0 l 267 0 l 43 924 l 232 924 l 381 240 l 569 753 l 722 753 l 918 231 q 1008 542 971 371 q 1068 924 1044 714 l 1239 924 q 1200 664 1222 788 q 1149 427 1178 540 q 1086 208 1121 314 q 1010 0 1051 101 l 839 0 l 646 544 l 443 0 m 428 1233 l 615 1233 l 732 1010 l 601 1010 l 428 1233 z "},"Ý":{"ha":907,"x_min":32,"x_max":867,"o":"m 361 0 l 361 325 l 32 924 l 231 924 l 468 483 q 532 565 499 515 q 596 676 565 615 q 650 800 626 736 q 683 924 674 864 l 867 924 q 791 701 839 813 q 681 493 743 589 q 546 331 619 397 l 546 0 l 361 0 m 460 1233 l 646 1233 l 474 1010 l 342 1010 l 460 1233 z "},"Ÿ":{"ha":907,"x_min":32,"x_max":867,"o":"m 361 0 l 361 325 l 32 924 l 231 924 l 468 483 q 532 565 499 515 q 596 676 565 615 q 650 800 626 736 q 683 924 674 864 l 867 924 q 791 701 839 813 q 681 493 743 589 q 546 331 619 397 l 546 0 l 361 0 m 414 1128 q 389 1058 414 1082 q 324 1035 364 1035 q 260 1058 285 1035 q 236 1128 236 1082 q 260 1197 236 1174 q 324 1221 285 1221 q 389 1197 364 1221 q 414 1128 414 1174 m 664 1128 q 639 1058 664 1082 q 574 1035 614 1035 q 510 1058 535 1035 q 486 1128 486 1082 q 510 1197 486 1174 q 574 1221 535 1221 q 639 1197 614 1221 q 664 1128 664 1174 z "},"Ŷ":{"ha":907,"x_min":32,"x_max":867,"o":"m 361 0 l 361 325 l 32 924 l 231 924 l 468 483 q 532 565 499 515 q 596 676 565 615 q 650 800 626 736 q 683 924 674 864 l 867 924 q 791 701 839 813 q 681 493 743 589 q 546 331 619 397 l 546 0 l 361 0 m 375 1233 l 524 1233 l 672 1010 l 524 1010 l 450 1138 l 375 1010 l 226 1010 l 375 1233 z "},"Ỳ":{"ha":907,"x_min":32,"x_max":867,"o":"m 361 0 l 361 325 l 32 924 l 231 924 l 468 483 q 532 565 499 515 q 596 676 565 615 q 650 800 626 736 q 683 924 674 864 l 867 924 q 791 701 839 813 q 681 493 743 589 q 546 331 619 397 l 546 0 l 361 0 m 232 1233 l 419 1233 l 536 1010 l 406 1010 l 232 1233 z "},"Ž":{"ha":831,"x_min":57,"x_max":775,"o":"m 72 924 l 761 924 l 761 778 l 276 154 l 775 154 l 775 0 l 57 0 l 57 146 l 540 769 l 72 769 l 72 924 m 338 1010 l 189 1233 l 338 1233 l 413 1106 l 486 1233 l 635 1233 l 486 1010 l 338 1010 z "},"Ź":{"ha":831,"x_min":57,"x_max":775,"o":"m 72 924 l 761 924 l 761 778 l 276 154 l 775 154 l 775 0 l 57 0 l 57 146 l 540 769 l 72 769 l 72 924 m 422 1233 l 608 1233 l 436 1010 l 304 1010 l 422 1233 z "},"Ż":{"ha":831,"x_min":57,"x_max":775,"o":"m 72 924 l 761 924 l 761 778 l 276 154 l 775 154 l 775 0 l 57 0 l 57 146 l 540 769 l 72 769 l 72 924 m 518 1126 q 490 1053 518 1078 q 414 1029 461 1029 q 337 1053 365 1029 q 308 1126 308 1078 q 337 1198 308 1174 q 413 1222 365 1222 q 490 1198 461 1222 q 518 1126 518 1174 z "},"á":{"ha":699,"x_min":39,"x_max":621,"o":"m 451 122 l 451 300 q 394 306 422 304 q 340 308 367 308 q 240 285 276 308 q 204 208 204 263 q 239 131 204 154 q 333 108 274 108 q 395 113 365 108 q 451 122 425 117 m 104 558 l 94 693 q 200 712 140 704 q 317 719 260 719 q 476 697 407 719 q 583 626 544 675 q 621 496 621 576 l 621 26 q 534 5 583 15 q 431 -12 485 -6 q 326 -18 378 -18 q 176 3 242 -18 q 75 76 111 25 q 39 217 39 128 q 76 342 39 296 q 174 408 113 389 q 307 428 235 428 q 379 425 343 428 q 451 415 415 422 l 451 481 q 415 561 451 539 q 306 583 379 583 q 203 576 257 583 q 104 558 149 568 m 344 1014 l 531 1014 l 358 790 l 226 790 l 344 1014 z "},"â":{"ha":699,"x_min":39,"x_max":621,"o":"m 451 122 l 451 300 q 394 306 422 304 q 340 308 367 308 q 240 285 276 308 q 204 208 204 263 q 239 131 204 154 q 333 108 274 108 q 395 113 365 108 q 451 122 425 117 m 104 558 l 94 693 q 200 712 140 704 q 317 719 260 719 q 476 697 407 719 q 583 626 544 675 q 621 496 621 576 l 621 26 q 534 5 583 15 q 431 -12 485 -6 q 326 -18 378 -18 q 176 3 242 -18 q 75 76 111 25 q 39 217 39 128 q 76 342 39 296 q 174 408 113 389 q 307 428 235 428 q 379 425 343 428 q 451 415 415 422 l 451 481 q 415 561 451 539 q 306 583 379 583 q 203 576 257 583 q 104 558 149 568 m 260 1014 l 408 1014 l 557 790 l 408 790 l 335 918 l 260 790 l 111 790 l 260 1014 z "},"ä":{"ha":699,"x_min":39,"x_max":621,"o":"m 451 122 l 451 300 q 394 306 422 304 q 340 308 367 308 q 240 285 276 308 q 204 208 204 263 q 239 131 204 154 q 333 108 274 108 q 395 113 365 108 q 451 122 425 117 m 104 558 l 94 693 q 200 712 140 704 q 317 719 260 719 q 476 697 407 719 q 583 626 544 675 q 621 496 621 576 l 621 26 q 534 5 583 15 q 431 -12 485 -6 q 326 -18 378 -18 q 176 3 242 -18 q 75 76 111 25 q 39 217 39 128 q 76 342 39 296 q 174 408 113 389 q 307 428 235 428 q 379 425 343 428 q 451 415 415 422 l 451 481 q 415 561 451 539 q 306 583 379 583 q 203 576 257 583 q 104 558 149 568 m 299 908 q 274 839 299 863 q 208 815 249 815 q 145 839 169 815 q 121 908 121 863 q 145 978 121 954 q 208 1001 169 1001 q 274 978 249 1001 q 299 908 299 954 m 549 908 q 524 839 549 863 q 458 815 499 815 q 395 839 419 815 q 371 908 371 863 q 395 978 371 954 q 458 1001 419 1001 q 524 978 499 1001 q 549 908 549 954 z "},"à":{"ha":699,"x_min":39,"x_max":621,"o":"m 451 122 l 451 300 q 394 306 422 304 q 340 308 367 308 q 240 285 276 308 q 204 208 204 263 q 239 131 204 154 q 333 108 274 108 q 395 113 365 108 q 451 122 425 117 m 104 558 l 94 693 q 200 712 140 704 q 317 719 260 719 q 476 697 407 719 q 583 626 544 675 q 621 496 621 576 l 621 26 q 534 5 583 15 q 431 -12 485 -6 q 326 -18 378 -18 q 176 3 242 -18 q 75 76 111 25 q 39 217 39 128 q 76 342 39 296 q 174 408 113 389 q 307 428 235 428 q 379 425 343 428 q 451 415 415 422 l 451 481 q 415 561 451 539 q 306 583 379 583 q 203 576 257 583 q 104 558 149 568 m 117 1014 l 304 1014 l 421 790 l 290 790 l 117 1014 z "},"å":{"ha":699,"x_min":39,"x_max":621,"o":"m 451 122 l 451 300 q 394 306 422 304 q 340 308 367 308 q 240 285 276 308 q 204 208 204 263 q 239 131 204 154 q 333 108 274 108 q 395 113 365 108 q 451 122 425 117 m 104 558 l 94 693 q 200 712 140 704 q 317 719 260 719 q 476 697 407 719 q 583 626 544 675 q 621 496 621 576 l 621 26 q 534 5 583 15 q 431 -12 485 -6 q 326 -18 378 -18 q 176 3 242 -18 q 75 76 111 25 q 39 217 39 128 q 76 342 39 296 q 174 408 113 389 q 307 428 235 428 q 379 425 343 428 q 451 415 415 422 l 451 481 q 415 561 451 539 q 306 583 379 583 q 203 576 257 583 q 104 558 149 568 m 335 958 q 292 947 308 958 q 276 907 276 935 q 292 868 276 881 q 335 856 308 856 q 376 868 361 856 q 392 907 392 881 q 376 947 392 935 q 335 958 361 958 m 335 1042 q 453 1009 407 1042 q 499 907 499 976 q 453 805 499 838 q 335 772 407 772 q 217 805 263 772 q 171 907 171 838 q 217 1009 171 976 q 335 1042 263 1042 z "},"ã":{"ha":699,"x_min":39,"x_max":621,"o":"m 451 122 l 451 300 q 394 306 422 304 q 340 308 367 308 q 240 285 276 308 q 204 208 204 263 q 239 131 204 154 q 333 108 274 108 q 395 113 365 108 q 451 122 425 117 m 104 558 l 94 693 q 200 712 140 704 q 317 719 260 719 q 476 697 407 719 q 583 626 544 675 q 621 496 621 576 l 621 26 q 534 5 583 15 q 431 -12 485 -6 q 326 -18 378 -18 q 176 3 242 -18 q 75 76 111 25 q 39 217 39 128 q 76 342 39 296 q 174 408 113 389 q 307 428 235 428 q 379 425 343 428 q 451 415 415 422 l 451 481 q 415 561 451 539 q 306 583 379 583 q 203 576 257 583 q 104 558 149 568 m 206 810 l 92 856 q 140 950 106 911 q 235 989 174 989 q 301 974 269 989 q 358 945 332 960 q 404 931 385 931 q 442 949 432 931 q 461 992 453 967 l 576 949 q 521 849 556 888 q 429 810 486 810 q 367 825 397 810 q 310 856 336 840 q 264 871 283 871 q 224 851 236 871 q 206 810 213 832 z "},"ă":{"ha":699,"x_min":39,"x_max":621,"o":"m 451 122 l 451 300 q 394 306 422 304 q 340 308 367 308 q 240 285 276 308 q 204 208 204 263 q 239 131 204 154 q 333 108 274 108 q 395 113 365 108 q 451 122 425 117 m 104 558 l 94 693 q 200 712 140 704 q 317 719 260 719 q 476 697 407 719 q 583 626 544 675 q 621 496 621 576 l 621 26 q 534 5 583 15 q 431 -12 485 -6 q 326 -18 378 -18 q 176 3 242 -18 q 75 76 111 25 q 39 217 39 128 q 76 342 39 296 q 174 408 113 389 q 307 428 235 428 q 379 425 343 428 q 451 415 415 422 l 451 481 q 415 561 451 539 q 306 583 379 583 q 203 576 257 583 q 104 558 149 568 m 115 974 l 251 974 q 274 910 253 929 q 335 890 296 890 q 395 910 374 890 q 418 974 417 929 l 553 974 q 490 822 549 865 q 335 778 432 778 q 179 822 238 778 q 115 974 121 865 z "},"ā":{"ha":699,"x_min":39,"x_max":621,"o":"m 451 122 l 451 300 q 394 306 422 304 q 340 308 367 308 q 240 285 276 308 q 204 208 204 263 q 239 131 204 154 q 333 108 274 108 q 395 113 365 108 q 451 122 425 117 m 104 558 l 94 693 q 200 712 140 704 q 317 719 260 719 q 476 697 407 719 q 583 626 544 675 q 621 496 621 576 l 621 26 q 534 5 583 15 q 431 -12 485 -6 q 326 -18 378 -18 q 176 3 242 -18 q 75 76 111 25 q 39 217 39 128 q 76 342 39 296 q 174 408 113 389 q 307 428 235 428 q 379 425 343 428 q 451 415 415 422 l 451 481 q 415 561 451 539 q 306 583 379 583 q 203 576 257 583 q 104 558 149 568 m 138 944 l 532 944 l 532 822 l 138 822 l 138 944 z "},"ą":{"ha":699,"x_min":39,"x_max":635,"o":"m 618 -119 l 635 -217 q 583 -233 611 -226 q 528 -239 556 -239 q 431 -212 471 -239 q 392 -129 392 -186 q 408 -65 392 -94 q 450 -13 425 -36 q 500 26 475 10 l 621 26 q 577 -10 600 10 q 539 -51 554 -31 q 524 -94 524 -72 q 535 -123 524 -115 q 564 -131 546 -131 q 591 -128 578 -131 q 618 -119 604 -125 m 451 122 l 451 300 q 394 306 422 304 q 340 308 367 308 q 240 285 276 308 q 204 208 204 263 q 239 131 204 154 q 333 108 274 108 q 395 113 365 108 q 451 122 425 117 m 104 558 l 94 693 q 200 712 140 704 q 317 719 260 719 q 476 697 407 719 q 583 626 544 675 q 621 496 621 576 l 621 26 q 534 5 583 15 q 431 -12 485 -6 q 326 -18 378 -18 q 176 3 242 -18 q 75 76 111 25 q 39 217 39 128 q 76 342 39 296 q 174 408 113 389 q 307 428 235 428 q 379 425 343 428 q 451 415 415 422 l 451 481 q 415 561 451 539 q 306 583 379 583 q 203 576 257 583 q 104 558 149 568 z "},"ǻ":{"ha":699,"x_min":39,"x_max":621,"o":"m 522 901 q 478 806 522 835 q 358 776 433 776 q 240 806 285 776 q 194 901 194 835 q 222 982 194 953 q 296 1021 249 1011 l 376 1150 l 538 1150 l 422 1019 q 496 981 469 1010 q 522 901 522 951 m 417 901 q 402 939 417 928 q 358 950 388 950 q 316 939 331 950 q 301 901 301 928 q 316 864 301 875 q 358 853 331 853 q 402 864 388 853 q 417 901 417 875 m 451 122 l 451 300 q 394 306 422 304 q 340 308 367 308 q 240 285 276 308 q 204 208 204 263 q 239 131 204 154 q 333 108 274 108 q 395 113 365 108 q 451 122 425 117 m 104 558 l 94 693 q 200 712 140 704 q 317 719 260 719 q 476 697 407 719 q 583 626 544 675 q 621 496 621 578 l 621 26 q 534 5 583 15 q 431 -12 485 -6 q 326 -18 378 -18 q 176 3 242 -18 q 75 76 111 25 q 39 217 39 128 q 76 342 39 296 q 174 408 113 389 q 307 428 235 428 q 379 425 343 428 q 451 415 415 422 l 451 481 q 415 561 451 539 q 306 583 379 583 q 203 576 257 583 q 104 558 149 568 z "},"ç":{"ha":619,"x_min":51,"x_max":582,"o":"m 576 703 l 558 558 q 490 570 524 565 q 421 575 457 575 q 313 555 357 575 q 247 485 269 535 q 224 350 224 436 q 271 181 224 233 q 426 128 318 128 q 497 134 463 128 q 567 150 532 140 l 582 7 q 495 -11 544 -4 q 401 -18 446 -18 q 216 21 294 -18 q 94 142 138 60 q 51 353 51 224 q 97 567 51 488 q 224 683 142 647 q 414 719 306 719 q 499 715 454 719 q 576 703 543 710 m 297 -49 l 415 -49 q 449 -101 435 -72 q 463 -160 463 -129 q 429 -245 463 -214 q 318 -276 396 -276 q 254 -271 288 -276 q 193 -256 221 -265 l 211 -157 q 247 -165 225 -161 q 283 -168 268 -168 q 319 -159 310 -168 q 329 -129 329 -150 q 319 -88 329 -110 q 297 -49 310 -67 z "},"ć":{"ha":619,"x_min":51,"x_max":582,"o":"m 576 703 l 558 558 q 490 570 524 565 q 421 575 457 575 q 313 555 357 575 q 247 485 269 535 q 224 350 224 436 q 271 181 224 233 q 426 128 318 128 q 497 134 463 128 q 567 150 532 140 l 582 7 q 495 -11 544 -4 q 401 -18 446 -18 q 216 21 294 -18 q 94 142 138 60 q 51 353 51 224 q 97 567 51 488 q 224 683 142 647 q 414 719 306 719 q 499 715 454 719 q 576 703 543 710 m 389 1014 l 575 1014 l 403 790 l 271 790 l 389 1014 z "},"č":{"ha":619,"x_min":51,"x_max":601,"o":"m 576 703 l 558 558 q 490 570 524 565 q 421 575 457 575 q 313 555 357 575 q 247 485 269 535 q 224 350 224 436 q 271 181 224 233 q 426 128 318 128 q 497 134 463 128 q 567 150 532 140 l 582 7 q 495 -11 544 -4 q 401 -18 446 -18 q 216 21 294 -18 q 94 142 138 60 q 51 353 51 224 q 97 567 51 488 q 224 683 142 647 q 414 719 306 719 q 499 715 454 719 q 576 703 543 710 m 304 790 l 156 1014 l 304 1014 l 379 886 l 453 1014 l 601 1014 l 453 790 l 304 790 z "},"ĉ":{"ha":619,"x_min":51,"x_max":601,"o":"m 576 703 l 558 558 q 490 570 524 565 q 421 575 457 575 q 313 555 357 575 q 247 485 269 535 q 224 350 224 436 q 271 181 224 233 q 426 128 318 128 q 497 134 463 128 q 567 150 532 140 l 582 7 q 495 -11 544 -4 q 401 -18 446 -18 q 216 21 294 -18 q 94 142 138 60 q 51 353 51 224 q 97 567 51 488 q 224 683 142 647 q 414 719 306 719 q 499 715 454 719 q 576 703 543 710 m 304 1014 l 453 1014 l 601 790 l 453 790 l 379 918 l 304 790 l 156 790 l 304 1014 z "},"ċ":{"ha":619,"x_min":51,"x_max":582,"o":"m 576 703 l 558 558 q 490 570 524 565 q 421 575 457 575 q 313 555 357 575 q 247 485 269 535 q 224 350 224 436 q 271 181 224 233 q 426 128 318 128 q 497 134 463 128 q 567 150 532 140 l 582 7 q 495 -11 544 -4 q 401 -18 446 -18 q 216 21 294 -18 q 94 142 138 60 q 51 353 51 224 q 97 567 51 488 q 224 683 142 647 q 414 719 306 719 q 499 715 454 719 q 576 703 543 710 m 485 907 q 456 834 485 858 q 381 810 428 810 q 303 834 332 810 q 275 907 275 858 q 303 978 275 954 q 379 1003 332 1003 q 456 978 428 1003 q 485 907 485 954 z "},"ď":{"ha":999,"x_min":53,"x_max":993,"o":"m 696 1014 l 696 35 q 548 -3 629 13 q 389 -18 467 -18 q 212 19 288 -18 q 94 135 136 56 q 53 343 53 215 q 93 565 53 482 q 205 683 133 647 q 369 719 276 719 q 447 715 404 719 q 525 703 490 710 l 525 1014 l 696 1014 m 525 143 l 525 557 q 454 570 486 565 q 389 575 422 575 q 265 523 304 575 q 225 346 225 471 q 244 215 225 263 q 301 148 264 168 q 392 128 338 128 q 460 132 425 128 q 525 143 494 136 m 810 1014 l 993 1014 l 881 718 l 747 718 l 810 1014 z "},"đ":{"ha":836,"x_min":51,"x_max":811,"o":"m 315 801 l 315 919 l 811 919 l 811 801 l 315 801 m 694 1014 l 694 35 q 547 -3 628 13 q 388 -18 465 -18 q 210 19 286 -18 q 93 135 135 56 q 51 343 51 215 q 92 565 51 482 q 203 683 132 647 q 368 719 275 719 q 446 715 403 719 q 524 703 489 710 l 524 1014 l 694 1014 m 524 143 l 524 557 q 453 570 485 565 q 388 575 421 575 q 263 523 303 575 q 224 346 224 471 q 243 215 224 263 q 299 148 263 168 q 390 128 336 128 q 458 132 424 128 q 524 143 493 136 z "},"é":{"ha":733,"x_min":51,"x_max":678,"o":"m 678 296 l 226 296 q 278 171 229 208 q 440 133 328 133 q 510 137 472 133 q 585 147 549 140 q 647 160 621 153 l 664 14 q 547 -9 613 0 q 414 -18 482 -18 q 224 19 306 -18 q 97 136 142 56 q 51 350 51 217 q 91 565 51 483 q 205 683 131 646 q 381 719 279 719 q 551 680 486 719 q 647 569 617 640 q 678 404 678 499 l 678 296 m 226 418 l 514 418 q 483 540 514 497 q 374 583 453 583 q 263 539 296 583 q 226 418 229 494 m 381 1014 l 567 1014 l 394 790 l 263 790 l 381 1014 z "},"ê":{"ha":733,"x_min":51,"x_max":678,"o":"m 678 296 l 226 296 q 278 171 229 208 q 440 133 328 133 q 510 137 472 133 q 585 147 549 140 q 647 160 621 153 l 664 14 q 547 -9 613 0 q 414 -18 482 -18 q 224 19 306 -18 q 97 136 142 56 q 51 350 51 217 q 91 565 51 483 q 205 683 131 646 q 381 719 279 719 q 551 680 486 719 q 647 569 617 640 q 678 404 678 499 l 678 296 m 226 418 l 514 418 q 483 540 514 497 q 374 583 453 583 q 263 539 296 583 q 226 418 229 494 m 296 1014 l 444 1014 l 593 790 l 444 790 l 371 918 l 296 790 l 147 790 l 296 1014 z "},"ë":{"ha":733,"x_min":51,"x_max":678,"o":"m 678 296 l 226 296 q 278 171 229 208 q 440 133 328 133 q 510 137 472 133 q 585 147 549 140 q 647 160 621 153 l 664 14 q 547 -9 613 0 q 414 -18 482 -18 q 224 19 306 -18 q 97 136 142 56 q 51 350 51 217 q 91 565 51 483 q 205 683 131 646 q 381 719 279 719 q 551 680 486 719 q 647 569 617 640 q 678 404 678 499 l 678 296 m 226 418 l 514 418 q 483 540 514 497 q 374 583 453 583 q 263 539 296 583 q 226 418 229 494 m 335 908 q 310 839 335 863 q 244 815 285 815 q 181 839 206 815 q 157 908 157 863 q 181 978 157 954 q 244 1001 206 1001 q 310 978 285 1001 q 335 908 335 954 m 585 908 q 560 839 585 863 q 494 815 535 815 q 431 839 456 815 q 407 908 407 863 q 431 978 407 954 q 494 1001 456 1001 q 560 978 535 1001 q 585 908 585 954 z "},"è":{"ha":733,"x_min":51,"x_max":678,"o":"m 678 296 l 226 296 q 278 171 229 208 q 440 133 328 133 q 510 137 472 133 q 585 147 549 140 q 647 160 621 153 l 664 14 q 547 -9 613 0 q 414 -18 482 -18 q 224 19 306 -18 q 97 136 142 56 q 51 350 51 217 q 91 565 51 483 q 205 683 131 646 q 381 719 279 719 q 551 680 486 719 q 647 569 617 640 q 678 404 678 499 l 678 296 m 226 418 l 514 418 q 483 540 514 497 q 374 583 453 583 q 263 539 296 583 q 226 418 229 494 m 153 1014 l 340 1014 l 457 790 l 326 790 l 153 1014 z "},"ĕ":{"ha":733,"x_min":51,"x_max":678,"o":"m 678 296 l 226 296 q 278 171 229 208 q 440 133 328 133 q 510 137 472 133 q 585 147 549 140 q 647 160 621 153 l 664 14 q 547 -9 613 0 q 414 -18 482 -18 q 224 19 306 -18 q 97 136 142 56 q 51 350 51 217 q 91 565 51 483 q 205 683 131 646 q 381 719 279 719 q 551 680 486 719 q 647 569 617 640 q 678 404 678 499 l 678 296 m 226 418 l 514 418 q 483 540 514 497 q 374 583 453 583 q 263 539 296 583 q 226 418 229 494 m 151 974 l 288 974 q 310 910 289 929 q 371 890 332 890 q 431 910 410 890 q 454 974 453 929 l 589 974 q 526 822 585 865 q 371 778 468 778 q 215 822 274 778 q 151 974 157 865 z "},"ě":{"ha":733,"x_min":51,"x_max":678,"o":"m 678 296 l 226 296 q 278 171 229 208 q 440 133 328 133 q 510 137 472 133 q 585 147 549 140 q 647 160 621 153 l 664 14 q 547 -9 613 0 q 414 -18 482 -18 q 224 19 306 -18 q 97 136 142 56 q 51 350 51 217 q 91 565 51 483 q 205 683 131 646 q 381 719 279 719 q 551 680 486 719 q 647 569 617 640 q 678 404 678 499 l 678 296 m 226 418 l 514 418 q 483 540 514 497 q 374 583 453 583 q 263 539 296 583 q 226 418 229 494 m 296 790 l 147 1014 l 296 1014 l 371 886 l 444 1014 l 593 1014 l 444 790 l 296 790 z "},"ė":{"ha":733,"x_min":51,"x_max":678,"o":"m 678 296 l 226 296 q 278 171 229 208 q 440 133 328 133 q 510 137 472 133 q 585 147 549 140 q 647 160 621 153 l 664 14 q 547 -9 613 0 q 414 -18 482 -18 q 224 19 306 -18 q 97 136 142 56 q 51 350 51 217 q 91 565 51 483 q 205 683 131 646 q 381 719 279 719 q 551 680 486 719 q 647 569 617 640 q 678 404 678 499 l 678 296 m 226 418 l 514 418 q 483 540 514 497 q 374 583 453 583 q 263 539 296 583 q 226 418 229 494 m 476 907 q 448 834 476 858 q 372 810 419 810 q 295 834 324 810 q 267 907 267 858 q 295 978 267 954 q 371 1003 324 1003 q 448 978 419 1003 q 476 907 476 954 z "},"ē":{"ha":733,"x_min":51,"x_max":678,"o":"m 678 296 l 226 296 q 278 171 229 208 q 440 133 328 133 q 510 137 472 133 q 585 147 549 140 q 647 160 621 153 l 664 14 q 547 -9 613 0 q 414 -18 482 -18 q 224 19 306 -18 q 97 136 142 56 q 51 350 51 217 q 91 565 51 483 q 205 683 131 646 q 381 719 279 719 q 551 680 486 719 q 647 569 617 640 q 678 404 678 499 l 678 296 m 226 418 l 514 418 q 483 540 514 497 q 374 583 453 583 q 263 539 296 583 q 226 418 229 494 m 174 944 l 568 944 l 568 822 l 174 822 l 174 944 z "},"ę":{"ha":733,"x_min":51,"x_max":678,"o":"m 657 -133 l 674 -231 q 627 -246 651 -240 q 576 -251 603 -251 q 479 -224 519 -251 q 439 -140 439 -197 q 455 -76 439 -106 q 494 -24 471 -47 q 543 14 518 -1 l 664 14 q 622 -22 643 -3 q 585 -62 600 -42 q 571 -104 571 -83 q 582 -135 571 -126 q 611 -143 593 -143 q 634 -141 622 -143 q 657 -133 646 -139 m 678 296 l 226 296 q 278 171 229 208 q 440 133 328 133 q 510 137 472 133 q 585 147 549 140 q 647 160 621 153 l 664 14 q 547 -9 613 0 q 414 -18 482 -18 q 224 19 306 -18 q 97 136 142 56 q 51 350 51 217 q 91 565 51 483 q 205 683 131 646 q 381 719 279 719 q 551 680 486 719 q 647 569 617 640 q 678 404 678 499 l 678 296 m 226 418 l 514 418 q 483 540 514 497 q 374 583 453 583 q 263 539 296 583 q 226 418 229 494 z "},"ǽ":{"ha":1118,"x_min":39,"x_max":1064,"o":"m 103 557 l 94 692 q 200 710 140 703 q 317 718 260 718 q 456 699 396 718 q 551 636 515 679 q 643 699 588 679 q 768 718 699 718 q 938 679 874 718 q 1033 569 1003 640 q 1064 404 1064 499 l 1064 296 l 614 296 q 637 202 617 238 q 703 151 657 167 q 826 135 749 135 q 896 138 858 135 q 970 148 933 142 q 1033 161 1007 154 l 1049 15 q 932 -8 997 1 q 799 -17 867 -17 q 684 -3 736 -17 q 592 39 632 11 q 467 1 536 19 q 326 -17 397 -17 q 176 5 240 -17 q 75 78 111 26 q 39 217 39 129 q 75 342 39 296 q 172 408 111 389 q 307 428 233 428 q 378 425 343 428 q 449 415 414 422 l 449 481 q 414 560 449 538 q 306 582 379 582 q 202 574 257 582 q 103 557 147 567 m 615 418 l 899 418 q 869 539 899 496 q 760 582 839 582 q 649 538 683 582 q 615 418 615 493 m 481 133 q 461 209 469 161 q 449 300 453 257 q 393 306 421 304 q 339 308 365 308 q 240 285 276 308 q 204 208 204 263 q 239 133 204 156 q 333 110 274 110 q 413 117 376 110 q 481 133 449 124 m 582 1014 l 768 1014 l 596 790 l 464 790 l 582 1014 z "},"ğ":{"ha":781,"x_min":53,"x_max":694,"o":"m 524 -12 l 524 13 q 447 0 489 6 q 368 -6 404 -6 q 203 30 275 -6 q 92 146 132 65 q 53 360 53 226 q 94 568 53 489 q 211 683 136 647 q 388 719 286 719 q 547 706 465 719 q 694 668 628 692 l 694 14 q 651 -163 694 -100 q 532 -252 608 -226 q 354 -278 456 -278 q 224 -267 289 -278 q 117 -243 158 -256 l 133 -101 q 197 -117 161 -110 q 272 -128 232 -124 q 347 -133 311 -133 q 479 -105 435 -133 q 524 -12 524 -76 m 524 560 q 458 571 493 567 q 392 575 424 575 q 300 555 338 575 q 244 488 263 535 q 225 357 225 440 q 264 189 225 239 q 388 139 303 139 q 453 144 421 139 q 524 158 485 149 l 524 560 m 181 974 l 317 974 q 340 910 318 929 q 400 890 361 890 q 460 910 439 890 q 483 974 482 929 l 618 974 q 556 822 614 865 q 400 778 497 778 q 244 822 303 778 q 181 974 186 865 z "},"ĝ":{"ha":781,"x_min":53,"x_max":694,"o":"m 524 -12 l 524 13 q 447 0 489 6 q 368 -6 404 -6 q 203 30 275 -6 q 92 146 132 65 q 53 360 53 226 q 94 568 53 489 q 211 683 136 647 q 388 719 286 719 q 547 706 465 719 q 694 668 628 692 l 694 14 q 651 -163 694 -100 q 532 -252 608 -226 q 354 -278 456 -278 q 224 -267 289 -278 q 117 -243 158 -256 l 133 -101 q 197 -117 161 -110 q 272 -128 232 -124 q 347 -133 311 -133 q 479 -105 435 -133 q 524 -12 524 -76 m 524 560 q 458 571 493 567 q 392 575 424 575 q 300 555 338 575 q 244 488 263 535 q 225 357 225 440 q 264 189 225 239 q 388 139 303 139 q 453 144 421 139 q 524 158 485 149 l 524 560 m 325 1014 l 474 1014 l 622 790 l 474 790 l 400 918 l 325 790 l 176 790 l 325 1014 z "},"ģ":{"ha":781,"x_min":53,"x_max":694,"o":"m 524 -12 l 524 13 q 447 0 489 6 q 368 -6 404 -6 q 203 30 275 -6 q 92 146 132 65 q 53 360 53 226 q 94 568 53 489 q 211 683 136 647 q 388 719 286 719 q 547 706 465 719 q 694 668 628 692 l 694 14 q 651 -163 694 -100 q 532 -252 608 -226 q 354 -278 456 -278 q 224 -267 289 -278 q 117 -243 158 -256 l 133 -101 q 197 -117 161 -110 q 272 -128 232 -124 q 347 -133 311 -133 q 479 -105 435 -133 q 524 -12 524 -76 m 524 560 q 458 571 493 567 q 392 575 424 575 q 300 555 338 575 q 244 488 263 535 q 225 357 225 440 q 264 189 225 239 q 388 139 303 139 q 453 144 421 139 q 524 158 485 149 l 524 560 m 428 1006 l 599 1006 l 461 808 l 335 808 l 428 1006 z "},"ġ":{"ha":781,"x_min":53,"x_max":694,"o":"m 524 -12 l 524 13 q 447 0 489 6 q 368 -6 404 -6 q 203 30 275 -6 q 92 146 132 65 q 53 360 53 226 q 94 568 53 489 q 211 683 136 647 q 388 719 286 719 q 547 706 465 719 q 694 668 628 692 l 694 14 q 651 -163 694 -100 q 532 -252 608 -226 q 354 -278 456 -278 q 224 -267 289 -278 q 117 -243 158 -256 l 133 -101 q 197 -117 161 -110 q 272 -128 232 -124 q 347 -133 311 -133 q 479 -105 435 -133 q 524 -12 524 -76 m 524 560 q 458 571 493 567 q 392 575 424 575 q 300 555 338 575 q 244 488 263 535 q 225 357 225 440 q 264 189 225 239 q 388 139 303 139 q 453 144 421 139 q 524 158 485 149 l 524 560 m 506 907 q 477 834 506 858 q 401 810 449 810 q 324 834 353 810 q 296 907 296 858 q 324 978 296 954 q 400 1003 353 1003 q 477 978 449 1003 q 506 907 506 954 z "},"ħ":{"ha":851,"x_min":25,"x_max":757,"o":"m 522 801 l 25 801 l 25 919 l 522 919 l 522 801 m 314 0 l 142 0 l 142 1014 l 314 1014 l 314 704 q 386 715 350 711 q 458 719 422 719 q 615 697 549 719 q 719 620 682 674 q 757 474 757 567 l 757 0 l 585 0 l 585 451 q 567 526 585 500 q 517 564 549 553 q 444 575 486 575 q 377 571 414 575 q 314 560 340 567 l 314 0 z "},"ĥ":{"ha":782,"x_min":86,"x_max":701,"o":"m 258 0 l 86 0 l 86 1014 l 258 1014 l 258 704 q 331 715 294 711 q 403 719 367 719 q 560 697 493 719 q 664 620 626 674 q 701 474 701 567 l 701 0 l 529 0 l 529 451 q 511 526 529 500 q 462 564 493 553 q 389 575 431 575 q 322 571 358 575 q 258 560 285 567 l 258 0 m 319 1300 l 468 1300 l 617 1076 l 468 1076 l 394 1204 l 319 1076 l 171 1076 l 319 1300 z "},"í":{"ha":344,"x_min":78,"x_max":382,"o":"m 86 703 l 258 703 l 258 0 l 86 0 l 86 703 m 196 1014 l 382 1014 l 210 790 l 78 790 l 196 1014 z "},"î":{"ha":346,"x_min":-49,"x_max":397,"o":"m 86 703 l 258 703 l 258 0 l 86 0 l 86 703 m 100 1014 l 249 1014 l 397 790 l 249 790 l 175 918 l 100 790 l -49 790 l 100 1014 z "},"ï":{"ha":344,"x_min":-39,"x_max":389,"o":"m 86 703 l 258 703 l 258 0 l 86 0 l 86 703 m 139 908 q 114 839 139 863 q 49 815 89 815 q -15 839 10 815 q -39 908 -39 863 q -15 978 -39 954 q 49 1001 10 1001 q 114 978 89 1001 q 139 908 139 954 m 389 908 q 364 839 389 863 q 299 815 339 815 q 235 839 260 815 q 211 908 211 863 q 235 978 211 954 q 299 1001 260 1001 q 364 978 339 1001 q 389 908 389 954 z "},"ì":{"ha":344,"x_min":-43,"x_max":261,"o":"m 86 703 l 258 703 l 258 0 l 86 0 l 86 703 m -43 1014 l 144 1014 l 261 790 l 131 790 l -43 1014 z "},"ĭ":{"ha":344,"x_min":-44,"x_max":393,"o":"m 86 703 l 258 703 l 258 0 l 86 0 l 86 703 m -44 974 l 92 974 q 115 910 93 929 q 175 890 136 890 q 235 910 214 890 q 258 974 257 929 l 393 974 q 331 822 389 865 q 175 778 272 778 q 19 822 78 778 q -44 974 -39 865 z "},"ī":{"ha":344,"x_min":-22,"x_max":372,"o":"m 86 703 l 258 703 l 258 0 l 86 0 l 86 703 m -22 944 l 372 944 l 372 822 l -22 822 l -22 944 z "},"į":{"ha":344,"x_min":51,"x_max":318,"o":"m 86 703 l 258 703 l 258 0 l 86 0 l 86 703 m 278 914 q 249 841 278 865 q 172 817 221 817 q 98 841 126 817 q 69 914 69 865 q 98 986 69 963 q 172 1010 126 1010 q 249 986 221 1010 q 278 914 278 963 m 301 -143 l 318 -242 q 262 -258 292 -251 q 200 -265 232 -265 q 94 -237 138 -265 q 51 -149 51 -208 q 78 -61 51 -100 q 139 0 106 -22 l 258 0 q 208 -53 232 -22 q 183 -112 183 -83 q 197 -148 183 -137 q 235 -158 211 -158 q 267 -155 251 -158 q 301 -143 283 -151 z "},"ĩ":{"ha":344,"x_min":-68,"x_max":417,"o":"m 86 703 l 258 703 l 258 0 l 86 0 l 86 703 m 46 810 l -68 856 q -20 950 -54 911 q 75 989 14 989 q 141 974 110 989 q 199 945 172 960 q 244 931 225 931 q 283 949 272 931 q 301 992 293 967 l 417 949 q 361 849 396 888 q 269 810 326 810 q 207 825 238 810 q 150 856 176 840 q 104 871 124 871 q 65 851 76 871 q 46 810 53 832 z "},"ĵ":{"ha":343,"x_min":-68,"x_max":388,"o":"m 88 703 l 260 703 l 260 104 q 247 -12 260 39 q 204 -108 233 -64 q 128 -192 175 -151 q 15 -276 82 -233 l -68 -149 q 8 -83 -22 -111 q 56 -30 38 -56 q 81 28 74 -4 q 88 103 88 60 l 88 703 m 90 1014 l 239 1014 l 388 790 l 239 790 l 165 918 l 90 790 l -58 790 l 90 1014 z "},"ķ":{"ha":747,"x_min":86,"x_max":718,"o":"m 86 1014 l 258 1014 l 258 394 l 522 703 l 704 703 l 463 417 q 587 352 536 403 q 660 211 638 301 l 718 0 l 535 0 l 483 193 q 430 273 468 251 q 344 300 392 294 l 258 224 l 258 0 l 86 0 l 86 1014 m 321 -64 l 492 -64 l 354 -261 l 228 -261 l 321 -64 z "},"ĸ":{"ha":747,"x_min":86,"x_max":718,"o":"m 86 703 l 258 703 l 258 394 l 522 703 l 704 703 l 463 417 q 587 352 536 403 q 660 211 638 301 l 718 0 l 535 0 l 483 193 q 430 273 468 251 q 344 300 392 294 l 258 224 l 258 0 l 86 0 l 86 703 z "},"ĺ":{"ha":399,"x_min":86,"x_max":415,"o":"m 86 1014 l 258 1014 l 258 0 l 86 0 l 86 1014 m 229 1289 l 415 1289 l 243 1065 l 111 1065 l 229 1289 z "},"ľ":{"ha":563,"x_min":86,"x_max":557,"o":"m 86 1014 l 258 1014 l 258 0 l 86 0 l 86 1014 m 374 1014 l 557 1014 l 444 718 l 311 718 l 374 1014 z "},"ļ":{"ha":346,"x_min":-8,"x_max":258,"o":"m 86 1014 l 258 1014 l 258 0 l 86 0 l 86 1014 m 85 -64 l 256 -64 l 118 -261 l -8 -261 l 85 -64 z "},"ŀ":{"ha":586,"x_min":86,"x_max":558,"o":"m 86 1014 l 258 1014 l 258 0 l 86 0 l 86 1014 m 558 475 q 530 403 558 428 q 454 379 501 379 q 379 403 407 379 q 351 475 351 428 q 380 547 351 522 q 454 571 408 571 q 530 547 501 571 q 558 475 558 522 z "},"ñ":{"ha":779,"x_min":86,"x_max":701,"o":"m 258 0 l 86 0 l 86 668 q 222 703 140 686 q 393 719 304 719 q 555 697 486 719 q 663 620 624 674 q 701 474 701 567 l 701 0 l 529 0 l 529 451 q 511 526 529 500 q 462 564 493 553 q 389 575 431 575 q 322 571 358 575 q 258 560 285 567 l 258 0 m 256 810 l 142 856 q 190 950 156 911 q 285 989 224 989 q 351 974 319 989 q 408 945 382 960 q 454 931 435 931 q 492 949 482 931 q 511 992 503 967 l 626 949 q 571 849 606 888 q 479 810 536 810 q 417 825 447 810 q 360 856 386 840 q 314 871 333 871 q 274 851 286 871 q 256 810 263 832 z "},"ń":{"ha":779,"x_min":86,"x_max":701,"o":"m 258 0 l 86 0 l 86 668 q 222 703 140 686 q 393 719 304 719 q 555 697 486 719 q 663 620 624 674 q 701 474 701 567 l 701 0 l 529 0 l 529 451 q 511 526 529 500 q 462 564 493 553 q 389 575 431 575 q 322 571 358 575 q 258 560 285 567 l 258 0 m 394 1014 l 581 1014 l 408 790 l 276 790 l 394 1014 z "},"ň":{"ha":779,"x_min":86,"x_max":701,"o":"m 258 0 l 86 0 l 86 668 q 222 703 140 686 q 393 719 304 719 q 555 697 486 719 q 663 620 624 674 q 701 474 701 567 l 701 0 l 529 0 l 529 451 q 511 526 529 500 q 462 564 493 553 q 389 575 431 575 q 322 571 358 575 q 258 560 285 567 l 258 0 m 310 790 l 161 1014 l 310 1014 l 385 886 l 458 1014 l 607 1014 l 458 790 l 310 790 z "},"ņ":{"ha":779,"x_min":86,"x_max":701,"o":"m 258 0 l 86 0 l 86 668 q 222 703 140 686 q 393 719 304 719 q 555 697 486 719 q 663 620 624 674 q 701 474 701 567 l 701 0 l 529 0 l 529 451 q 511 526 529 500 q 462 564 493 553 q 389 575 431 575 q 322 571 358 575 q 258 560 285 567 l 258 0 m 324 -64 l 494 -64 l 357 -261 l 231 -261 l 324 -64 z "},"ŋ":{"ha":779,"x_min":86,"x_max":701,"o":"m 258 0 l 86 0 l 86 668 q 222 703 140 686 q 393 719 304 719 q 555 697 486 719 q 663 620 624 674 q 701 474 701 567 l 701 104 q 688 -12 701 39 q 646 -108 675 -64 q 570 -192 617 -151 q 457 -276 524 -233 l 374 -149 q 449 -83 419 -111 q 497 -30 479 -56 q 522 28 515 -4 q 529 103 529 60 l 529 451 q 511 526 529 500 q 462 564 493 553 q 389 575 431 575 q 322 571 358 575 q 258 560 285 567 l 258 0 z "},"ó":{"ha":782,"x_min":53,"x_max":729,"o":"m 729 350 q 643 71 729 160 q 392 -18 557 -18 q 139 71 225 -18 q 53 350 53 160 q 139 631 53 543 q 392 719 225 719 q 643 631 557 719 q 729 350 729 543 m 557 350 q 518 523 557 471 q 392 575 479 575 q 265 523 304 575 q 225 350 225 471 q 265 180 225 232 q 392 128 304 128 q 518 180 479 128 q 557 350 557 232 m 417 1014 l 603 1014 l 431 790 l 299 790 l 417 1014 z "},"ô":{"ha":782,"x_min":53,"x_max":729,"o":"m 729 350 q 643 71 729 160 q 392 -18 557 -18 q 139 71 225 -18 q 53 350 53 160 q 139 631 53 543 q 392 719 225 719 q 643 631 557 719 q 729 350 729 543 m 557 350 q 518 523 557 471 q 392 575 479 575 q 265 523 304 575 q 225 350 225 471 q 265 180 225 232 q 392 128 304 128 q 518 180 479 128 q 557 350 557 232 m 313 1014 l 461 1014 l 610 790 l 461 790 l 388 918 l 313 790 l 164 790 l 313 1014 z "},"ö":{"ha":782,"x_min":53,"x_max":729,"o":"m 729 350 q 643 71 729 160 q 392 -18 557 -18 q 139 71 225 -18 q 53 350 53 160 q 139 631 53 543 q 392 719 225 719 q 643 631 557 719 q 729 350 729 543 m 557 350 q 518 523 557 471 q 392 575 479 575 q 265 523 304 575 q 225 350 225 471 q 265 180 225 232 q 392 128 304 128 q 518 180 479 128 q 557 350 557 232 m 349 908 q 324 839 349 863 q 258 815 299 815 q 195 839 219 815 q 171 908 171 863 q 195 978 171 954 q 258 1001 219 1001 q 324 978 299 1001 q 349 908 349 954 m 599 908 q 574 839 599 863 q 508 815 549 815 q 445 839 469 815 q 421 908 421 863 q 445 978 421 954 q 508 1001 469 1001 q 574 978 549 1001 q 599 908 599 954 z "},"ò":{"ha":782,"x_min":53,"x_max":729,"o":"m 729 350 q 643 71 729 160 q 392 -18 557 -18 q 139 71 225 -18 q 53 350 53 160 q 139 631 53 543 q 392 719 225 719 q 643 631 557 719 q 729 350 729 543 m 557 350 q 518 523 557 471 q 392 575 479 575 q 265 523 304 575 q 225 350 225 471 q 265 180 225 232 q 392 128 304 128 q 518 180 479 128 q 557 350 557 232 m 171 1014 l 358 1014 l 475 790 l 344 790 l 171 1014 z "},"õ":{"ha":782,"x_min":53,"x_max":729,"o":"m 729 350 q 643 71 729 160 q 392 -18 557 -18 q 139 71 225 -18 q 53 350 53 160 q 139 631 53 543 q 392 719 225 719 q 643 631 557 719 q 729 350 729 543 m 557 350 q 518 523 557 471 q 392 575 479 575 q 265 523 304 575 q 225 350 225 471 q 265 180 225 232 q 392 128 304 128 q 518 180 479 128 q 557 350 557 232 m 254 810 l 140 856 q 188 950 154 911 q 283 989 222 989 q 349 974 318 989 q 407 945 381 960 q 453 931 433 931 q 491 949 481 931 q 510 992 501 967 l 625 949 q 569 849 604 888 q 478 810 535 810 q 415 825 446 810 q 358 856 385 840 q 313 871 332 871 q 273 851 285 871 q 254 810 261 832 z "},"ŏ":{"ha":782,"x_min":53,"x_max":729,"o":"m 729 350 q 643 71 729 160 q 392 -18 557 -18 q 139 71 225 -18 q 53 350 53 160 q 139 631 53 543 q 392 719 225 719 q 643 631 557 719 q 729 350 729 543 m 557 350 q 518 523 557 471 q 392 575 479 575 q 265 523 304 575 q 225 350 225 471 q 265 180 225 232 q 392 128 304 128 q 518 180 479 128 q 557 350 557 232 m 164 974 l 300 974 q 323 910 301 929 q 383 890 344 890 q 444 910 422 890 q 467 974 465 929 l 601 974 q 539 822 597 865 q 383 778 481 778 q 228 822 286 778 q 164 974 169 865 z "},"ő":{"ha":782,"x_min":53,"x_max":729,"o":"m 729 350 q 643 71 729 160 q 392 -18 557 -18 q 139 71 225 -18 q 53 350 53 160 q 139 631 53 543 q 392 719 225 719 q 643 631 557 719 q 729 350 729 543 m 557 350 q 518 523 557 471 q 392 575 479 575 q 265 523 304 575 q 225 350 225 471 q 265 180 225 232 q 392 128 304 128 q 518 180 479 128 q 557 350 557 232 m 274 1014 l 418 1014 l 335 790 l 226 790 l 274 1014 m 482 1014 l 638 1014 l 525 790 l 414 790 l 482 1014 z "},"ō":{"ha":782,"x_min":53,"x_max":729,"o":"m 729 350 q 643 71 729 160 q 392 -18 557 -18 q 139 71 225 -18 q 53 350 53 160 q 139 631 53 543 q 392 719 225 719 q 643 631 557 719 q 729 350 729 543 m 557 350 q 518 523 557 471 q 392 575 479 575 q 265 523 304 575 q 225 350 225 471 q 265 180 225 232 q 392 128 304 128 q 518 180 479 128 q 557 350 557 232 m 186 944 l 581 944 l 581 822 l 186 822 l 186 944 z "},"ǿ":{"ha":783,"x_min":54,"x_max":729,"o":"m 729 350 q 643 72 729 161 q 392 -17 557 -17 q 140 72 226 -17 q 54 350 54 161 q 140 631 54 543 q 392 719 226 719 q 643 631 557 719 q 729 350 729 543 m 561 350 q 522 523 561 471 q 392 575 482 575 q 262 523 303 575 q 221 350 221 471 q 262 180 221 232 q 392 128 303 128 q 522 180 482 128 q 561 350 561 232 m 171 -115 l 56 -49 l 613 817 l 726 750 l 171 -115 m 426 1014 l 613 1014 l 440 790 l 308 790 l 426 1014 z "},"ŕ":{"ha":496,"x_min":86,"x_max":486,"o":"m 472 719 l 472 575 q 360 571 414 575 q 258 558 307 567 l 258 0 l 86 0 l 86 667 q 280 708 181 697 q 472 719 379 719 m 300 1014 l 486 1014 l 314 790 l 182 790 l 300 1014 z "},"ř":{"ha":496,"x_min":67,"x_max":513,"o":"m 472 719 l 472 575 q 360 571 414 575 q 258 558 307 567 l 258 0 l 86 0 l 86 667 q 280 708 181 697 q 472 719 379 719 m 215 790 l 67 1014 l 215 1014 l 290 886 l 364 1014 l 513 1014 l 364 790 l 215 790 z "},"ŗ":{"ha":496,"x_min":-11,"x_max":472,"o":"m 472 719 l 472 575 q 360 571 414 575 q 258 558 307 567 l 258 0 l 86 0 l 86 667 q 280 708 181 697 q 472 719 379 719 m 82 -64 l 253 -64 l 115 -261 l -11 -261 l 82 -64 z "},"š":{"ha":622,"x_min":47,"x_max":582,"o":"m 549 701 l 539 560 q 453 574 497 569 q 358 579 408 579 q 259 567 290 579 q 228 526 228 556 q 253 481 228 500 q 319 444 279 461 q 405 407 360 426 q 490 360 450 388 q 556 293 531 332 q 582 199 582 254 q 545 74 582 122 q 444 4 508 26 q 296 -18 379 -18 q 154 -6 218 -18 q 47 19 90 6 l 64 158 q 165 137 107 147 q 275 126 222 126 q 369 142 343 126 q 396 189 396 157 q 371 238 396 218 q 306 276 346 258 q 223 313 267 293 q 140 360 179 333 q 75 426 100 388 q 50 522 50 465 q 86 642 50 599 q 190 702 122 685 q 356 719 258 719 q 463 714 413 719 q 549 701 513 708 m 250 790 l 101 1014 l 250 1014 l 325 886 l 399 1014 l 547 1014 l 399 790 l 250 790 z "},"ś":{"ha":622,"x_min":47,"x_max":582,"o":"m 549 701 l 539 560 q 453 574 497 569 q 358 579 408 579 q 259 567 290 579 q 228 526 228 556 q 253 481 228 500 q 319 444 279 461 q 405 407 360 426 q 490 360 450 388 q 556 293 531 332 q 582 199 582 254 q 545 74 582 122 q 444 4 508 26 q 296 -18 379 -18 q 154 -6 218 -18 q 47 19 90 6 l 64 158 q 165 137 107 147 q 275 126 222 126 q 369 142 343 126 q 396 189 396 157 q 371 238 396 218 q 306 276 346 258 q 223 313 267 293 q 140 360 179 333 q 75 426 100 388 q 50 522 50 465 q 86 642 50 599 q 190 702 122 685 q 356 719 258 719 q 463 714 413 719 q 549 701 513 708 m 335 1014 l 521 1014 l 349 790 l 217 790 l 335 1014 z "},"ş":{"ha":622,"x_min":47,"x_max":582,"o":"m 549 701 l 539 560 q 453 574 497 569 q 358 579 408 579 q 259 567 290 579 q 228 526 228 556 q 253 481 228 500 q 319 444 279 461 q 405 407 360 426 q 490 360 450 388 q 556 293 531 332 q 582 199 582 254 q 545 74 582 122 q 444 4 508 26 q 296 -18 379 -18 q 154 -6 218 -18 q 47 19 90 6 l 64 158 q 165 137 107 147 q 275 126 222 126 q 369 142 343 126 q 396 189 396 157 q 371 238 396 218 q 306 276 346 258 q 223 313 267 293 q 140 360 179 333 q 75 426 100 388 q 50 522 50 465 q 86 642 50 599 q 190 702 122 685 q 356 719 258 719 q 463 714 413 719 q 549 701 513 708 m 256 -54 l 374 -54 q 407 -106 393 -78 q 421 -165 421 -135 q 388 -251 421 -219 q 276 -282 354 -282 q 213 -276 246 -282 q 151 -261 179 -271 l 169 -162 q 205 -170 183 -167 q 242 -174 226 -174 q 278 -165 268 -174 q 288 -135 288 -156 q 278 -94 288 -115 q 256 -54 268 -72 z "},"ŝ":{"ha":622,"x_min":47,"x_max":582,"o":"m 549 701 l 539 560 q 453 574 497 569 q 358 579 408 579 q 259 567 290 579 q 228 526 228 556 q 253 481 228 500 q 319 444 279 461 q 405 407 360 426 q 490 360 450 388 q 556 293 531 332 q 582 199 582 254 q 545 74 582 122 q 444 4 508 26 q 296 -18 379 -18 q 154 -6 218 -18 q 47 19 90 6 l 64 158 q 165 137 107 147 q 275 126 222 126 q 369 142 343 126 q 396 189 396 157 q 371 238 396 218 q 306 276 346 258 q 223 313 267 293 q 140 360 179 333 q 75 426 100 388 q 50 522 50 465 q 86 642 50 599 q 190 702 122 685 q 356 719 258 719 q 463 714 413 719 q 549 701 513 708 m 250 1014 l 399 1014 l 547 790 l 399 790 l 325 918 l 250 790 l 101 790 l 250 1014 z "},"ș":{"ha":622,"x_min":47,"x_max":582,"o":"m 549 701 l 539 560 q 453 574 497 569 q 358 579 408 579 q 259 567 290 579 q 228 526 228 556 q 253 481 228 500 q 319 444 279 461 q 405 407 360 426 q 490 360 450 388 q 556 293 531 332 q 582 199 582 254 q 545 74 582 122 q 444 4 508 26 q 296 -18 379 -18 q 154 -6 218 -18 q 47 19 90 6 l 64 158 q 165 137 107 147 q 275 126 222 126 q 369 142 343 126 q 396 189 396 157 q 371 238 396 218 q 306 276 346 258 q 223 313 267 293 q 140 360 179 333 q 75 426 100 388 q 50 522 50 465 q 86 642 50 599 q 190 702 122 685 q 356 719 258 719 q 463 714 413 719 q 549 701 513 708 m 218 -64 l 389 -64 l 251 -261 l 125 -261 l 218 -64 z "},"ţ":{"ha":546,"x_min":25,"x_max":504,"o":"m 164 860 l 304 860 l 304 703 l 497 703 l 497 560 l 304 560 l 304 203 q 331 149 304 164 q 393 135 357 135 q 449 139 421 135 q 499 149 478 143 l 504 6 q 431 -12 469 -6 q 354 -18 392 -18 q 192 33 253 -18 q 132 190 132 85 l 132 560 l 25 560 l 25 703 l 132 703 l 164 860 m 207 -64 l 378 -64 l 240 -261 l 114 -261 l 207 -64 z "},"ț":{"ha":546,"x_min":25,"x_max":504,"o":"m 164 860 l 304 860 l 304 703 l 497 703 l 497 560 l 304 560 l 304 203 q 331 149 304 164 q 393 135 357 135 q 449 139 421 135 q 499 149 478 143 l 504 6 q 431 -12 469 -6 q 354 -18 392 -18 q 192 33 253 -18 q 132 190 132 85 l 132 560 l 25 560 l 25 703 l 132 703 l 164 860 m 207 -64 l 378 -64 l 240 -261 l 114 -261 l 207 -64 z "},"ŧ":{"ha":551,"x_min":29,"x_max":508,"o":"m 29 306 l 29 432 l 465 432 l 465 306 l 29 306 m 168 860 l 308 860 l 308 703 l 501 703 l 501 560 l 308 560 l 308 203 q 335 149 308 164 q 397 135 361 135 q 453 139 425 135 q 503 149 482 143 l 508 6 q 435 -12 474 -6 q 358 -18 396 -18 q 197 33 257 -18 q 136 190 136 85 l 136 560 l 29 560 l 29 703 l 136 703 l 168 860 z "},"ť":{"ha":568,"x_min":25,"x_max":583,"o":"m 422 1014 l 583 1014 l 476 776 l 365 776 l 422 1014 m 164 860 l 304 860 l 304 703 l 497 703 l 497 560 l 304 560 l 304 203 q 331 149 304 164 q 393 135 357 135 q 449 139 421 135 q 499 149 478 143 l 504 6 q 431 -12 469 -6 q 354 -18 392 -18 q 192 33 253 -18 q 132 190 132 85 l 132 560 l 25 560 l 25 703 l 132 703 l 164 860 z "},"ú":{"ha":764,"x_min":76,"x_max":679,"o":"m 507 703 l 679 703 l 679 35 q 547 -1 626 17 q 382 -18 467 -18 q 222 5 290 -18 q 115 82 153 28 q 76 228 76 136 l 76 703 l 249 703 l 249 251 q 267 176 249 203 q 316 138 285 149 q 386 126 347 126 q 449 132 414 126 q 507 143 483 138 l 507 703 m 399 1014 l 585 1014 l 413 790 l 281 790 l 399 1014 z "},"û":{"ha":764,"x_min":76,"x_max":679,"o":"m 507 703 l 679 703 l 679 35 q 547 -1 626 17 q 382 -18 467 -18 q 222 5 290 -18 q 115 82 153 28 q 76 228 76 136 l 76 703 l 249 703 l 249 251 q 267 176 249 203 q 316 138 285 149 q 386 126 347 126 q 449 132 414 126 q 507 143 483 138 l 507 703 m 307 1014 l 456 1014 l 604 790 l 456 790 l 382 918 l 307 790 l 158 790 l 307 1014 z "},"ü":{"ha":764,"x_min":76,"x_max":679,"o":"m 507 703 l 679 703 l 679 35 q 547 -1 626 17 q 382 -18 467 -18 q 222 5 290 -18 q 115 82 153 28 q 76 228 76 136 l 76 703 l 249 703 l 249 251 q 267 176 249 203 q 316 138 285 149 q 386 126 347 126 q 449 132 414 126 q 507 143 483 138 l 507 703 m 353 908 q 328 839 353 863 q 263 815 303 815 q 199 839 224 815 q 175 908 175 863 q 199 978 175 954 q 263 1001 224 1001 q 328 978 303 1001 q 353 908 353 954 m 603 908 q 578 839 603 863 q 513 815 553 815 q 449 839 474 815 q 425 908 425 863 q 449 978 425 954 q 513 1001 474 1001 q 578 978 553 1001 q 603 908 603 954 z "},"ù":{"ha":764,"x_min":76,"x_max":679,"o":"m 507 703 l 679 703 l 679 35 q 547 -1 626 17 q 382 -18 467 -18 q 222 5 290 -18 q 115 82 153 28 q 76 228 76 136 l 76 703 l 249 703 l 249 251 q 267 176 249 203 q 316 138 285 149 q 386 126 347 126 q 449 132 414 126 q 507 143 483 138 l 507 703 m 160 1014 l 347 1014 l 464 790 l 333 790 l 160 1014 z "},"ŭ":{"ha":764,"x_min":76,"x_max":679,"o":"m 507 703 l 679 703 l 679 35 q 547 -1 626 17 q 382 -18 467 -18 q 222 5 290 -18 q 115 82 153 28 q 76 228 76 136 l 76 703 l 249 703 l 249 251 q 267 176 249 203 q 316 138 285 149 q 386 126 347 126 q 449 132 414 126 q 507 143 483 138 l 507 703 m 165 974 l 301 974 q 324 910 303 929 q 385 890 346 890 q 445 910 424 890 q 468 974 467 929 l 603 974 q 540 822 599 865 q 385 778 482 778 q 229 822 288 778 q 165 974 171 865 z "},"ű":{"ha":764,"x_min":76,"x_max":679,"o":"m 507 703 l 679 703 l 679 35 q 547 -1 626 17 q 382 -18 467 -18 q 222 5 290 -18 q 115 82 153 28 q 76 228 76 136 l 76 703 l 249 703 l 249 251 q 267 176 249 203 q 316 138 285 149 q 386 126 347 126 q 449 132 414 126 q 507 143 483 138 l 507 703 m 278 1014 l 422 1014 l 339 790 l 231 790 l 278 1014 m 486 1014 l 642 1014 l 529 790 l 418 790 l 486 1014 z "},"ū":{"ha":764,"x_min":76,"x_max":679,"o":"m 507 703 l 679 703 l 679 35 q 547 -1 626 17 q 382 -18 467 -18 q 222 5 290 -18 q 115 82 153 28 q 76 228 76 136 l 76 703 l 249 703 l 249 251 q 267 176 249 203 q 316 138 285 149 q 386 126 347 126 q 449 132 414 126 q 507 143 483 138 l 507 703 m 186 944 l 581 944 l 581 822 l 186 822 l 186 944 z "},"ų":{"ha":764,"x_min":76,"x_max":682,"o":"m 665 -110 l 682 -207 q 631 -224 658 -218 q 572 -231 603 -231 q 478 -203 517 -231 q 440 -121 440 -176 q 458 -58 440 -86 q 503 -6 476 -29 q 558 35 531 17 l 679 35 q 632 -3 657 17 q 590 -44 607 -24 q 572 -87 572 -65 q 583 -115 572 -107 q 613 -122 594 -122 q 640 -119 628 -122 q 665 -110 651 -115 m 507 703 l 679 703 l 679 35 q 547 -1 626 17 q 382 -18 467 -18 q 222 5 290 -18 q 115 82 153 28 q 76 228 76 136 l 76 703 l 249 703 l 249 251 q 267 176 249 203 q 316 138 285 149 q 386 126 347 126 q 449 132 414 126 q 507 143 483 138 l 507 703 z "},"ů":{"ha":764,"x_min":76,"x_max":679,"o":"m 507 703 l 679 703 l 679 35 q 547 -1 626 17 q 382 -18 467 -18 q 222 5 290 -18 q 115 82 153 28 q 76 228 76 136 l 76 703 l 249 703 l 249 251 q 267 176 249 203 q 316 138 285 149 q 386 126 347 126 q 449 132 414 126 q 507 143 483 138 l 507 703 m 376 958 q 334 947 350 958 q 318 907 318 935 q 334 868 318 881 q 376 856 350 856 q 418 868 403 856 q 433 907 433 881 q 418 947 433 935 q 376 958 403 958 m 376 1042 q 494 1009 449 1042 q 540 907 540 976 q 494 805 540 838 q 376 772 449 772 q 258 805 304 772 q 213 907 213 838 q 258 1009 213 976 q 376 1042 304 1042 z "},"ũ":{"ha":764,"x_min":76,"x_max":679,"o":"m 507 703 l 679 703 l 679 35 q 547 -1 626 17 q 382 -18 467 -18 q 222 5 290 -18 q 115 82 153 28 q 76 228 76 136 l 76 703 l 249 703 l 249 251 q 267 176 249 203 q 316 138 285 149 q 386 126 347 126 q 449 132 414 126 q 507 143 483 138 l 507 703 m 247 810 l 133 856 q 181 950 147 911 q 276 989 215 989 q 342 974 311 989 q 400 945 374 960 q 446 931 426 931 q 484 949 474 931 q 503 992 494 967 l 618 949 q 563 849 597 888 q 471 810 528 810 q 408 825 439 810 q 351 856 378 840 q 306 871 325 871 q 266 851 278 871 q 247 810 254 832 z "},"ẃ":{"ha":1093,"x_min":25,"x_max":1054,"o":"m 638 703 l 792 182 q 853 415 829 289 q 890 703 878 540 l 1054 703 q 1024 467 1044 583 q 971 235 1004 351 q 889 0 938 119 l 699 0 l 550 515 l 400 0 l 194 0 l 25 703 l 214 703 l 318 185 l 464 703 l 638 703 m 561 1014 l 747 1014 l 575 790 l 443 790 l 561 1014 z "},"ŵ":{"ha":1093,"x_min":25,"x_max":1054,"o":"m 638 703 l 792 182 q 853 415 829 289 q 890 703 878 540 l 1054 703 q 1024 467 1044 583 q 971 235 1004 351 q 889 0 938 119 l 699 0 l 550 515 l 400 0 l 194 0 l 25 703 l 214 703 l 318 185 l 464 703 l 638 703 m 476 1014 l 625 1014 l 774 790 l 625 790 l 551 918 l 476 790 l 328 790 l 476 1014 z "},"ẅ":{"ha":1093,"x_min":25,"x_max":1054,"o":"m 638 703 l 792 182 q 853 415 829 289 q 890 703 878 540 l 1054 703 q 1024 467 1044 583 q 971 235 1004 351 q 889 0 938 119 l 699 0 l 550 515 l 400 0 l 194 0 l 25 703 l 214 703 l 318 185 l 464 703 l 638 703 m 515 908 q 490 839 515 863 q 425 815 465 815 q 362 839 386 815 q 338 908 338 863 q 362 978 338 954 q 425 1001 386 1001 q 490 978 465 1001 q 515 908 515 954 m 765 908 q 740 839 765 863 q 675 815 715 815 q 612 839 636 815 q 588 908 588 863 q 612 978 588 954 q 675 1001 636 1001 q 740 978 715 1001 q 765 908 765 954 z "},"ẁ":{"ha":1093,"x_min":25,"x_max":1054,"o":"m 638 703 l 792 182 q 853 415 829 289 q 890 703 878 540 l 1054 703 q 1024 467 1044 583 q 971 235 1004 351 q 889 0 938 119 l 699 0 l 550 515 l 400 0 l 194 0 l 25 703 l 214 703 l 318 185 l 464 703 l 638 703 m 333 1014 l 521 1014 l 638 790 l 507 790 l 333 1014 z "},"ý":{"ha":764,"x_min":76,"x_max":678,"o":"m 507 -12 l 507 8 q 444 0 476 3 q 381 -3 413 -3 q 222 20 290 -3 q 115 96 153 43 q 76 242 76 149 l 76 703 l 249 703 l 249 265 q 266 191 249 218 q 315 153 283 164 q 385 142 346 142 q 448 147 414 142 q 506 157 482 151 l 506 703 l 678 703 l 678 14 q 635 -163 678 -100 q 516 -252 592 -226 q 339 -278 440 -278 q 250 -272 294 -278 q 167 -259 206 -267 q 101 -243 129 -251 l 117 -110 q 180 -125 144 -118 q 255 -137 215 -132 q 332 -142 294 -142 q 463 -112 418 -142 q 507 -12 507 -82 m 394 1014 l 581 1014 l 408 790 l 276 790 l 394 1014 z "},"ÿ":{"ha":764,"x_min":76,"x_max":678,"o":"m 507 -12 l 507 8 q 444 0 476 3 q 381 -3 413 -3 q 222 20 290 -3 q 115 96 153 43 q 76 242 76 149 l 76 703 l 249 703 l 249 265 q 266 191 249 218 q 315 153 283 164 q 385 142 346 142 q 448 147 414 142 q 506 157 482 151 l 506 703 l 678 703 l 678 14 q 635 -163 678 -100 q 516 -252 592 -226 q 339 -278 440 -278 q 250 -272 294 -278 q 167 -259 206 -267 q 101 -243 129 -251 l 117 -110 q 180 -125 144 -118 q 255 -137 215 -132 q 332 -142 294 -142 q 463 -112 418 -142 q 507 -12 507 -82 m 344 908 q 319 839 344 863 q 254 815 294 815 q 191 839 215 815 q 167 908 167 863 q 191 978 167 954 q 254 1001 215 1001 q 319 978 294 1001 q 344 908 344 954 m 594 908 q 569 839 594 863 q 504 815 544 815 q 441 839 465 815 q 417 908 417 863 q 441 978 417 954 q 504 1001 465 1001 q 569 978 544 1001 q 594 908 594 954 z "},"ŷ":{"ha":764,"x_min":76,"x_max":678,"o":"m 507 -12 l 507 8 q 444 0 476 3 q 381 -3 413 -3 q 222 20 290 -3 q 115 96 153 43 q 76 242 76 149 l 76 703 l 249 703 l 249 265 q 266 191 249 218 q 315 153 283 164 q 385 142 346 142 q 448 147 414 142 q 506 157 482 151 l 506 703 l 678 703 l 678 14 q 635 -163 678 -100 q 516 -252 592 -226 q 339 -278 440 -278 q 250 -272 294 -278 q 167 -259 206 -267 q 101 -243 129 -251 l 117 -110 q 180 -125 144 -118 q 255 -137 215 -132 q 332 -142 294 -142 q 463 -112 418 -142 q 507 -12 507 -82 m 303 1014 l 451 1014 l 600 790 l 451 790 l 378 918 l 303 790 l 154 790 l 303 1014 z "},"ỳ":{"ha":764,"x_min":76,"x_max":678,"o":"m 507 -12 l 507 8 q 444 0 476 3 q 381 -3 413 -3 q 222 20 290 -3 q 115 96 153 43 q 76 242 76 149 l 76 703 l 249 703 l 249 265 q 266 191 249 218 q 315 153 283 164 q 385 142 346 142 q 448 147 414 142 q 506 157 482 151 l 506 703 l 678 703 l 678 14 q 635 -163 678 -100 q 516 -252 592 -226 q 339 -278 440 -278 q 250 -272 294 -278 q 167 -259 206 -267 q 101 -243 129 -251 l 117 -110 q 180 -125 144 -118 q 255 -137 215 -132 q 332 -142 294 -142 q 463 -112 418 -142 q 507 -12 507 -82 m 156 1014 l 343 1014 l 460 790 l 329 790 l 156 1014 z "},"ž":{"ha":667,"x_min":40,"x_max":626,"o":"m 54 703 l 613 703 l 613 575 l 267 142 l 626 142 l 626 0 l 40 0 l 40 128 l 393 560 l 54 560 l 54 703 m 261 790 l 113 1014 l 261 1014 l 336 886 l 410 1014 l 558 1014 l 410 790 l 261 790 z "},"ź":{"ha":667,"x_min":40,"x_max":626,"o":"m 54 703 l 613 703 l 613 575 l 267 142 l 626 142 l 626 0 l 40 0 l 40 128 l 393 560 l 54 560 l 54 703 m 346 1014 l 532 1014 l 360 790 l 228 790 l 346 1014 z "},"ż":{"ha":667,"x_min":40,"x_max":626,"o":"m 54 703 l 613 703 l 613 575 l 267 142 l 626 142 l 626 0 l 40 0 l 40 128 l 393 560 l 54 560 l 54 703 m 442 907 q 413 834 442 858 q 338 810 385 810 q 260 834 289 810 q 232 907 232 858 q 260 978 232 954 q 336 1003 289 1003 q 413 978 385 1003 q 442 907 442 954 z "},"´":{"ha":764,"x_min":274,"x_max":578,"o":"m 392 1014 l 578 1014 l 406 790 l 274 790 l 392 1014 z "},"`":{"ha":764,"x_min":164,"x_max":468,"o":"m 164 1014 l 351 1014 l 468 790 l 338 790 l 164 1014 z "},"ˆ":{"ha":764,"x_min":158,"x_max":604,"o":"m 307 1014 l 456 1014 l 604 790 l 456 790 l 382 918 l 307 790 l 158 790 l 307 1014 z "},"ˇ":{"ha":764,"x_min":158,"x_max":604,"o":"m 307 790 l 158 1014 l 307 1014 l 382 886 l 456 1014 l 604 1014 l 456 790 l 307 790 z "},"˜":{"ha":764,"x_min":139,"x_max":624,"o":"m 253 810 l 139 856 q 187 950 153 911 q 282 989 221 989 q 348 974 317 989 q 406 945 379 960 q 451 931 432 931 q 490 949 479 931 q 508 992 500 967 l 624 949 q 568 849 603 888 q 476 810 533 810 q 414 825 444 810 q 357 856 383 840 q 311 871 331 871 q 272 851 283 871 q 253 810 260 832 z "},"¨":{"ha":764,"x_min":168,"x_max":596,"o":"m 346 908 q 321 839 346 863 q 256 815 296 815 q 192 839 217 815 q 168 908 168 863 q 192 978 168 954 q 256 1001 217 1001 q 321 978 296 1001 q 346 908 346 954 m 596 908 q 571 839 596 863 q 506 815 546 815 q 442 839 467 815 q 418 908 418 863 q 442 978 418 954 q 506 1001 467 1001 q 571 978 546 1001 q 596 908 596 954 z "},"˚":{"ha":764,"x_min":218,"x_max":546,"o":"m 382 958 q 340 947 356 958 q 324 907 324 935 q 340 868 324 881 q 382 856 356 856 q 424 868 408 856 q 439 907 439 881 q 424 947 439 935 q 382 958 408 958 m 382 1042 q 500 1009 454 1042 q 546 907 546 976 q 500 805 546 838 q 382 772 454 772 q 264 805 310 772 q 218 907 218 838 q 264 1009 218 976 q 382 1042 310 1042 z "},"¸":{"ha":764,"x_min":235,"x_max":504,"o":"m 339 -53 l 457 -53 q 490 -105 476 -76 q 504 -164 504 -133 q 471 -249 504 -218 q 360 -281 438 -281 q 296 -275 329 -281 q 235 -260 263 -269 l 253 -161 q 288 -169 267 -165 q 325 -172 310 -172 q 361 -163 351 -172 q 371 -133 371 -154 q 361 -92 371 -114 q 339 -53 351 -71 z "},"˝":{"ha":764,"x_min":214,"x_max":625,"o":"m 261 1014 l 406 1014 l 322 790 l 214 790 l 261 1014 m 469 1014 l 625 1014 l 513 790 l 401 790 l 469 1014 z "},"˘":{"ha":764,"x_min":163,"x_max":600,"o":"m 163 974 l 299 974 q 322 910 300 929 q 382 890 343 890 q 442 910 421 890 q 465 974 464 929 l 600 974 q 538 822 596 865 q 382 778 479 778 q 226 822 285 778 q 163 974 168 865 z "},"¯":{"ha":764,"x_min":185,"x_max":579,"o":"m 185 944 l 579 944 l 579 822 l 185 822 l 185 944 z "},"˙":{"ha":764,"x_min":278,"x_max":488,"o":"m 488 907 q 459 834 488 858 q 383 810 431 810 q 306 834 335 810 q 278 907 278 858 q 306 978 278 954 q 382 1003 335 1003 q 459 978 431 1003 q 488 907 488 954 z "},"·":{"ha":444,"x_min":118,"x_max":325,"o":"m 325 375 q 297 303 325 328 q 221 279 268 279 q 146 303 174 279 q 118 375 118 328 q 147 447 118 422 q 221 471 175 471 q 297 447 268 471 q 325 375 325 422 z "},"˛":{"ha":764,"x_min":246,"x_max":513,"o":"m 496 -143 l 513 -242 q 456 -258 486 -251 q 394 -265 426 -265 q 289 -237 332 -265 q 246 -149 246 -208 q 273 -61 246 -100 q 333 0 300 -22 l 453 0 q 402 -53 426 -22 q 378 -112 378 -83 q 392 -148 378 -137 q 429 -158 406 -158 q 462 -155 446 -158 q 496 -143 478 -151 z "},".":{"ha":382,"x_min":86,"x_max":294,"o":"m 294 81 q 266 7 294 32 q 190 -18 238 -18 q 115 7 143 -18 q 86 81 86 32 q 115 152 86 128 q 190 176 143 176 q 266 152 238 176 q 294 81 294 128 z "},",":{"ha":396,"x_min":49,"x_max":317,"o":"m 139 167 l 317 167 l 174 -204 l 49 -204 l 139 167 z "},":":{"ha":382,"x_min":86,"x_max":294,"o":"m 294 81 q 266 7 294 32 q 190 -18 238 -18 q 115 7 143 -18 q 86 81 86 32 q 115 152 86 128 q 190 176 143 176 q 266 152 238 176 q 294 81 294 128 m 294 624 q 266 552 294 576 q 190 528 238 528 q 115 552 143 528 q 86 624 86 576 q 115 695 86 671 q 190 719 143 719 q 266 695 238 719 q 294 624 294 671 z "},";":{"ha":382,"x_min":4,"x_max":294,"o":"m 93 167 l 271 167 l 128 -204 l 4 -204 l 93 167 m 294 624 q 266 552 294 576 q 190 528 238 528 q 115 552 143 528 q 86 624 86 576 q 115 695 86 671 q 190 719 143 719 q 266 695 238 719 q 294 624 294 671 z "},"…":{"ha":1160,"x_min":86,"x_max":1072,"o":"m 294 81 q 266 7 294 32 q 190 -18 238 -18 q 115 7 143 -18 q 86 81 86 32 q 115 152 86 128 q 190 176 143 176 q 266 152 238 176 q 294 81 294 128 m 683 81 q 655 7 683 32 q 579 -18 626 -18 q 503 7 532 -18 q 475 81 475 32 q 503 152 475 128 q 579 176 532 176 q 655 152 626 176 q 683 81 683 128 m 1072 81 q 1044 7 1072 32 q 968 -18 1015 -18 q 893 7 921 -18 q 865 81 865 32 q 894 152 865 128 q 968 176 922 176 q 1044 152 1015 176 q 1072 81 1072 128 z "},"?":{"ha":614,"x_min":57,"x_max":582,"o":"m 386 81 q 358 7 386 32 q 281 -18 329 -18 q 206 7 233 -18 q 178 81 178 32 q 206 152 178 128 q 281 176 235 176 q 358 152 329 176 q 386 81 386 128 m 582 699 q 560 600 582 639 q 505 533 538 561 q 439 477 472 504 q 383 416 406 450 q 361 329 361 382 l 361 257 l 199 257 l 199 361 q 218 460 199 419 q 267 530 238 500 q 326 583 297 560 q 375 632 356 607 q 394 689 394 657 q 359 765 394 742 q 254 789 324 789 q 158 779 207 789 q 75 760 108 769 l 57 911 q 156 931 99 922 q 278 940 214 940 q 433 917 364 940 q 542 842 501 894 q 582 699 582 789 z "},"!":{"ha":419,"x_min":107,"x_max":315,"o":"m 114 924 l 307 924 l 279 260 l 144 260 l 114 924 m 315 81 q 287 7 315 32 q 211 -18 258 -18 q 135 7 164 -18 q 107 81 107 32 q 135 152 107 128 q 211 176 164 176 q 287 152 258 176 q 315 81 315 128 z "},"¿":{"ha":574,"x_min":25,"x_max":550,"o":"m 221 624 q 249 695 221 671 q 325 719 278 719 q 401 695 372 719 q 429 624 429 671 q 401 552 429 576 q 325 528 372 528 q 249 552 278 528 q 221 624 221 576 m 25 4 q 47 103 25 64 q 102 170 69 142 q 167 226 135 199 q 222 288 200 253 q 244 375 244 322 l 244 444 l 407 444 l 407 340 q 388 242 407 282 q 339 174 368 203 q 280 120 310 144 q 231 71 250 96 q 211 14 211 46 q 248 -62 211 -39 q 353 -86 285 -86 q 449 -76 400 -86 q 532 -57 497 -65 l 550 -207 q 451 -228 508 -218 q 328 -237 393 -237 q 174 -215 243 -237 q 65 -138 106 -192 q 25 4 25 -85 z "},"¡":{"ha":419,"x_min":106,"x_max":314,"o":"m 113 -221 l 142 443 l 276 443 l 306 -221 l 113 -221 m 314 624 q 285 552 314 576 q 210 528 257 528 q 134 552 163 528 q 106 624 106 576 q 134 695 106 671 q 210 719 163 719 q 285 695 257 719 q 314 624 314 671 z "},"(":{"ha":499,"x_min":119,"x_max":475,"o":"m 293 -254 q 163 56 207 -106 q 119 381 119 217 q 163 705 119 544 q 293 1014 207 865 l 475 1014 q 344 703 388 863 q 300 381 300 543 q 344 59 300 219 q 475 -254 388 -101 l 293 -254 z "},")":{"ha":499,"x_min":24,"x_max":379,"o":"m 206 -254 l 24 -254 q 154 59 110 -101 q 199 381 199 219 q 154 703 199 543 q 24 1014 110 863 l 206 1014 q 335 705 292 865 q 379 381 379 544 q 335 56 379 217 q 206 -254 292 -106 z "},"{":{"ha":526,"x_min":57,"x_max":501,"o":"m 57 296 l 57 468 q 128 484 107 469 q 149 543 149 499 q 144 625 149 579 q 133 720 139 671 q 128 815 128 769 q 187 979 128 926 q 371 1032 246 1032 q 451 1027 415 1032 q 501 1019 486 1022 l 490 874 q 447 879 476 876 q 399 882 418 882 q 321 862 343 882 q 299 790 299 842 q 305 707 299 753 q 317 615 311 661 q 324 531 324 569 q 297 431 324 465 q 213 382 269 397 q 297 333 269 367 q 324 232 324 299 q 317 148 324 194 q 305 56 311 101 q 299 -29 299 10 q 321 -100 299 -79 q 399 -121 343 -121 q 447 -117 418 -121 q 490 -111 476 -112 l 501 -257 q 451 -264 486 -260 q 371 -268 415 -268 q 187 -215 246 -268 q 128 -53 128 -162 q 133 44 128 -6 q 144 139 139 93 q 149 221 149 185 q 128 280 149 265 q 57 296 107 294 z "},"}":{"ha":528,"x_min":25,"x_max":469,"o":"m 469 296 q 397 280 418 294 q 376 221 376 265 q 382 139 376 185 q 393 44 388 93 q 399 -53 399 -6 q 340 -215 399 -162 q 154 -268 281 -268 q 76 -264 111 -268 q 25 -257 40 -260 l 36 -111 q 78 -117 50 -112 q 128 -121 107 -121 q 206 -100 183 -121 q 228 -29 228 -79 q 222 56 228 10 q 209 147 215 101 q 203 232 203 193 q 230 333 203 299 q 313 382 257 368 q 230 431 257 397 q 203 531 203 464 q 209 615 203 569 q 222 707 215 661 q 228 790 228 753 q 206 862 228 842 q 128 882 183 882 q 78 879 107 882 q 36 874 50 876 l 25 1019 q 76 1027 40 1022 q 154 1032 111 1032 q 340 979 281 1032 q 399 815 399 926 q 393 720 399 769 q 382 625 388 671 q 376 543 376 579 q 397 484 376 499 q 469 468 418 469 l 469 296 z "},"[":{"ha":483,"x_min":136,"x_max":454,"o":"m 136 1014 l 454 1014 l 454 856 l 307 856 l 307 -94 l 454 -94 l 454 -254 l 136 -254 l 136 1014 z "},"]":{"ha":483,"x_min":28,"x_max":347,"o":"m 347 1014 l 347 -254 l 28 -254 l 28 -94 l 175 -94 l 175 856 l 28 856 l 28 1014 l 347 1014 z "},"/":{"ha":665,"x_min":-11,"x_max":663,"o":"m 482 1014 l 663 1014 l 168 -74 l -11 -74 l 482 1014 z "},"\\":{"ha":665,"x_min":1,"x_max":675,"o":"m 1 1014 l 182 1014 l 675 -74 l 497 -74 l 1 1014 z "},"_":{"ha":990,"x_min":72,"x_max":918,"o":"m 72 -35 l 918 -35 l 918 -162 l 72 -162 l 72 -35 z "},"-":{"ha":550,"x_min":83,"x_max":467,"o":"m 83 447 l 467 447 l 467 296 l 83 296 l 83 447 z "},"­":{"ha":0,"x_min":0,"x_max":0,"o":""},"–":{"ha":828,"x_min":83,"x_max":743,"o":"m 83 447 l 743 447 l 743 296 l 83 296 l 83 447 z "},"—":{"ha":1124,"x_min":83,"x_max":1040,"o":"m 83 447 l 1040 447 l 1040 296 l 83 296 l 83 447 z "},"¦":{"ha":443,"x_min":135,"x_max":307,"o":"m 135 1111 l 307 1111 l 307 554 l 135 554 l 135 1111 m 135 279 l 307 279 l 307 -278 l 135 -278 l 135 279 z "},"|":{"ha":443,"x_min":135,"x_max":307,"o":"m 135 1111 l 307 1111 l 307 -278 l 135 -278 l 135 1111 z "},"«":{"ha":869,"x_min":64,"x_max":806,"o":"m 268 656 l 453 656 l 250 376 l 453 97 l 268 97 l 64 376 l 268 656 m 621 656 l 806 656 l 603 376 l 806 97 l 621 97 l 417 376 l 621 656 z "},"»":{"ha":869,"x_min":64,"x_max":804,"o":"m 601 656 l 804 376 l 601 97 l 417 97 l 619 376 l 417 656 l 601 656 m 249 656 l 453 376 l 249 97 l 64 97 l 268 376 l 64 656 l 249 656 z "},"‹":{"ha":517,"x_min":64,"x_max":453,"o":"m 268 656 l 453 656 l 250 376 l 453 97 l 268 97 l 64 376 l 268 656 z "},"›":{"ha":517,"x_min":64,"x_max":453,"o":"m 249 656 l 453 376 l 249 97 l 64 97 l 268 376 l 64 656 l 249 656 z "},"‚":{"ha":347,"x_min":19,"x_max":288,"o":"m 110 167 l 288 167 l 144 -204 l 19 -204 l 110 167 z "},"„":{"ha":615,"x_min":13,"x_max":556,"o":"m 103 167 l 281 167 l 136 -204 l 13 -204 l 103 167 m 378 167 l 556 167 l 413 -204 l 289 -204 l 378 167 z "},"‘":{"ha":360,"x_min":61,"x_max":328,"o":"m 238 553 l 61 553 l 204 924 l 328 924 l 238 553 z "},"“":{"ha":635,"x_min":61,"x_max":603,"o":"m 514 553 l 336 553 l 479 924 l 603 924 l 514 553 m 238 553 l 61 553 l 203 924 l 328 924 l 238 553 z "},"’":{"ha":360,"x_min":32,"x_max":299,"o":"m 121 924 l 299 924 l 156 553 l 32 553 l 121 924 z "},"”":{"ha":635,"x_min":32,"x_max":575,"o":"m 121 924 l 299 924 l 156 553 l 32 553 l 121 924 m 397 924 l 575 924 l 431 553 l 307 553 l 397 924 z "},"'":{"ha":339,"x_min":79,"x_max":260,"o":"m 79 924 l 260 924 l 226 551 l 110 551 l 79 924 z "},"\"":{"ha":592,"x_min":71,"x_max":521,"o":"m 71 924 l 251 924 l 218 551 l 101 551 l 71 924 m 340 924 l 521 924 l 489 551 l 372 551 l 340 924 z "},"•":{"ha":535,"x_min":96,"x_max":439,"o":"m 439 374 q 391 258 439 296 q 267 219 343 219 q 142 258 189 219 q 96 374 96 296 q 142 492 96 451 q 267 532 189 532 q 391 492 343 532 q 439 374 439 451 z "},"№":{"ha":1444,"x_min":106,"x_max":1388,"o":"m 1388 683 q 1335 497 1388 558 q 1175 436 1283 436 q 1015 497 1065 436 q 964 682 964 558 q 1015 872 964 810 q 1175 933 1065 933 q 1335 872 1283 933 q 1388 683 1388 810 m 1251 683 q 1233 777 1251 749 q 1175 806 1215 806 q 1118 777 1136 806 q 1100 682 1100 749 q 1118 591 1100 618 q 1175 564 1136 564 q 1233 592 1215 564 q 1251 683 1251 619 m 1001 393 l 1347 393 l 1347 267 l 1001 267 l 1001 393 m 106 924 l 249 924 l 708 421 l 708 924 l 888 924 l 888 0 l 708 0 l 708 174 l 282 640 l 282 0 l 106 0 l 106 924 z "},"&":{"ha":957,"x_min":51,"x_max":919,"o":"m 496 490 l 661 304 q 701 373 683 331 q 733 463 719 415 l 878 433 q 850 344 868 392 q 809 254 832 297 q 760 182 786 211 l 919 0 l 697 0 l 636 68 q 521 6 588 29 q 369 -17 454 -17 q 199 13 271 -17 q 90 100 128 42 q 51 247 51 158 q 76 358 51 310 q 144 443 101 406 q 242 513 188 481 q 186 582 211 547 q 146 653 161 617 q 131 731 131 690 q 200 888 131 835 q 396 940 269 940 q 591 888 519 940 q 663 733 663 836 q 618 599 663 657 q 496 490 574 542 m 549 175 l 347 400 q 284 359 310 381 q 244 310 258 338 q 231 244 231 283 q 273 148 231 181 q 383 115 315 115 q 475 131 432 115 q 549 175 518 147 m 392 589 q 469 656 440 622 q 497 736 497 690 q 469 802 497 782 q 396 822 440 822 q 329 802 357 822 q 301 736 301 782 q 315 684 301 708 q 349 637 328 660 q 392 589 369 614 z "},"¶":{"ha":958,"x_min":56,"x_max":853,"o":"m 726 924 l 853 924 l 853 -219 l 726 -219 l 726 924 m 417 311 q 146 381 236 311 q 56 618 56 451 q 96 796 56 729 q 216 893 136 863 q 417 924 296 924 l 607 924 l 607 -219 l 479 -219 l 479 313 q 455 312 469 313 q 417 311 440 311 z "},"†":{"ha":632,"x_min":46,"x_max":586,"o":"m 229 924 l 400 924 l 400 693 l 586 693 l 586 551 l 400 551 l 400 206 l 229 206 l 229 551 l 46 551 l 46 693 l 229 693 l 229 924 z "},"‡":{"ha":660,"x_min":60,"x_max":600,"o":"m 60 763 l 243 763 l 243 924 l 414 924 l 414 763 l 600 763 l 600 624 l 414 624 l 414 510 l 600 510 l 600 369 l 414 369 l 414 206 l 243 206 l 243 369 l 60 369 l 60 510 l 243 510 l 243 624 l 60 624 l 60 763 z "},"§":{"ha":733,"x_min":38,"x_max":682,"o":"m 61 369 q 94 484 61 439 q 178 549 126 529 q 108 625 135 581 q 82 738 82 669 q 108 838 82 799 q 178 899 133 876 q 285 931 224 922 q 417 940 346 940 q 534 933 474 940 q 639 918 594 926 l 625 771 q 555 783 592 778 q 481 790 518 788 q 411 792 444 792 q 329 785 365 792 q 273 762 293 778 q 253 715 253 746 q 284 651 253 678 q 364 603 315 625 q 467 558 413 582 q 571 502 522 535 q 651 422 619 469 q 682 301 682 374 q 641 176 682 225 q 543 106 600 128 q 598 36 576 78 q 619 -50 619 -6 q 584 -179 619 -129 q 482 -253 549 -229 q 318 -276 415 -276 q 160 -264 233 -276 q 38 -237 88 -251 l 56 -99 q 170 -124 101 -112 q 308 -136 239 -136 q 410 -118 372 -136 q 447 -53 447 -100 q 419 17 447 -11 q 348 69 392 46 q 254 117 304 93 q 160 174 204 142 q 89 254 117 207 q 61 369 61 301 m 218 383 q 240 330 218 354 q 295 285 261 306 q 368 245 329 265 q 440 204 407 225 q 497 234 476 215 q 517 286 517 253 q 498 346 517 321 q 449 390 479 371 q 383 425 419 408 q 311 460 347 442 q 244 438 269 457 q 218 383 218 419 z "},"*":{"ha":606,"x_min":39,"x_max":567,"o":"m 79 832 l 257 764 l 231 924 l 375 924 l 349 764 l 525 832 l 567 718 l 375 685 l 513 568 l 410 483 l 301 628 l 196 483 l 94 568 l 231 685 l 39 718 l 79 832 z "},"™":{"ha":1006,"x_min":39,"x_max":939,"o":"m 39 924 l 421 924 l 421 824 l 296 824 l 296 508 l 167 508 l 167 824 l 39 824 l 39 924 m 750 596 l 664 596 l 596 743 l 596 508 l 486 508 l 486 924 l 617 924 l 713 722 l 808 924 l 939 924 l 939 508 l 829 508 l 829 743 l 750 596 z "},"®":{"ha":894,"x_min":57,"x_max":838,"o":"m 396 715 l 396 610 q 416 608 404 608 q 439 607 428 607 q 494 617 472 607 q 517 661 517 628 q 498 704 517 693 q 443 715 479 715 l 396 715 m 300 789 l 463 789 q 574 760 535 789 q 613 671 613 732 q 592 605 613 629 q 535 569 571 581 q 575 540 563 560 q 596 496 588 519 l 632 396 l 532 396 l 500 483 q 477 522 490 510 q 435 535 464 535 q 410 535 421 535 q 396 536 399 535 l 396 396 l 300 396 l 300 789 m 838 581 q 736 316 838 408 q 449 224 635 224 q 160 316 263 224 q 57 581 57 408 q 160 847 57 754 q 449 939 263 939 q 736 847 635 939 q 838 581 838 754 m 756 581 q 679 797 756 726 q 449 867 603 867 q 216 797 293 867 q 139 581 139 726 q 216 365 139 436 q 449 294 293 294 q 679 365 603 294 q 756 581 756 436 z "},"©":{"ha":1061,"x_min":64,"x_max":996,"o":"m 996 463 q 876 106 996 228 q 531 -15 757 -15 q 184 106 304 -15 q 64 463 64 228 q 184 819 64 697 q 531 940 304 940 q 876 819 757 940 q 996 463 996 697 m 914 463 q 819 760 914 661 q 531 860 724 860 q 242 760 338 860 q 147 463 147 661 q 242 166 147 265 q 531 67 338 67 q 819 166 724 67 q 914 463 914 265 m 694 715 l 682 606 q 641 613 667 608 q 579 617 615 617 q 508 603 539 617 q 460 555 478 589 q 443 460 443 521 q 478 343 443 378 q 581 308 513 308 q 644 313 618 308 q 690 324 671 318 l 697 215 q 640 201 679 208 q 556 194 601 194 q 427 220 485 194 q 335 304 369 246 q 301 463 301 363 q 337 623 301 565 q 432 703 372 681 q 565 726 492 726 q 642 722 608 726 q 694 715 676 718 z "},"@":{"ha":1238,"x_min":68,"x_max":1174,"o":"m 700 451 q 663 456 682 454 q 624 458 643 458 q 545 426 571 458 q 519 313 519 394 q 531 218 519 251 q 565 173 543 185 q 615 161 586 161 q 665 167 643 161 q 704 182 688 172 q 701 208 703 193 q 700 238 700 222 l 700 451 m 629 -149 q 817 -137 725 -149 q 978 -111 908 -126 l 992 -211 q 833 -242 929 -229 q 628 -256 736 -256 q 362 -213 469 -256 q 190 -94 254 -171 q 97 90 125 -17 q 68 322 68 196 q 101 542 68 442 q 201 716 133 642 q 374 831 268 790 q 628 872 481 872 q 890 833 785 872 q 1057 725 994 793 q 1147 569 1119 657 q 1174 383 1174 481 q 1150 195 1174 276 q 1074 69 1126 114 q 935 25 1022 25 q 820 45 863 25 q 758 88 778 65 q 686 47 732 65 q 581 29 640 29 q 473 56 522 29 q 394 147 424 83 q 365 317 365 210 q 433 519 365 453 q 611 585 500 585 q 735 576 674 585 q 849 549 797 567 l 849 242 q 869 167 849 193 q 936 140 889 140 q 1005 163 979 140 q 1043 239 1031 185 q 1056 388 1056 293 q 1032 546 1056 475 q 958 667 1008 617 q 826 743 907 717 q 628 769 744 769 q 374 716 472 769 q 231 563 276 663 q 186 322 186 463 q 208 119 186 207 q 281 -28 231 32 q 417 -118 331 -87 q 629 -149 503 -149 z "},"ª":{"ha":471,"x_min":46,"x_max":413,"o":"m 294 593 l 294 674 q 267 678 283 676 q 236 679 251 679 q 183 669 204 679 q 163 632 163 660 q 181 597 163 607 q 228 586 199 586 q 263 588 244 586 q 294 593 281 589 m 88 815 l 76 919 q 150 935 110 929 q 239 942 190 942 q 365 903 318 942 q 413 789 413 864 l 413 521 q 335 501 388 514 q 221 489 282 489 q 130 502 169 489 q 68 547 90 515 q 46 632 46 579 q 72 715 46 688 q 140 753 99 743 q 221 764 181 764 q 262 763 243 764 q 294 758 281 761 l 294 783 q 285 813 294 803 q 260 828 276 824 q 219 833 243 833 q 148 828 181 833 q 88 815 115 824 z "},"º":{"ha":522,"x_min":53,"x_max":469,"o":"m 469 714 q 415 543 469 597 q 261 489 361 489 q 107 543 161 489 q 53 714 53 597 q 107 886 53 832 q 261 940 161 940 q 415 886 361 940 q 469 714 469 832 m 346 714 q 323 801 346 779 q 261 822 300 822 q 199 801 222 822 q 176 714 176 779 q 199 628 176 650 q 261 607 222 607 q 323 628 300 607 q 346 714 346 650 z "},"#":{"ha":1006,"x_min":43,"x_max":965,"o":"m 326 924 l 496 924 l 451 693 l 644 693 l 689 924 l 858 924 l 814 693 l 965 693 l 938 543 l 788 543 l 754 372 l 906 372 l 876 222 l 726 222 l 683 0 l 515 0 l 557 222 l 363 222 l 322 0 l 153 0 l 194 222 l 43 222 l 69 372 l 221 372 l 256 543 l 103 543 l 131 693 l 282 693 l 326 924 m 424 543 l 390 372 l 585 372 l 617 543 l 424 543 z "},"€":{"ha":850,"x_min":54,"x_max":797,"o":"m 793 914 q 697 931 754 922 q 582 940 640 940 q 352 892 446 940 q 210 740 258 844 q 163 464 163 635 q 211 182 163 288 q 352 29 260 76 q 578 -18 444 -18 q 697 -7 640 -18 q 797 17 754 4 l 785 169 q 690 150 740 160 q 586 140 639 140 q 450 167 504 140 q 369 265 396 194 q 343 464 343 335 q 370 653 343 582 q 449 755 397 724 q 575 786 500 786 q 679 778 626 786 q 775 760 732 771 l 793 914 m 54 508 l 697 508 l 731 610 l 54 610 l 54 508 m 54 315 l 663 315 l 693 418 l 54 418 l 54 315 z "},"$":{"ha":751,"x_min":64,"x_max":696,"o":"m 339 -18 q 190 -1 258 -15 q 64 28 121 13 l 81 178 q 210 147 146 160 q 354 133 275 133 q 467 156 424 133 q 510 239 510 178 q 485 308 510 279 q 422 358 461 336 q 335 399 382 379 q 240 441 288 418 q 153 495 193 464 q 90 572 114 526 q 65 681 65 617 q 133 862 65 804 q 324 933 201 919 l 324 1035 l 457 1035 l 457 939 q 562 930 510 938 q 656 915 614 922 l 642 765 q 535 781 594 774 q 428 789 476 789 q 297 767 342 789 q 253 689 253 744 q 277 628 253 653 q 340 585 301 604 q 427 549 379 567 q 522 508 475 531 q 608 451 569 485 q 672 369 647 418 q 696 250 696 319 q 640 76 696 139 q 474 -6 583 14 l 474 -124 l 339 -124 l 339 -18 z "},"¥":{"ha":901,"x_min":35,"x_max":861,"o":"m 251 585 l 311 482 l 103 482 l 103 585 l 251 585 m 861 924 l 567 392 l 813 392 l 813 289 l 554 289 l 554 0 l 371 0 l 371 289 l 103 289 l 103 392 l 357 392 l 35 924 l 239 924 l 461 529 l 676 924 l 861 924 m 610 482 l 665 585 l 813 585 l 813 482 l 610 482 z "},"£":{"ha":813,"x_min":56,"x_max":758,"o":"m 181 317 l 190 407 l 61 407 l 61 540 l 204 540 l 217 665 q 269 833 228 774 q 378 917 310 893 q 539 940 447 940 q 659 933 603 940 q 758 918 715 926 l 744 767 q 651 781 700 775 q 558 788 601 788 q 479 778 511 788 q 429 742 447 768 q 406 671 411 717 l 392 540 l 693 540 l 693 407 l 376 407 l 367 311 q 351 240 363 271 q 322 184 340 208 q 276 140 304 160 l 746 140 l 746 0 l 56 0 l 56 119 q 124 156 100 135 q 162 215 149 178 q 181 317 175 253 z "},"¢":{"ha":619,"x_min":51,"x_max":582,"o":"m 576 814 l 558 669 q 490 681 524 676 q 421 686 457 686 q 313 666 357 686 q 247 597 269 646 q 224 461 224 547 q 271 292 224 344 q 426 239 318 239 q 497 245 463 239 q 567 261 532 251 l 582 118 q 519 103 554 110 q 447 94 483 97 l 447 -57 l 313 -57 l 313 100 q 121 210 190 122 q 51 464 51 297 q 119 714 51 629 q 306 821 188 799 l 306 983 l 439 983 l 439 831 q 512 825 475 829 q 576 814 549 821 z "},"₡":{"ha":790,"x_min":71,"x_max":738,"o":"m 324 1074 l 289 842 l 421 842 l 456 1074 l 324 1074 m 560 1074 l 526 857 l 660 857 l 692 1074 l 560 1074 m 536 61 l 403 61 l 378 -111 l 510 -111 l 536 61 m 318 189 l 186 193 l 142 -111 l 274 -111 l 318 189 m 733 914 q 630 932 690 924 q 507 940 569 940 q 268 892 365 940 q 121 740 171 844 q 71 464 71 635 q 121 182 71 288 q 267 29 171 76 q 501 -18 364 -18 q 630 -8 569 -18 q 738 17 690 3 l 724 172 q 620 153 675 163 q 511 143 565 143 q 371 172 426 143 q 288 272 315 201 q 260 464 260 342 q 322 707 260 632 q 500 782 383 782 q 611 775 554 782 q 714 756 668 768 l 733 914 z "},"₮":{"ha":853,"x_min":43,"x_max":808,"o":"m 133 533 l 719 647 l 719 543 l 133 429 l 133 533 m 133 336 l 719 450 l 719 346 l 133 232 l 133 336 m 43 924 l 808 924 l 808 769 l 517 769 l 517 0 l 335 0 l 335 769 l 43 769 l 43 924 z "},"₴":{"ha":821,"x_min":58,"x_max":751,"o":"m 58 506 l 58 608 l 750 608 l 750 506 l 58 506 m 60 314 l 60 415 l 751 415 l 751 314 l 60 314 m 138 915 q 247 931 185 924 q 378 939 310 939 q 558 918 483 939 q 674 850 633 897 q 715 722 715 803 q 690 615 715 663 q 622 528 664 567 q 530 456 579 490 q 433 391 481 422 q 349 326 385 360 q 309 279 322 304 q 296 219 296 254 q 333 153 296 172 q 439 133 369 133 q 583 147 518 133 q 713 178 649 160 l 729 28 q 593 -3 668 11 q 424 -18 518 -18 q 188 42 268 -18 q 108 224 108 101 q 141 347 108 294 q 224 439 174 399 q 332 513 275 479 q 436 578 389 546 q 503 635 478 606 q 529 710 529 664 q 490 772 529 754 q 364 789 451 789 q 257 781 315 789 q 151 765 199 774 l 138 915 z "},"₺":{"ha":842,"x_min":54,"x_max":793,"o":"m 54 579 l 625 692 l 625 588 l 54 474 l 54 579 m 54 381 l 625 494 l 625 390 l 54 276 l 54 381 m 529 0 l 169 0 l 169 924 l 351 924 l 351 154 l 529 154 q 600 166 576 154 q 632 201 624 178 q 640 260 640 225 l 640 297 l 793 297 l 793 260 q 769 117 793 175 q 689 30 746 60 q 529 0 632 0 z "},"₹":{"ha":799,"x_min":69,"x_max":747,"o":"m 632 629 q 603 504 632 556 q 526 421 574 453 q 423 374 479 389 q 314 357 367 358 l 251 343 l 71 343 l 71 489 l 267 489 q 407 521 363 489 q 451 629 451 553 q 407 740 451 710 q 269 769 363 769 l 69 769 l 69 875 l 267 875 q 470 854 389 875 q 592 780 551 833 q 632 629 632 726 m 747 578 l 69 578 l 69 681 l 747 681 l 747 578 m 747 821 l 69 821 l 69 924 l 747 924 l 747 821 m 92 343 l 290 378 q 354 358 328 369 q 403 331 381 347 q 447 290 425 314 q 499 231 469 265 l 685 0 l 494 0 l 351 189 q 280 271 311 240 q 222 317 249 301 q 163 338 194 333 q 92 343 132 343 z "},"₫":{"ha":863,"x_min":61,"x_max":821,"o":"m 88 -86 l 700 -86 l 700 -204 l 88 -204 l 88 -86 m 704 1014 l 704 35 q 556 -3 638 13 q 397 -18 474 -18 q 219 19 294 -18 q 102 135 143 56 q 61 343 61 215 q 101 565 61 482 q 212 683 140 647 q 378 719 283 719 q 455 715 411 719 q 533 703 499 710 l 533 1014 l 704 1014 m 533 143 l 533 557 q 463 570 494 565 q 397 575 431 575 q 273 523 313 575 q 233 346 233 471 q 252 215 233 263 q 308 148 271 168 q 400 128 346 128 q 468 132 433 128 q 533 143 503 136 m 325 801 l 325 919 l 821 919 l 821 801 l 325 801 z "},"₩":{"ha":1381,"x_min":61,"x_max":1322,"o":"m 61 510 l 61 613 l 242 613 l 242 510 l 61 510 m 61 317 l 61 419 l 282 419 l 283 317 l 61 317 m 1118 510 l 1119 613 l 1322 613 l 1322 510 l 1118 510 m 1100 317 l 1101 419 l 1322 419 l 1322 317 l 1100 317 m 482 0 l 306 0 l 82 924 l 271 924 l 419 240 l 608 753 l 761 753 l 957 231 q 1045 542 1008 371 q 1107 924 1082 714 l 1278 924 q 1239 664 1261 788 q 1188 427 1217 540 q 1125 208 1160 314 q 1049 0 1090 101 l 878 0 l 685 544 l 482 0 z "},"₪":{"ha":972,"x_min":88,"x_max":890,"o":"m 249 0 l 88 0 l 88 668 q 216 702 139 685 q 374 719 293 719 q 522 697 458 719 q 620 620 585 674 q 656 474 656 567 l 656 254 l 528 254 l 528 451 q 508 526 528 500 q 451 564 488 553 q 369 575 415 575 q 307 571 342 575 q 249 560 272 567 l 249 0 m 456 449 l 456 143 q 517 133 481 138 q 581 128 553 128 q 657 139 624 128 q 710 177 690 150 q 729 251 729 204 l 729 703 l 890 703 l 890 228 q 852 82 890 136 q 745 5 814 28 q 585 -18 676 -18 q 444 0 513 -18 q 328 35 375 18 l 328 449 l 456 449 z "},"₭":{"ha":968,"x_min":42,"x_max":924,"o":"m 42 442 l 42 543 l 218 543 l 218 442 l 42 442 m 439 444 l 464 543 l 871 543 l 871 444 l 439 444 m 157 924 l 339 924 l 339 475 l 722 924 l 922 924 l 589 532 q 725 444 669 510 q 825 257 781 379 l 924 0 l 721 0 l 647 207 q 597 321 622 279 q 539 381 571 363 q 463 403 507 400 l 339 263 l 339 0 l 157 0 l 157 924 z "},"₱":{"ha":1000,"x_min":54,"x_max":946,"o":"m 54 671 l 54 772 l 260 772 l 260 671 l 54 671 m 54 478 l 54 581 l 261 581 l 261 478 l 54 478 m 738 671 l 738 772 l 946 772 l 946 671 l 738 671 m 738 478 l 738 581 l 946 581 l 946 478 l 738 478 m 350 769 l 350 476 q 413 469 382 471 q 469 467 443 467 q 610 503 565 467 q 656 621 656 540 q 611 738 656 706 q 474 769 567 769 l 350 769 m 168 924 l 474 924 q 675 894 594 924 q 796 799 756 865 q 836 621 836 732 q 794 438 836 507 q 676 340 751 369 q 497 310 600 310 q 426 313 463 310 q 350 322 390 317 l 350 0 l 168 0 l 168 924 z "},"₵":{"ha":788,"x_min":68,"x_max":735,"o":"m 543 846 l 410 846 l 410 1035 l 543 1035 l 543 846 m 408 89 l 542 89 l 542 -124 l 408 -124 l 408 89 m 731 914 l 711 756 q 608 775 665 768 q 497 782 551 782 q 319 707 381 782 q 257 464 257 632 q 285 272 257 342 q 368 172 313 201 q 508 143 424 143 q 617 153 563 143 q 721 172 672 163 l 735 17 q 628 -8 689 3 q 499 -18 567 -18 q 265 29 361 -18 q 118 182 168 76 q 68 464 68 288 q 118 740 68 635 q 265 892 168 844 q 504 940 363 940 q 627 932 567 940 q 731 914 688 924 z "},"₸":{"ha":883,"x_min":60,"x_max":824,"o":"m 60 658 l 824 658 l 824 504 l 532 504 l 532 0 l 351 0 l 351 504 l 60 504 l 60 658 m 824 769 l 60 769 l 60 924 l 824 924 l 824 769 z "},"₼":{"ha":911,"x_min":76,"x_max":836,"o":"m 457 719 q 679 679 596 719 q 799 565 763 639 q 836 390 836 492 l 836 -18 l 653 -18 l 653 381 q 631 481 653 440 q 567 542 610 521 q 456 563 524 563 q 345 542 389 563 q 280 481 301 521 q 258 381 258 440 l 258 -18 l 76 -18 l 76 390 q 114 565 76 492 q 235 679 151 639 q 457 719 318 719 m 390 924 l 524 924 l 524 688 l 524 642 l 524 139 l 390 139 l 390 640 l 390 678 l 390 924 z "},"₽":{"ha":885,"x_min":57,"x_max":829,"o":"m 260 469 l 260 336 l 57 336 l 57 469 l 260 469 m 547 246 l 547 143 l 57 143 l 57 246 l 547 246 m 353 769 l 353 468 l 463 468 q 603 506 558 468 q 649 621 649 543 q 604 738 649 706 q 467 769 560 769 l 353 769 m 171 924 l 467 924 q 669 894 589 924 q 789 799 749 865 q 829 621 829 732 q 787 445 829 507 q 669 359 744 383 q 490 335 593 335 l 353 335 l 353 0 l 171 0 l 171 924 z "},"¤":{"ha":694,"x_min":47,"x_max":647,"o":"m 585 449 q 526 272 585 329 q 347 215 467 215 q 169 272 228 215 q 110 447 110 329 q 169 627 110 569 q 347 685 228 685 q 526 627 467 685 q 585 449 585 569 m 446 449 q 421 533 446 508 q 347 557 396 557 q 274 533 299 557 q 249 447 249 508 q 260 387 249 410 q 293 354 271 364 q 347 344 315 344 q 421 367 396 344 q 446 449 446 390 m 511 757 l 647 757 l 539 603 l 408 607 l 511 757 m 183 757 l 286 607 l 156 603 l 47 757 l 183 757 m 511 143 l 408 293 l 539 297 l 647 143 l 511 143 m 183 143 l 47 143 l 156 297 l 286 293 l 183 143 z "},"°":{"ha":535,"x_min":40,"x_max":494,"o":"m 268 815 q 199 785 218 815 q 181 706 181 754 q 199 626 181 657 q 268 596 218 596 q 336 626 317 596 q 356 706 356 657 q 336 785 356 754 q 268 815 317 815 m 268 939 q 439 876 383 939 q 494 706 494 813 q 439 535 494 597 q 269 472 383 472 q 97 535 154 472 q 40 706 40 597 q 97 876 40 813 q 268 939 154 939 z "},"%":{"ha":1194,"x_min":57,"x_max":1138,"o":"m 378 694 q 367 774 378 746 q 336 815 357 803 q 283 828 315 828 q 231 815 253 828 q 198 774 210 803 q 186 694 186 746 q 198 615 186 644 q 231 574 210 586 q 283 561 253 561 q 336 574 315 561 q 367 615 357 586 q 378 694 378 644 m 510 694 q 449 506 510 564 q 283 449 388 449 q 118 506 179 449 q 57 694 57 564 q 118 883 57 828 q 283 939 179 939 q 449 883 388 939 q 510 694 510 828 m 1006 228 q 994 308 1006 279 q 963 349 983 336 q 911 361 942 361 q 860 349 882 361 q 826 308 838 338 q 814 229 814 279 q 826 149 814 179 q 860 107 838 119 q 911 94 882 94 q 963 107 942 94 q 994 149 983 119 q 1006 228 1006 178 m 1138 228 q 1076 40 1138 97 q 911 -17 1015 -17 q 746 41 807 -17 q 685 229 685 99 q 746 417 685 361 q 911 472 807 472 q 1076 417 1015 472 q 1138 228 1138 361 m 824 924 l 968 924 l 371 0 l 226 0 l 824 924 z "},"‰":{"ha":1724,"x_min":57,"x_max":1665,"o":"m 378 693 q 367 774 378 744 q 335 815 356 803 q 283 828 314 828 q 232 815 254 828 q 198 774 210 803 q 186 694 186 746 q 198 615 186 644 q 232 574 210 586 q 283 561 254 561 q 335 574 314 561 q 367 615 356 586 q 378 693 378 644 m 510 693 q 449 506 510 564 q 283 449 388 449 q 118 506 179 449 q 57 694 57 564 q 118 883 57 828 q 283 939 179 939 q 449 883 388 939 q 510 693 510 828 m 1006 228 q 994 308 1006 279 q 963 349 983 338 q 911 361 942 361 q 860 349 882 361 q 826 309 838 338 q 814 229 814 281 q 826 149 814 179 q 860 107 838 119 q 911 94 882 94 q 963 107 942 94 q 994 149 983 119 q 1006 228 1006 178 m 1138 228 q 1076 40 1138 97 q 911 -17 1015 -17 q 746 41 807 -17 q 685 229 685 99 q 746 417 685 361 q 911 472 807 472 q 1076 417 1015 472 q 1138 228 1138 361 m 1533 228 q 1523 308 1533 279 q 1492 349 1513 338 q 1439 361 1471 361 q 1388 349 1410 361 q 1355 309 1367 338 q 1343 229 1343 281 q 1355 149 1343 179 q 1388 107 1367 119 q 1439 94 1410 94 q 1492 107 1471 94 q 1523 149 1513 119 q 1533 228 1533 178 m 1665 228 q 1604 40 1665 97 q 1439 -17 1543 -17 q 1274 41 1336 -17 q 1213 229 1213 99 q 1274 417 1213 361 q 1439 472 1336 472 q 1604 417 1543 472 q 1665 228 1665 361 m 824 924 l 968 924 l 371 0 l 226 0 l 824 924 z "},"⁄":{"ha":335,"x_min":-206,"x_max":542,"o":"m 390 924 l 542 924 l -54 0 l -206 0 l 390 924 z "},"½":{"ha":1033,"x_min":18,"x_max":1001,"o":"m 18 894 l 154 928 l 253 928 l 253 447 l 133 447 l 133 810 l 18 782 l 18 894 m 686 924 l 838 924 l 242 0 l 90 0 l 686 924 m 679 365 l 668 474 q 729 486 693 481 q 804 492 765 492 q 899 478 856 492 q 968 433 942 464 q 994 350 994 401 q 981 281 994 313 q 938 218 967 250 q 863 144 910 186 l 821 110 l 1001 110 l 1001 0 l 656 0 l 656 104 l 717 157 q 810 242 776 210 q 856 295 843 274 q 869 336 869 317 q 849 371 869 361 q 793 381 828 381 q 731 376 763 381 q 679 365 699 371 z "},"¼":{"ha":990,"x_min":18,"x_max":968,"o":"m 18 894 l 154 928 l 253 928 l 253 447 l 133 447 l 133 810 l 18 782 l 18 894 m 686 924 l 838 924 l 242 0 l 90 0 l 686 924 m 778 481 l 911 481 l 911 181 l 968 181 l 968 81 l 911 81 l 911 0 l 797 0 l 797 81 l 561 81 l 560 174 l 778 481 m 668 163 l 610 181 l 797 181 l 797 419 l 838 399 l 668 163 z "},"¾":{"ha":1094,"x_min":26,"x_max":1072,"o":"m 31 928 l 346 928 l 346 826 l 240 731 l 249 729 q 308 710 279 725 q 355 667 336 696 q 374 593 374 639 q 320 475 374 514 q 172 436 267 436 q 93 442 129 436 q 26 457 57 449 l 35 560 q 99 547 65 553 q 165 540 133 540 q 227 553 204 540 q 250 592 250 565 q 226 632 250 621 q 161 643 201 643 l 106 643 l 106 725 l 204 821 l 31 821 l 31 928 m 789 924 l 940 924 l 344 0 l 193 0 l 789 924 m 882 481 l 1015 481 l 1015 181 l 1072 181 l 1072 81 l 1015 81 l 1015 0 l 901 0 l 901 81 l 665 81 l 664 174 l 882 481 m 772 163 l 714 181 l 901 181 l 901 419 l 942 399 l 772 163 z "},"+":{"ha":756,"x_min":46,"x_max":710,"o":"m 46 515 l 297 515 l 297 729 l 457 729 l 457 515 l 710 515 l 710 371 l 457 371 l 457 156 l 297 156 l 297 371 l 46 371 l 46 515 z "},"−":{"ha":756,"x_min":46,"x_max":710,"o":"m 46 515 l 710 515 l 710 371 l 46 371 l 46 515 z "},"×":{"ha":665,"x_min":42,"x_max":624,"o":"m 525 154 l 332 342 l 140 154 l 42 256 l 235 443 l 42 631 l 140 733 l 333 546 l 525 733 l 624 631 l 431 443 l 624 256 l 525 154 z "},"÷":{"ha":756,"x_min":46,"x_max":710,"o":"m 46 515 l 710 515 l 710 371 l 46 371 l 46 515 m 481 193 q 452 121 481 146 q 378 96 424 96 q 302 121 331 96 q 274 193 274 146 q 302 266 274 242 q 378 290 331 290 q 452 266 424 290 q 481 193 481 242 m 481 694 q 452 621 481 646 q 378 596 424 596 q 302 621 331 596 q 274 694 274 646 q 302 766 274 742 q 378 790 331 790 q 452 766 424 790 q 481 694 481 742 z "},"=":{"ha":785,"x_min":60,"x_max":725,"o":"m 60 654 l 725 654 l 725 511 l 60 511 l 60 654 m 60 375 l 725 375 l 725 231 l 60 231 l 60 375 z "},"¬":{"ha":778,"x_min":46,"x_max":710,"o":"m 46 665 l 710 665 l 710 244 l 560 244 l 560 521 l 46 521 l 46 665 z "},"~":{"ha":781,"x_min":38,"x_max":746,"o":"m 625 553 l 746 497 q 703 406 728 446 q 641 344 678 367 q 546 321 604 321 q 465 337 507 321 q 383 373 422 353 q 308 408 343 393 q 246 424 272 424 q 194 401 210 424 q 160 333 178 378 l 38 389 q 78 478 56 438 q 135 542 100 518 q 226 565 171 565 q 308 550 265 565 q 392 514 350 535 q 472 478 435 493 q 539 463 510 463 q 591 486 575 463 q 625 553 607 510 z "},"<":{"ha":772,"x_min":46,"x_max":710,"o":"m 46 371 l 46 513 l 710 740 l 710 586 l 172 415 l 181 465 l 710 297 l 710 143 l 46 371 z "},">":{"ha":772,"x_min":63,"x_max":728,"o":"m 728 371 l 63 143 l 63 297 l 592 465 l 600 415 l 63 586 l 63 740 l 728 513 l 728 371 z "},"±":{"ha":781,"x_min":58,"x_max":722,"o":"m 58 144 l 722 144 l 722 0 l 58 0 l 58 144 m 58 528 l 311 528 l 311 729 l 469 729 l 469 528 l 722 528 l 722 383 l 469 383 l 469 200 l 311 200 l 311 383 l 58 383 l 58 528 z "},"^":{"ha":694,"x_min":32,"x_max":663,"o":"m 274 924 l 421 924 l 663 501 l 503 501 l 319 831 l 379 840 l 192 501 l 32 501 l 274 924 z "},"≠":{"ha":785,"x_min":60,"x_max":725,"o":"m 60 375 l 725 375 l 725 231 l 60 231 l 60 375 m 60 654 l 725 654 l 725 511 l 60 511 l 60 654 m 499 804 l 646 804 l 286 81 l 139 81 l 499 804 z "},"≈":{"ha":799,"x_min":46,"x_max":753,"o":"m 632 683 l 753 628 q 710 537 735 576 q 649 474 686 497 q 554 451 611 451 q 472 468 514 453 q 390 503 431 483 q 315 539 350 524 q 253 554 279 554 q 201 531 217 554 q 167 464 185 508 l 46 519 q 85 608 63 568 q 142 672 107 649 q 233 696 178 696 q 315 681 272 696 q 400 644 357 665 q 481 608 443 624 q 546 593 518 593 q 598 617 582 593 q 632 683 614 640 m 632 413 l 753 357 q 710 266 735 306 q 649 203 686 226 q 554 181 611 181 q 472 197 514 181 q 390 233 431 213 q 315 268 350 253 q 253 283 279 283 q 201 260 217 283 q 167 193 185 238 l 46 249 q 85 338 63 297 q 142 401 107 378 q 233 425 178 425 q 315 410 272 425 q 400 374 357 394 q 481 338 443 353 q 546 322 518 322 q 598 346 582 322 q 632 413 614 369 z "},"≤":{"ha":796,"x_min":58,"x_max":722,"o":"m 58 379 l 58 521 l 722 738 l 722 582 l 185 424 l 194 474 l 722 318 l 722 164 l 58 379 m 722 144 l 722 0 l 58 0 l 58 144 l 722 144 z "},"≥":{"ha":796,"x_min":74,"x_max":738,"o":"m 738 379 l 74 164 l 74 318 l 601 474 l 611 424 l 74 582 l 74 738 l 738 521 l 738 379 m 74 144 l 738 144 l 738 0 l 74 0 l 74 144 z "},"∞":{"ha":949,"x_min":36,"x_max":911,"o":"m 406 443 q 353 488 376 469 q 308 517 331 507 q 260 528 286 528 q 198 508 222 528 q 174 443 174 489 q 198 378 174 397 q 260 358 222 358 q 308 368 286 358 q 353 397 331 378 q 406 443 376 415 m 543 443 q 595 397 572 417 q 641 368 618 378 q 690 358 664 358 q 750 378 726 358 q 774 443 774 397 q 750 508 774 489 q 690 528 726 528 q 641 518 664 528 q 595 490 618 508 q 543 443 572 471 m 474 550 q 545 607 513 583 q 615 644 578 631 q 706 657 653 657 q 853 603 796 657 q 911 443 911 549 q 853 283 911 338 q 706 229 796 229 q 615 242 653 229 q 545 278 578 254 q 474 338 513 303 q 403 278 436 303 q 333 242 371 254 q 242 229 294 229 q 94 283 153 229 q 36 443 36 338 q 94 603 36 549 q 243 657 153 657 q 333 644 296 657 q 403 607 371 631 q 474 550 436 583 z "},"◊":{"ha":747,"x_min":21,"x_max":726,"o":"m 310 0 l 21 463 l 310 925 l 438 925 l 726 463 l 438 0 l 310 0 m 374 169 l 561 463 l 374 756 l 186 463 l 374 169 z "},"√":{"ha":836,"x_min":22,"x_max":896,"o":"m 22 703 l 304 703 l 478 158 l 738 924 l 896 924 l 572 0 l 367 0 l 158 585 l 22 585 l 22 703 z "},"∫":{"ha":349,"x_min":-74,"x_max":422,"o":"m -74 -275 l -74 -129 l -60 -129 q 16 -118 -17 -129 q 67 -78 49 -107 q 86 3 86 -49 l 86 751 q 124 910 86 849 q 229 1000 161 971 q 388 1029 297 1029 l 422 1029 l 422 883 l 408 883 q 333 872 367 883 q 281 831 300 860 q 263 751 263 803 l 263 1 q 224 -157 263 -96 q 119 -247 186 -218 q -39 -275 51 -275 l -74 -275 z "},"∂":{"ha":788,"x_min":42,"x_max":743,"o":"m 217 756 l 200 897 q 311 928 253 917 q 438 940 369 940 q 601 911 533 940 q 706 818 669 882 q 743 649 743 754 q 729 475 743 567 q 685 297 715 383 q 604 139 654 210 q 481 26 554 68 q 308 -17 407 -17 q 114 53 186 -17 q 42 240 42 124 q 78 407 42 336 q 188 517 115 478 q 368 556 260 556 q 485 544 432 556 q 574 518 539 533 q 580 589 578 551 q 582 649 582 626 q 544 760 582 728 q 425 793 506 793 q 315 783 365 793 q 217 756 264 772 m 543 390 q 471 413 514 403 q 379 422 428 422 q 288 406 329 422 q 224 352 247 390 q 200 247 200 314 q 231 163 200 194 q 318 131 263 131 q 424 165 379 131 q 499 259 469 200 q 543 390 528 318 z "},"∏":{"ha":1001,"x_min":43,"x_max":958,"o":"m 43 924 l 958 924 l 958 763 l 849 763 l 849 0 l 667 0 l 667 763 l 335 763 l 335 0 l 153 0 l 153 763 l 43 763 l 43 924 z "},"∑":{"ha":785,"x_min":58,"x_max":733,"o":"m 294 769 l 575 482 l 289 154 l 733 154 l 733 0 l 58 0 l 58 149 l 350 482 l 58 776 l 58 924 l 706 924 l 706 769 l 294 769 z "},"π":{"ha":874,"x_min":26,"x_max":849,"o":"m 26 703 l 849 703 l 849 549 l 714 549 l 714 0 l 540 0 l 540 549 l 333 549 l 333 0 l 160 0 l 160 549 l 26 549 l 26 703 z "},"Δ":{"ha":874,"x_min":40,"x_max":833,"o":"m 40 0 l 342 925 l 531 925 l 833 0 l 40 0 m 639 72 l 397 843 l 475 838 l 232 69 l 158 154 l 715 154 l 639 72 z "},"Ω":{"ha":985,"x_min":67,"x_max":918,"o":"m 492 940 q 712 894 621 940 q 851 751 803 849 q 899 497 899 654 q 878 340 899 404 q 820 231 857 275 q 738 154 783 188 l 918 154 l 918 0 l 547 0 l 547 156 q 624 210 592 179 q 678 280 656 240 q 710 374 700 319 q 721 500 721 428 q 696 667 721 606 q 620 755 671 728 q 492 782 569 782 q 365 755 415 782 q 289 667 314 728 q 264 500 264 606 q 274 374 264 428 q 306 280 285 319 q 360 210 328 240 q 436 156 393 179 l 436 0 l 67 0 l 67 154 l 246 154 q 165 231 201 188 q 106 340 128 275 q 85 497 85 404 q 133 751 85 654 q 272 894 181 849 q 492 940 364 940 z "},"ℓ":{"ha":590,"x_min":78,"x_max":563,"o":"m 250 279 l 250 239 q 276 156 250 176 q 339 135 303 135 q 408 141 372 135 q 471 154 443 147 l 476 11 q 389 -11 433 -4 q 300 -18 344 -18 q 138 44 199 -18 q 78 233 78 107 l 78 646 q 113 813 78 747 q 205 909 147 878 q 331 940 263 940 q 449 911 396 940 q 532 822 501 882 q 563 667 563 761 q 538 524 563 586 q 469 417 513 463 q 369 338 425 371 q 250 279 313 304 m 250 418 q 364 523 322 460 q 406 657 406 586 q 385 751 406 718 q 331 783 365 783 q 271 745 292 783 q 250 642 250 707 l 250 418 z "},"µ":{"ha":772,"x_min":86,"x_max":688,"o":"m 515 703 l 688 703 l 688 35 q 556 -1 636 17 q 390 -18 476 -18 q 246 6 314 -18 q 142 90 178 31 q 106 151 126 117 q 86 228 86 185 l 86 703 l 258 703 l 258 228 q 276 165 258 188 q 324 135 293 143 q 396 126 356 126 q 458 132 424 126 q 515 143 493 138 l 515 703 m 251 -261 l 86 -261 l 86 235 l 251 235 l 251 -261 z "},"ſ":{"ha":394,"x_min":25,"x_max":543,"o":"m 308 772 l 308 0 l 131 0 l 131 560 l 25 560 l 25 703 l 131 703 l 131 772 q 165 917 131 861 q 262 1000 200 974 q 407 1026 324 1026 q 478 1024 440 1026 q 543 1014 515 1021 l 528 872 q 478 878 504 876 q 429 881 453 881 q 342 858 375 881 q 308 772 308 836 z "},"ƒ":{"ha":707,"x_min":31,"x_max":700,"o":"m 31 596 l 197 596 l 197 686 q 235 831 197 775 q 344 914 274 888 q 507 940 414 940 q 607 933 556 940 q 700 918 658 926 l 685 776 q 607 789 646 783 q 528 794 568 794 q 416 772 458 794 q 374 686 374 750 l 374 596 l 676 596 l 676 454 l 374 454 l 374 0 l 197 0 l 197 454 l 31 454 l 31 596 z "},"ﬁ":{"ha":829,"x_min":25,"x_max":743,"o":"m 25 703 l 131 703 l 131 754 q 172 912 131 851 q 290 1001 214 972 q 467 1029 365 1029 q 547 1026 503 1029 q 635 1017 592 1022 q 711 1004 679 1011 l 696 863 q 589 878 644 872 q 488 883 533 883 q 393 872 433 883 q 331 833 353 861 q 308 754 308 804 l 308 703 l 743 703 l 743 0 l 571 0 l 571 560 l 308 560 l 308 0 l 131 0 l 131 560 l 25 560 l 25 703 z "},"ﬂ":{"ha":832,"x_min":25,"x_max":746,"o":"m 25 703 l 131 703 l 131 754 q 172 912 131 851 q 290 1001 214 972 q 467 1029 365 1029 q 558 1025 507 1029 q 658 1014 608 1021 q 746 999 708 1007 l 731 857 q 606 876 669 868 q 488 883 542 883 q 393 872 433 883 q 331 833 353 861 q 308 754 308 804 l 308 703 l 451 703 l 451 560 l 308 560 l 308 0 l 131 0 l 131 560 l 25 560 l 25 703 m 574 999 l 746 999 l 746 0 l 574 0 l 574 999 z "},"⁰":{"ha":479,"x_min":31,"x_max":449,"o":"m 449 836 q 397 649 449 710 q 239 588 346 588 q 81 649 132 588 q 31 835 31 710 q 81 1026 31 963 q 239 1089 131 1089 q 397 1026 346 1089 q 449 836 449 964 m 328 836 q 306 945 328 913 q 239 978 285 978 q 172 945 193 978 q 151 835 151 913 q 172 729 151 761 q 239 697 193 697 q 306 729 285 697 q 328 836 328 761 z "},"¹":{"ha":296,"x_min":18,"x_max":253,"o":"m 18 1044 l 154 1078 l 253 1078 l 253 597 l 133 597 l 133 960 l 18 932 l 18 1044 z "},"²":{"ha":404,"x_min":26,"x_max":372,"o":"m 50 963 l 39 1071 q 100 1083 64 1078 q 175 1089 136 1089 q 269 1075 226 1089 q 339 1030 313 1061 q 365 947 365 999 q 351 878 365 910 q 309 815 338 847 q 233 742 281 783 l 192 707 l 372 707 l 372 597 l 26 597 l 26 701 l 88 754 q 181 839 147 807 q 227 892 214 871 q 240 933 240 914 q 219 968 240 958 q 164 978 199 978 q 101 973 133 978 q 50 963 69 968 z "},"³":{"ha":399,"x_min":26,"x_max":374,"o":"m 31 1078 l 346 1078 l 346 976 l 240 881 l 249 879 q 308 860 279 875 q 355 817 336 846 q 374 743 374 789 q 320 625 374 664 q 172 586 267 586 q 93 592 129 586 q 26 607 57 599 l 35 710 q 99 697 65 703 q 165 690 133 690 q 227 703 204 690 q 250 742 250 715 q 226 782 250 771 q 161 793 201 793 l 106 793 l 106 875 l 204 971 l 31 971 l 31 1078 z "},"⁴":{"ha":450,"x_min":19,"x_max":428,"o":"m 238 1078 l 371 1078 l 371 778 l 428 778 l 428 678 l 371 678 l 371 597 l 257 597 l 257 678 l 21 678 l 19 771 l 238 1078 m 128 760 l 69 778 l 257 778 l 257 1017 l 297 996 l 128 760 z "},"⁵":{"ha":397,"x_min":33,"x_max":372,"o":"m 372 747 q 321 626 372 665 q 175 586 269 586 q 103 592 139 586 q 33 607 67 597 l 42 708 q 108 694 75 700 q 168 689 140 689 q 251 743 251 689 q 228 785 251 774 q 161 797 206 797 q 123 795 149 797 q 61 789 97 793 l 42 810 l 64 1078 l 340 1078 l 340 971 l 158 971 l 151 893 q 168 895 156 894 q 194 896 181 896 q 323 861 274 896 q 372 747 372 826 z "},"⁶":{"ha":435,"x_min":29,"x_max":411,"o":"m 150 788 q 155 738 150 761 q 176 702 160 715 q 225 689 192 689 q 281 706 261 689 q 300 749 300 722 q 281 792 300 778 q 224 806 261 806 q 185 801 204 806 q 150 788 165 796 m 371 1075 l 363 974 q 308 982 338 979 q 253 985 279 985 q 175 963 201 985 q 149 885 149 942 q 191 897 167 892 q 239 901 215 901 q 365 865 318 901 q 411 750 411 828 q 363 634 411 682 q 225 586 315 586 q 116 613 160 586 q 51 695 72 640 q 29 832 29 750 q 56 984 29 928 q 133 1065 83 1040 q 250 1089 183 1089 q 313 1085 279 1089 q 371 1075 347 1081 z "},"⁷":{"ha":385,"x_min":21,"x_max":365,"o":"m 21 1078 l 365 1078 l 365 979 l 169 597 l 42 597 l 232 967 l 21 967 l 21 1078 z "},"⁸":{"ha":447,"x_min":29,"x_max":418,"o":"m 224 801 q 146 740 146 801 q 224 679 146 679 q 300 740 300 679 q 224 801 300 801 m 339 843 q 399 800 379 828 q 418 732 418 772 q 368 625 418 664 q 224 586 318 586 q 78 625 128 586 q 29 732 29 664 q 49 799 29 772 q 108 843 69 826 q 58 883 75 857 q 42 950 42 910 q 88 1051 42 1014 q 224 1089 135 1089 q 358 1051 313 1089 q 404 950 404 1014 q 388 883 404 910 q 339 843 372 857 m 224 997 q 158 944 158 997 q 224 886 158 886 q 289 944 289 886 q 224 997 289 997 z "},"⁹":{"ha":435,"x_min":24,"x_max":406,"o":"m 285 886 q 280 937 285 914 q 260 974 275 960 q 211 988 244 988 q 156 971 174 988 q 138 926 138 954 q 156 883 138 897 q 213 869 174 869 q 249 874 231 869 q 285 886 267 878 m 63 600 l 72 701 q 126 693 97 696 q 182 690 156 690 q 260 713 235 690 q 286 790 286 735 q 244 779 268 785 q 196 772 221 774 q 70 810 117 772 q 24 924 24 847 q 71 1041 24 993 q 211 1089 118 1089 q 319 1062 276 1089 q 384 980 363 1035 q 406 842 406 925 q 378 691 406 747 q 301 610 350 635 q 185 586 251 586 q 122 590 156 586 q 63 600 88 594 z "},"←":{"ha":910,"x_min":38,"x_max":864,"o":"m 346 685 l 54 389 q 38 348 38 371 q 54 307 38 325 l 343 19 l 443 126 l 181 358 l 181 340 l 447 581 l 346 685 m 169 285 l 864 285 l 864 422 l 169 422 l 169 285 z "},"↑":{"ha":726,"x_min":35,"x_max":694,"o":"m 35 517 l 136 413 l 376 679 l 358 679 l 593 415 l 694 521 l 408 810 q 369 828 392 828 q 331 810 347 828 l 35 517 m 429 690 l 299 690 l 299 0 l 429 0 l 429 690 z "},"→":{"ha":910,"x_min":46,"x_max":872,"o":"m 563 685 l 463 581 l 729 340 l 729 358 l 465 126 l 567 19 l 856 307 q 872 348 872 325 q 856 389 872 371 l 563 685 m 740 285 l 740 422 l 46 422 l 46 285 l 740 285 z "},"↓":{"ha":724,"x_min":31,"x_max":690,"o":"m 31 293 l 325 0 q 365 -18 343 -18 q 404 0 388 -18 l 690 289 l 588 394 l 354 132 l 372 132 l 132 397 l 31 293 m 425 119 l 425 810 l 293 810 l 293 119 l 425 119 z "},"↔":{"ha":1192,"x_min":38,"x_max":1153,"o":"m 346 685 l 54 389 q 38 348 38 371 q 54 307 38 325 l 343 19 l 443 126 l 181 358 l 181 340 l 447 581 l 346 685 m 169 285 l 803 285 l 803 422 l 169 422 l 169 285 m 844 685 l 743 581 l 1010 340 l 1010 358 l 746 126 l 847 19 l 1136 307 q 1153 348 1153 325 q 1136 389 1153 371 l 844 685 m 1021 285 l 1021 422 l 388 422 l 388 285 l 1021 285 z "},"↕":{"ha":740,"x_min":39,"x_max":699,"o":"m 39 297 l 335 4 q 374 -14 351 -14 q 413 4 396 -14 l 699 294 l 597 399 l 363 136 l 381 136 l 140 403 l 39 297 m 435 124 l 435 685 l 303 685 l 303 124 l 435 124 m 39 707 l 140 601 l 381 868 l 363 868 l 597 606 l 699 710 l 413 1000 q 374 1017 396 1017 q 335 1000 351 1017 l 39 707 m 435 881 l 303 881 l 303 319 l 435 319 l 435 881 z "},"↖":{"ha":746,"x_min":69,"x_max":714,"o":"m 69 197 l 213 197 l 194 556 l 181 543 l 533 521 l 533 669 l 128 672 q 88 656 104 672 q 72 614 72 639 l 69 197 m 131 506 l 622 17 l 714 114 l 224 603 l 131 506 z "},"↗":{"ha":746,"x_min":31,"x_max":676,"o":"m 676 197 l 674 614 q 658 656 674 639 q 618 672 642 672 l 211 669 l 213 521 l 564 543 l 551 556 l 532 197 l 676 197 m 614 506 l 521 603 l 31 114 l 124 17 l 614 506 z "},"↘":{"ha":747,"x_min":32,"x_max":678,"o":"m 678 536 l 535 536 l 553 178 l 565 190 l 214 213 l 213 64 l 619 61 q 659 78 643 61 q 675 119 675 94 l 678 536 m 617 228 l 125 717 l 32 619 l 524 132 l 617 228 z "},"↙":{"ha":747,"x_min":71,"x_max":715,"o":"m 71 536 l 72 119 q 88 78 72 94 q 128 61 104 61 l 535 64 l 533 213 l 182 190 l 194 178 l 214 536 l 71 536 m 132 228 l 225 132 l 715 619 l 622 717 l 132 228 z "},"℮":{"ha":1003,"x_min":76,"x_max":926,"o":"m 926 357 l 238 357 q 232 353 232 357 l 232 144 q 235 131 232 138 q 242 119 238 125 q 358 38 290 68 q 503 8 426 8 q 656 42 586 8 q 776 133 726 76 l 838 133 q 692 26 781 67 q 501 -15 604 -15 q 337 15 414 -15 q 201 97 260 44 q 110 218 143 149 q 76 367 76 288 q 110 516 76 446 q 201 639 143 586 q 337 722 260 692 q 501 751 414 751 q 666 722 589 751 q 801 639 743 692 q 893 516 860 586 q 926 367 926 446 l 926 357 m 771 383 l 771 593 q 760 619 771 608 q 645 699 711 669 q 503 728 579 728 q 359 698 426 728 q 243 615 292 668 q 232 589 232 607 l 232 383 q 238 378 232 378 l 767 378 q 771 383 771 378 z "}}}
